<svg height="512pt" viewBox="-123 0 512 512.00025" width="512pt" xmlns="http://www.w3.org/2000/svg"><path d="m193.242188 279.859375c-3.585938-2.074219-8.179688-.851563-10.257813 2.734375-1.566406 2.699219-4.46875 4.375-7.582031 4.375-3.113282 0-6.019532-1.675781-7.582032-4.375-2.078124-3.589844-6.671874-4.8125-10.261718-2.738281-3.585938 2.078125-4.8125 6.671875-2.734375 10.261719 4.242187 7.320312 12.125 11.867187 20.578125 11.867187 8.449218 0 16.335937-4.546875 20.574218-11.863281 2.078126-3.585938.855469-8.179688-2.734374-10.261719zm0 0"/><path d="m104.3125 279.859375c-3.589844-2.074219-8.183594-.851563-10.261719 2.734375-1.5625 2.699219-4.46875 4.375-7.582031 4.375s-6.015625-1.675781-7.582031-4.375c-2.078125-3.589844-6.671875-4.8125-10.257813-2.738281-3.589844 2.078125-4.8125 6.671875-2.734375 10.261719 4.238281 7.320312 12.121094 11.867187 20.574219 11.867187s16.335938-4.546875 20.574219-11.863281c2.082031-3.585938.855469-8.183594-2.730469-10.261719zm0 0"/><path d="m264.691406 193.980469c-3.789062-25.410157-17.933594-48.269531-42.046875-67.945313-10.28125-8.386718-21.761719-14.996094-33.363281-21.339844 12.746094-16.832031 16.238281-37.476562 9.179688-57.691406-9.566407-27.390625-36.464844-46.277344-66.941407-46.99999975-.117187-.00390625-.234375-.00390625-.355469 0-30.738281.73046875-57.875 19.79687475-67.53125 47.44531275-3.789062 10.847656-4.527343 21.8125-2.425781 32.234375-3.214843 1.105468-6.382812 2.40625-9.488281 3.90625-3.007812 1.453125-6.039062 2.96875-9.007812 4.5-6.378907 3.289062-9.832032 9.996094-8.796876 17.089844 1.035157 7.113281 6.273438 12.574218 13.34375 13.90625 5.542969 1.046874 10.917969 2.214843 16.15625 3.472656-7.851562 5.144531-15.179687 10.855468-21.890624 17.078125-3.039063 2.820312-3.21875 7.570312-.398438 10.609375 2.820312 3.039062 7.570312 3.21875 10.609375.398437 9.585937-8.886719 20.570313-16.648437 32.664063-23.074219 15.972656-8.511718 33.574218-14.554687 52.304687-17.960937 6.261719-1.132813 14.359375-2.433594 22.324219-2.636719 10.714844 4.324219 20.8125 9.324219 30.191406 14.945313-18.253906 5.523437-35.609375 11.972656-51.777344 19.238281-71.8125 32.25-105.644531 73.34375-118.972656 93.859375-7.015625-18.648437-3.285156-38.570313 11.164062-59.390625 2.367188-3.40625 1.519532-8.082031-1.886718-10.449219-3.40625-2.363281-8.082032-1.519531-10.449219 1.886719-20.179687 29.078125-22.730469 58.222656-7.5 84.53125.003906.195312.007813.390625.015625.585938.019531.539062.027344 1.078124.054688 1.617187.246093 4.878906.757812 9.738281 1.34375 14.585937.625 5.132813 1.332031 10.203126 1.957031 15.289063.820312 6.679687 1.472656 13.207031 1.589843 19.925781.785157 46.371094 34.003907 89.484375 78.367188 107.894532v7.292968c0 2.832032-1.683594 5.382813-4.292969 6.492188l-55.222656 23.53125c-14.105469 6.011718-23.21875 19.796875-23.21875 35.128906v20.554688c0 4.144531 3.363281 7.507812 7.511719 7.507812h226.71875c4.144531 0 7.507812-3.359375 7.507812-7.507812v-20.554688c0-15.332031-9.113281-29.117188-23.214844-35.128906l-10.636718-4.53125c-3.816406-1.625-8.226563.152344-9.851563 3.96875-1.625 3.8125.148438 8.222656 3.964844 9.847656l10.636719 4.53125c8.554687 3.644531 14.085937 12.011719 14.085937 21.3125v13.046875h-211.707031v-13.046875c0-9.300781 5.53125-17.667969 14.085938-21.3125l55.226562-23.53125c8.152344-3.472656 13.417969-11.445312 13.417969-20.308594v-2.136718c7.34375 2.003906 14.902343 3.339843 22.601562 3.914062.183594.015625.371094.019531.558594.019531s.371094-.003906.558594-.019531c7.671875-.574219 15.207031-1.898438 22.523437-3.894531v2.117187c0 8.863282 5.269532 16.835938 13.421875 20.308594l12.265625 5.222656c3.8125 1.628906 8.222656-.148437 9.847656-3.960937 1.625-3.816407-.148437-8.226563-3.960937-9.851563l-12.269531-5.226562c-2.605469-1.109375-4.289063-3.65625-4.289063-6.492188v-7.261718c44.398438-18.394532 77.652344-61.527344 78.441407-107.921876.15625-9.085937 1.292968-17.8125 2.5-27.050781.414062-3.183593.832031-6.429687 1.214843-9.722656.007813-.039063.019531-.078125.023438-.121094.140625-1.226562.269531-2.398437.390625-3.542969 0-.023437.003906-.046874.007812-.074218.164063-1.582032.3125-3.105469.441406-4.582032.058594-.726562.105469-1.453124.15625-2.183593.019532-.324219.046876-.652344.066407-.980469.058593-.886719.097656-1.773438.132812-2.65625.003907-.132812.015625-.265625.019531-.398438 10.636719-17.832031 14.871094-38.417968 11.902344-58.308593zm-182.695312-82.046875c-10.078125-2.910156-20.710938-5.476563-31.953125-7.601563-.273438-.050781-1.109375-.207031-1.269531-1.316406-.15625-1.078125.550781-1.441406.816406-1.582031 2.855468-1.46875 5.773437-2.925782 8.664062-4.324219 9.46875-4.578125 19.984375-6.933594 30.519532-6.933594 4.230468 0 8.460937.378907 12.632812 1.148438 7.945312 1.464843 16.207031 3.101562 24.59375 5.140625-15.523438 3.460937-30.273438 8.648437-44.003906 15.46875zm93.570312-14.144532c-2-.925781-4.011718-1.835937-6.058594-2.710937.039063-.003906.078126-.007813.117188-.011719-5.992188-2.519531-11.636719-4.652344-16.671875-6.398437-16.792969-5.832031-33.390625-9.269531-48.828125-12.113281-9.488281-1.746094-19.027344-1.871094-28.332031-.445313-1.421875-7.648437-.792969-15.664063 2.015625-23.707031 7.585937-21.726563 29.085937-36.734375 53.535156-37.382813 24.183594.644531 45.445312 15.46875 52.941406 36.933594 5.605469 16.054687 2.3125 32.578125-8.71875 45.835937zm59.878906 176.820313c-1.207031 9.246094-2.453124 18.808594-2.621093 28.738281-.429688 25.09375-11.695313 49.722656-31.734375 69.355469-19.257813 18.871094-44.667969 30.820313-69.792969 32.84375-25.125-2.023437-50.53125-13.972656-69.792969-32.84375-20.039062-19.632813-31.308594-44.261719-31.734375-69.355469-.085937-5.132812-.464843-10.167968-.972656-15.113281 54.453125-16.734375 97.863281-38.648437 129.089844-65.183594 1.300781-1.105469 2.585937-2.246093 3.820312-3.390625 3.753907-3.484375 9.753907-3.320312 13.378907.363282 11.636718 11.839843 24.566406 22.171874 37.066406 32.167968l2.339844 1.875c6.976562 5.582032 14.226562 10.804688 21.59375 15.570313-.210938 1.671875-.425782 3.332031-.640626 4.972656zm-11.570312-32.265625-2.347656-1.878906c-12.15625-9.71875-24.726563-19.769532-35.734375-30.964844-9.261719-9.421875-24.652344-9.804688-34.300781-.84375-1.074219.996094-2.195313 1.988281-3.328126 2.953125-29.183593 24.796875-69.929687 45.460937-121.210937 61.480469-.164063-1.238282-.324219-2.492188-.484375-3.746094-.511719-4.082031-.976562-8.058594-1.324219-12.109375-.09375-1.097656-.160156-2.195313-.222656-3.292969.011719-.023437.03125-.046875.039063-.074218.066406-.140626 6.601562-14.523438 24.394531-33.808594 16.441406-17.824219 46.140625-43.601563 94.238281-65.203125.21875-.097657.441406-.1875.660156-.285157 23.589844 13.792969 41.347656 28.96875 54.128906 42.214844 25.507813 26.433594 36.777344 50.445313 39.058594 55.6875-4.605468-3.203125-9.144531-6.589844-13.566406-10.128906zm21.21875-8.125c-6.34375-11.4375-17.550781-28.722656-35.347656-47.285156-11.875-12.386719-27.804688-26.351563-48.382813-39.507813 14.296875-5.589843 29.398438-10.550781 45.121094-14.828125 20.863281 15.214844 39.253906 36.082032 43.355469 63.597656 1.902344 12.734376.21875 25.855469-4.746094 38.023438zm0 0"/></svg>