<svg height="511pt" viewBox="-84 1 511 511.999" width="511pt" xmlns="http://www.w3.org/2000/svg"><path d="m241.945312 363c-4.144531 0-7.503906 3.359375-7.503906 7.503906 0 9.953125-6.296875 18.882813-15.671875 22.21875-2.203125.785156-3.914062 2.546875-4.628906 4.773438-.714844 2.226562-.351563 4.660156.980469 6.578125 2.75 3.957031 4.203125 8.601562 4.203125 13.425781 0 13.003906-10.578125 23.578125-23.578125 23.578125-6.847656 0-13.355469-2.980469-17.84375-8.179687-1.425782-1.648438-3.5-2.597657-5.679688-2.597657-2.179687 0-4.253906.949219-5.679687 2.597657-4.492188 5.199218-10.996094 8.179687-17.847657 8.179687-13 0-23.578124-10.574219-23.578124-23.578125 0-4.828125 1.453124-9.46875 4.203124-13.425781 1.335938-1.917969 1.699219-4.351563.984376-6.578125-.714844-2.226563-2.429688-3.988282-4.628907-4.773438-9.375-3.335937-15.671875-12.265625-15.671875-22.21875 0-13 10.574219-23.578125 23.578125-23.578125 1.9375 0 3.875.242188 5.753907.710938 2.28125.574219 4.699218.042969 6.53125-1.429688 1.832031-1.476562 2.867187-3.722656 2.796874-6.070312l-.011718-.269531c-.003906-.148438-.007813-.296876-.007813-.445313 0-13 10.574219-23.578125 23.578125-23.578125 13 0 23.574219 10.578125 23.574219 23.578125 0 .148437-.003906.296875-.007813.445313l-.011718.269531c-.070313 2.347656.964844 4.59375 2.796875 6.070312 1.832031 1.472657 4.25 2.003907 6.53125 1.429688 4.824219-1.207031 9.960937-.855469 14.527343.972656 3.847657 1.542969 8.214844-.324219 9.757813-4.171875s-.324219-8.214844-4.171875-9.757812c-4.808594-1.929688-9.925781-2.863282-15.140625-2.753907-3.5-17.699219-19.144531-31.089843-37.859375-31.089843-18.710938 0-34.355469 13.386718-37.855469 31.089843-.261719-.003906-.523437-.007812-.785156-.007812-21.277344 0-38.589844 17.308593-38.589844 38.589843 0 13.363282 6.941407 25.597657 17.90625 32.574219-1.835937 4.550781-2.789062 9.425781-2.789062 14.421875 0 21.277344 17.308593 38.589844 38.589843 38.589844 8.582032 0 16.832032-2.859375 23.523438-8.011719 6.691406 5.152344 14.941406 8.011719 23.523438 8.011719 21.28125 0 38.589843-17.3125 38.589843-38.589844 0-4.996094-.953125-9.871094-2.789062-14.421875 10.964843-6.976562 17.90625-19.210937 17.90625-32.574219.003906-4.148437-3.359375-7.507812-7.503907-7.507812zm0 0"/><path d="m172.222656 341.480469c-21.496094 0-38.984375 17.488281-38.984375 38.984375s17.488281 38.984375 38.984375 38.984375 38.984375-17.488281 38.984375-38.984375-17.488281-38.984375-38.984375-38.984375zm0 62.957031c-13.21875 0-23.972656-10.757812-23.972656-23.976562 0-13.214844 10.753906-23.972657 23.972656-23.972657s23.972656 10.757813 23.972656 23.972657c0 13.222656-10.753906 23.976562-23.972656 23.976562zm0 0"/><path d="m282.378906 239.335938c-29.265625-24.492188-46.832031-59.28125-48.929687-96.386719h2.382812c10.777344 0 19.546875-8.769531 19.546875-19.546875v-42.34375c0-10.777344-8.769531-19.546875-19.546875-19.546875h-2.59375v-39.214844c0-12.292969-10.003906-22.296875-22.300781-22.296875h-31.042969c-4.144531 0-7.503906 3.359375-7.503906 7.503906 0 4.144532 3.359375 7.507813 7.503906 7.507813h31.042969c4.019531 0 7.289062 3.269531 7.289062 7.285156v39.214844h-92.007812v-39.214844c0-4.019531 3.269531-7.285156 7.289062-7.285156h12.195313c4.144531 0 7.503906-3.363281 7.503906-7.507813 0-4.144531-3.359375-7.503906-7.503906-7.503906h-12.195313c-12.296874 0-22.300781 10.003906-22.300781 22.296875v39.214844h-2.59375c-10.777343 0-19.546875 8.769531-19.546875 19.546875v42.339844c0 10.78125 8.769532 19.546874 19.546875 19.546874h2.382813c-2.09375 37.113282-19.652344 71.898438-48.898438 96.363282-39.230468 32.820312-61.683594 80.953125-61.597656 132.054687.078125 47.761719 20.234375 93.691407 55.296875 126.019531 10.222656 9.425782 23.453125 14.617188 37.242187 14.617188h158.335938c13.683594 0 26.664062-4.972656 36.558594-14.003906 35.59375-32.488282 56.011718-78.75 56.011718-126.929688 0-50.96875-22.441406-98.980468-61.566406-131.730468zm-173.765625-111.398438c-2.5 0-4.535156-2.035156-4.535156-4.535156v-42.34375c0-2.503906 2.035156-4.535156 4.535156-4.535156h127.21875c2.5 0 4.535157 2.035156 4.535157 4.535156v42.339844c0 2.503906-2.035157 4.539062-4.535157 4.539062zm-36.882812 122.886719c32.667969-27.332031 52.191406-66.308594 54.296875-107.875h92.386718c2.101563 41.550781 21.640626 80.535156 54.332032 107.898437 1.160156.972656 2.300781 1.960938 3.429687 2.960938h-207.910156c1.140625-1.007813 2.292969-2.007813 3.464844-2.984375zm206.085937 236.085937c-7.121094 6.5-16.511718 10.078125-26.441406 10.078125h-158.335938c-10.011718 0-19.625-3.777343-27.070312-10.640625-31.992188-29.5-50.386719-71.417968-50.457031-115.007812-.0625-36.242188 12.6875-71.855469 35.6875-99.828125.054687-.0625.109375-.128907.164062-.191407.691407-.839843 1.394531-1.675781 2.105469-2.5h237.441406c.273438.324219.535156.65625.804688.980469.015625-.019531.03125-.042969.046875-.0625 23.859375 28.105469 37.171875 63.839844 37.171875 101.332031 0 43.96875-18.632813 86.191407-51.117188 115.839844zm0 0"/></svg>