<svg height="512pt" viewBox="-46 0 512 512" width="512pt" xmlns="http://www.w3.org/2000/svg"><path d="m78.480469 406.757812c-4.144531 0-7.507813 3.359376-7.507813 7.507813v15.09375c0 17.441406 14.195313 31.632813 31.636719 31.632813h214.359375c17.445312 0 31.636719-14.191407 31.636719-31.632813v-137.832031c0-76.542969-62.273438-138.8125-138.816407-138.8125-76.542968 0-138.816406 62.273437-138.816406 138.8125v87.539062c0 4.144532 3.363282 7.503906 7.507813 7.503906s7.503906-3.359374 7.503906-7.503906v-87.539062c0-68.265625 55.539063-123.804688 123.804687-123.804688 68.265626 0 123.804688 55.539063 123.804688 123.804688v137.832031c0 9.164063-7.457031 16.625-16.625 16.625h-19.117188v-46.175781c0-15.578125-12.671874-28.25-28.246093-28.25h-52.308594v-10.761719c8.210937-1.644531 15.667969-5.941406 21.144531-12.363281 5.980469-7.019532 11.917969-19.335938 6.316406-38.21875-.660156-2.613282-6.414062-23.777344-25.691406-49.277344-2.21875-2.9375-5.601562-4.621094-9.277344-4.621094-3.675781 0-7.054687 1.683594-9.277343 4.621094-19.277344 25.5-25.03125 46.664062-25.6875 49.277344-5.605469 18.882812.335937 31.203125 6.316406 38.21875 5.472656 6.421875 12.933594 10.71875 21.144531 12.363281v10.761719h-52.308594c-15.578124 0-28.25 12.675781-28.25 28.25v46.175781h-19.117187c-9.167969 0-16.625-7.460937-16.625-16.625v-15.09375c0-4.148437-3.359375-7.507813-7.503906-7.507813zm114.082031-68.0625c-5.28125-6.199218-6.363281-14.160156-3.308594-24.347656.042969-.140625.082032-.28125.113282-.421875.042968-.183593 4.359374-17.804687 20.421874-40.265625 15.828126 22.15625 20.328126 39.886719 20.425782 40.28125.03125.136719.070312.269532.109375.40625 3.054687 10.1875 1.976562 18.148438-3.308594 24.347656-4.25 4.984376-10.527344 7.839844-17.226563 7.839844-6.699218 0-12.976562-2.859375-17.226562-7.839844zm-55.824219 61.113282c0-7.300782 5.9375-13.238282 13.238281-13.238282h119.625c7.300782 0 13.238282 5.9375 13.238282 13.238282v46.171875h-146.105469v-46.171875zm0 0"/><path d="m408.308594 157.175781c-1.679688-3.789062-6.113282-5.5-9.902344-3.820312-3.789062 1.679687-5.5 6.109375-3.820312 9.902343 6.621093 14.949219 9.980468 30.890626 9.980468 47.382813v248.035156c0 21.125-17.1875 38.3125-38.3125 38.3125h-312.929687c-21.125 0-38.3125-17.1875-38.3125-38.3125v-248.035156c0-43.164063 23.488281-80.933594 58.347656-101.234375 1.769531.207031 3.566406.328125 5.390625.328125h262.078125c1.851563 0 3.675781-.121094 5.472656-.335937 11.570313 6.722656 22.039063 15.460937 30.878907 25.984374 2.664062 3.171876 7.398437 3.585938 10.574218.917969 3.171875-2.664062 3.585938-7.398437.917969-10.574219-7.21875-8.59375-15.414063-16.117187-24.332031-22.503906 13.335937-8.015625 22.28125-22.621094 22.28125-39.28125v-33.019531c0-17.050781-13.871094-30.921875-30.917969-30.921875h-291.828125c-17.046875 0-30.921875 13.871094-30.921875 30.921875v33.015625c0 16.675781 8.964844 31.296875 22.324219 39.304688-33.445313 23.988281-55.277344 63.191406-55.277344 107.398437v248.035156c0 29.402344 23.921875 53.324219 53.324219 53.324219h312.929687c29.402344 0 53.324219-23.921875 53.324219-53.324219v-248.035156c0-18.601563-3.792969-36.589844-11.269531-53.464844zm-360.34375-93.238281v-33.015625c0-8.773437 7.136718-15.910156 15.910156-15.910156h291.824219c8.773437 0 15.910156 7.136719 15.910156 15.910156v33.015625c0 16.976562-13.808594 30.785156-30.785156 30.785156h-262.074219c-16.972656 0-30.785156-13.808594-30.785156-30.785156zm0 0"/></svg>