<svg height="512pt" viewBox="0 0 512 512.001" width="512pt" xmlns="http://www.w3.org/2000/svg"><path d="m337.632812 303.613281c2.566407 3.898438 6.886719 6.226563 11.554688 6.226563s8.988281-2.328125 11.554688-6.226563l8.480468-12.890625c3.613282-5.492187 4.75-12.296875 3.121094-18.664062-1.628906-6.367188-5.894531-11.789063-11.703125-14.867188-6.660156-3.535156-14.664063-3.636718-21.414063-.265625l-.734374.367188c-5.980469 2.984375-10.40625 8.398437-12.144532 14.855469-1.738281 6.453124-.628906 13.355468 3.046875 18.941406zm3.195313-27.566406c.632813-2.355469 2.183594-4.246094 4.363281-5.335937l.734375-.367188c1.183594-.589844 2.464844-.882812 3.75-.882812 1.355469 0 2.710938.328124 3.9375.976562 2.117188 1.121094 3.609375 3.019531 4.203125 5.339844.59375 2.320312.195313 4.699218-1.121094 6.699218l-7.503906 11.410157-7.265625-11.042969c-1.339843-2.03125-1.730469-4.449219-1.097656-6.796875zm0 0"/><path d="m360.742188 395.671875c-2.566407-3.898437-6.882813-6.230469-11.554688-6.230469-4.667969 0-8.988281 2.332032-11.550781 6.230469l-8.242188 12.523437c-3.671875 5.582032-4.78125 12.488282-3.046875 18.941407 1.738282 6.457031 6.164063 11.871093 12.148438 14.855469l.734375.367187c3.285156 1.636719 6.867187 2.457031 10.445312 2.457031 3.777344 0 7.546875-.910156 10.964844-2.722656 5.808594-3.082031 10.074219-8.5 11.703125-14.867188 1.632812-6.371093.496094-13.171874-3.121094-18.664062zm-2.925782 27.835937c-.59375 2.320313-2.085937 4.214844-4.203125 5.339844-2.390625 1.265625-5.265625 1.300782-7.6875.09375l-.734375-.367187c-2.179687-1.089844-3.730468-2.980469-4.363281-5.332031-.632813-2.351563-.242187-4.765626 1.097656-6.800782l7.265625-11.042968 7.503906 11.410156c1.316407 2 1.714844 4.378906 1.121094 6.699218zm0 0"/><path d="m276.621094 291.210938-.261719.777343c-2.117187 6.339844-1.421875 13.296875 1.914063 19.089844 3.335937 5.792969 9.003906 9.890625 15.550781 11.242187l14.683593 3.027344c.933594.195313 1.875.289063 2.808594.289063 3.628906 0 7.140625-1.425781 9.765625-4.050781 3.300781-3.304688 4.707031-8.003907 3.765625-12.574219l-3.121094-15.117188c-1.328124-6.4375-5.332031-12.050781-10.988281-15.402343-5.65625-3.347657-12.503906-4.164063-18.789062-2.234376-7.210938 2.210938-12.941407 7.800782-15.328125 14.953126zm13.964844 5.527343.257812-.777343c.859375-2.566407 2.917969-4.574219 5.503906-5.367188.824219-.253906 1.660156-.378906 2.488282-.378906 1.480468 0 2.9375.398437 4.257812 1.179687 2.0625 1.222657 3.460938 3.183594 3.945312 5.53125l2.761719 13.375-12.945312-2.667969c-2.386719-.492187-4.367188-1.925781-5.582031-4.039062-1.21875-2.109375-1.460938-4.542969-.6875-6.855469zm0 0"/><path d="m405.054688 377.222656-15.113282-3.117187c-4.574218-.941407-9.273437.464843-12.574218 3.765625-3.300782 3.300781-4.707032 8-3.765626 12.574218l3.03125 14.683594c1.351563 6.542969 5.445313 12.210938 11.238282 15.546875 3.589844 2.066407 7.625 3.121094 11.679687 3.121094 2.492188 0 4.996094-.398437 7.40625-1.207031l.785157-.261719c7.152343-2.386719 12.742187-8.117187 14.953124-15.328125 1.929688-6.28125 1.113282-13.132812-2.238281-18.785156-3.347656-5.65625-8.964843-9.664063-15.402343-10.992188zm3.304687 25.382813c-.792969 2.585937-2.800781 4.644531-5.367187 5.5l-.785157.261719c-2.308593.773437-4.742187.527343-6.851562-.6875-2.109375-1.214844-3.542969-3.195313-4.035157-5.582032l-2.667968-12.945312 13.375 2.757812c2.34375.484375 4.308594 1.886719 5.527344 3.949219 1.222656 2.058594 1.507812 4.453125.804687 6.746094zm0 0"/><path d="m290.753906 369.558594 12.523438-8.242188c3.902344-2.566406 6.230468-6.882812 6.230468-11.550781 0-4.671875-2.328124-8.988281-6.230468-11.554687l-12.890625-8.484376c-5.488281-3.613281-12.292969-4.75-18.660157-3.117187-6.367187 1.628906-11.789062 5.894531-14.867187 11.703125-3.535156 6.660156-3.632813 14.664062-.265625 21.414062l.367188.734376c2.984374 5.980468 8.398437 10.40625 14.855468 12.144531 2 .539062 4.039063.804687 6.074219.804687 4.527344-.003906 9.011719-1.316406 12.863281-3.851562zm-20.378906-15.800782-.363281-.734374c-1.210938-2.421876-1.175781-5.296876.09375-7.6875 1.121093-2.113282 3.019531-3.605469 5.339843-4.199219.703126-.183594 1.410157-.269531 2.109376-.269531 1.617187 0 3.195312.472656 4.589843 1.386718l11.410157 7.507813-11.042969 7.265625c-2.035157 1.339844-4.449219 1.726562-6.800781 1.09375-2.351563-.632813-4.246094-2.179688-5.335938-4.363282zm0 0"/><path d="m408.230469 329.726562-12.890625 8.484376c-3.902344 2.5625-6.230469 6.882812-6.230469 11.550781s2.332031 8.988281 6.230469 11.554687l12.523437 8.238282c3.855469 2.539062 8.335938 3.851562 12.867188 3.851562 2.03125 0 4.074219-.265625 6.074219-.800781 6.457031-1.738281 11.871093-6.164063 14.855468-12.152344l.367188-.730469c3.367187-6.746094 3.265625-14.75-.265625-21.414062-3.082031-5.804688-8.5-10.074219-14.867188-11.703125-6.367187-1.628907-13.171875-.492188-18.664062 3.121093zm14.945312 11.410157c2.320313.59375 4.214844 2.085937 5.335938 4.199219 1.269531 2.394531 1.304687 5.265624.09375 7.691406l-.363281.734375c-1.089844 2.179687-2.984376 3.726562-5.335938 4.359375-2.347656.632812-4.765625.246094-6.800781-1.09375l-11.042969-7.265625 11.410156-7.507813c2.003906-1.316406 4.378906-1.714844 6.703125-1.117187zm0 0"/><path d="m308.675781 374.105469-15.113281 3.117187c-6.4375 1.328125-12.050781 5.335938-15.402344 10.992188-3.351562 5.65625-4.164062 12.503906-2.238281 18.789062 2.214844 7.207032 7.804687 12.9375 14.957031 15.328125l.777344.261719c2.414062.804688 4.917969 1.203125 7.414062 1.203125 4.054688 0 8.089844-1.054687 11.675782-3.117187 5.792968-3.335938 9.890625-9.003907 11.242187-15.550782l3.027344-14.683594c.945313-4.570312-.464844-9.273437-3.765625-12.574218-3.300781-3.300782-7.996094-4.710938-12.574219-3.765625zm-1.378906 27.992187c-.492187 2.382813-1.921875 4.367188-4.03125 5.582032-2.109375 1.214843-4.542969 1.460937-6.859375.6875l-.777344-.261719c-2.566406-.859375-4.574218-2.914063-5.367187-5.503907-.703125-2.289062-.417969-4.683593.804687-6.746093 1.21875-2.058594 3.183594-3.460938 5.527344-3.945313l13.375-2.757812zm0 0"/><path d="m387.300781 325.636719c.933594 0 1.875-.09375 2.8125-.289063l14.683594-3.027344c6.542969-1.351562 12.210937-5.449218 15.546875-11.242187 3.335938-5.789063 4.035156-12.75 1.917969-19.085937l-.261719-.78125c-2.390625-7.152344-8.121094-12.742188-15.328125-14.953126-6.285156-1.929687-13.132813-1.117187-18.789063 2.234376-5.65625 3.351562-9.664062 8.96875-10.992187 15.40625l-3.117187 15.113281c-.941407 4.570312.464843 9.269531 3.765624 12.574219 2.625 2.625 6.136719 4.050781 9.761719 4.050781zm4.277344-28.710938c.484375-2.34375 1.886719-4.308593 3.945313-5.53125 1.320312-.78125 2.78125-1.179687 4.261718-1.179687.828125 0 1.664063.125 2.488282.378906 2.585937.792969 4.644531 2.800781 5.5 5.367188l.261718.78125c.773438 2.308593.527344 4.742187-.6875 6.855468-1.214844 2.109375-3.195312 3.542969-5.582031 4.035156l-12.945313 2.671876zm0 0"/><path d="m349.308594 383.566406c18.707031 0 33.925781-15.21875 33.925781-33.925781 0-18.703125-15.21875-33.921875-33.925781-33.921875-18.707032 0-33.921875 15.21875-33.921875 33.921875 0 18.707031 15.214843 33.925781 33.921875 33.925781zm0-52.851562c10.4375 0 18.929687 8.488281 18.929687 18.925781s-8.492187 18.929687-18.929687 18.929687-18.925782-8.492187-18.925782-18.929687c0-10.433594 8.488282-18.925781 18.925782-18.925781zm0 0"/><path d="m349.308594 187.285156c-9.152344 0-18.132813.765625-26.878906 2.234375 1.496093-8.835937 2.285156-17.910156 2.285156-27.160156 0-89.527344-72.832032-162.359375-162.355469-162.359375-89.527344 0-162.359375 72.832031-162.359375 162.359375 0 89.523437 72.835938 162.355469 162.359375 162.355469 9.15625 0 18.136719-.773438 26.882813-2.238282-1.496094 8.839844-2.289063 17.910157-2.289063 27.167969 0 31.546875 9.058594 62.136719 26.195313 88.464844 16.695312 25.644531 40.148437 45.992187 67.832031 58.855469 3.757812 1.742187 8.21875.113281 9.960937-3.644532 1.742188-3.753906.113282-8.214843-3.640625-9.957031-25.132812-11.675781-46.425781-30.152343-61.582031-53.4375-15.550781-23.886719-23.769531-51.648437-23.769531-80.28125 0-10.515625 1.117187-20.773437 3.21875-30.667969 10.882812-2.976562 21.300781-7.078124 31.148437-12.136718-5.070312 13.3125-7.863281 27.734375-7.863281 42.804687 0 66.640625 54.214844 120.855469 120.855469 120.855469s120.855468-54.214844 120.855468-120.855469-54.214843-120.859375-120.855468-120.859375c-14.988282 0-29.339844 2.757813-42.59375 7.769532 5.074218-9.832032 9.1875-20.238282 12.183594-31.105469 9.816406-2.066407 19.988281-3.167969 30.410156-3.167969 81.253906 0 147.359375 66.109375 147.359375 147.363281 0 81.253907-66.105469 147.359375-147.359375 147.359375-10.097656 0-20.1875-1.027344-29.988282-3.050781-4.050781-.839844-8.023437 1.769531-8.859374 5.824219-.839844 4.058594 1.769531 8.023437 5.824218 8.863281 10.796875 2.230469 21.90625 3.359375 33.023438 3.359375 89.523437 0 162.355468-72.832031 162.355468-162.355469.003907-89.527343-72.832031-162.359375-162.355468-162.359375zm0 56.496094c58.371094 0 105.859375 47.488281 105.859375 105.859375s-47.488281 105.859375-105.859375 105.859375-105.859375-47.488281-105.859375-105.859375c0-21.632813 6.527343-41.769531 17.710937-58.546875 11.152344-8.578125 21.160156-18.570312 29.753906-29.703125 16.75-11.121094 36.828126-17.609375 58.394532-17.609375zm-186.949219 65.9375c-81.257813 0-147.363281-66.105469-147.363281-147.359375 0-81.257813 66.105468-147.363281 147.363281-147.363281 81.253906 0 147.359375 66.105468 147.359375 147.363281 0 81.253906-66.105469 147.359375-147.359375 147.359375zm0 0"/><path d="m162.359375 41.5c-66.644531 0-120.859375 54.21875-120.859375 120.859375s54.214844 120.855469 120.859375 120.855469c35.144531 0 68.488281-15.265625 91.484375-41.882813 2.707031-3.136719 2.363281-7.871093-.769531-10.578125-3.132813-2.707031-7.867188-2.359375-10.578125.773438-20.144532 23.316406-49.351563 36.691406-80.136719 36.691406-58.371094 0-105.859375-47.488281-105.859375-105.859375s47.488281-105.859375 105.859375-105.859375 105.859375 47.488281 105.859375 105.859375c0 14.636719-2.929688 28.808594-8.710938 42.117187-1.648437 3.796876.09375 8.214844 3.894532 9.863282 3.800781 1.652344 8.214844-.09375 9.863281-3.890625 6.601563-15.203125 9.949219-31.382813 9.949219-48.089844 0-66.640625-54.214844-120.859375-120.855469-120.859375zm0 0"/><path d="m182.273438 103.4375c3.613281-5.492188 4.75-12.296875 3.121093-18.664062-1.632812-6.367188-5.898437-11.789063-11.703125-14.867188-6.664062-3.535156-14.667968-3.632812-21.414062-.265625l-.738282.367187c-5.980468 2.984376-10.40625 8.398438-12.140624 14.851563-1.738282 6.457031-.628907 13.359375 3.042968 18.945313l8.242188 12.523437c2.566406 3.898437 6.882812 6.226563 11.554687 6.226563 4.667969 0 8.984375-2.328126 11.550781-6.226563zm-12.527344-8.246094-7.507813 11.410156-7.265625-11.039062c-1.339844-2.035156-1.726562-4.449219-1.09375-6.800781.632813-2.355469 2.179688-4.246094 4.359375-5.335938l.734375-.367187c1.179688-.585938 2.46875-.878906 3.75-.878906 1.355469 0 2.710938.324218 3.941406.976562 2.113282 1.121094 3.605469 3.015625 4.199219 5.335938.59375 2.320312.195313 4.699218-1.117187 6.699218zm0 0"/><path d="m162.238281 202.160156c-4.667969 0-8.988281 2.328125-11.554687 6.226563l-8.242188 12.523437c-3.671875 5.585938-4.78125 12.488282-3.042968 18.945313 1.734374 6.453125 6.160156 11.867187 12.136718 14.847656l.742188.371094c3.285156 1.640625 6.867187 2.457031 10.445312 2.457031 3.777344 0 7.546875-.910156 10.96875-2.722656 5.804688-3.078125 10.070313-8.5 11.703125-14.867188 1.628907-6.367187.492188-13.171875-3.121093-18.664062l-8.484376-12.890625c-2.566406-3.898438-6.882812-6.226563-11.550781-6.226563zm8.628907 34.0625c-.597657 2.320313-2.089844 4.214844-4.203126 5.339844-2.390624 1.269531-5.265624 1.304688-7.683593.097656l-.742188-.371094c-2.179687-1.085937-3.726562-2.980468-4.359375-5.332031-.632812-2.351562-.246094-4.765625 1.09375-6.800781l7.265625-11.042969 7.507813 11.410157c1.3125 2 1.710937 4.378906 1.121094 6.699218zm0 0"/><path d="m106.871094 135.035156 14.683594 3.03125c.9375.191406 1.878906.285156 2.8125.285156 3.625 0 7.136718-1.425781 9.761718-4.050781 3.300782-3.300781 4.707032-8 3.765625-12.574219l-3.117187-15.113281c-1.328125-6.4375-5.332032-12.050781-10.988282-15.402343-5.65625-3.351563-12.507812-4.167969-18.789062-2.238282-7.210938 2.210938-12.941406 7.800782-15.332031 14.957032l-.257813.777343c-2.121094 6.339844-1.421875 13.296875 1.914063 19.089844 3.332031 5.792969 9 9.886719 15.546875 11.238281zm-3.238282-25.578125.257813-.78125c.859375-2.566406 2.917969-4.574219 5.507813-5.367187.820312-.253906 1.65625-.378906 2.484374-.378906 1.480469 0 2.941407.398437 4.261719 1.179687 2.058594 1.222656 3.460938 3.1875 3.945313 5.53125l2.757812 13.378906-12.945312-2.671875c-2.386719-.492187-4.367188-1.925781-5.582032-4.035156-1.214843-2.109375-1.460937-4.542969-.6875-6.855469zm0 0"/><path d="m189.679688 217.84375c1.351562 6.546875 5.449218 12.214844 11.238281 15.550781 3.589843 2.066407 7.625 3.117188 11.679687 3.117188 2.496094 0 4.996094-.398438 7.410156-1.203125l.78125-.261719c7.152344-2.390625 12.742188-8.117187 14.953126-15.328125 1.929687-6.285156 1.113281-13.132812-2.238282-18.789062-3.347656-5.65625-8.960937-9.660157-15.402344-10.988282l-15.113281-3.121094c-4.566406-.941406-9.273437.464844-12.574219 3.769532-3.300781 3.300781-4.707031 8-3.765624 12.570312zm25.394531-13.214844c2.34375.480469 4.308593 1.882813 5.527343 3.945313 1.222657 2.058593 1.507813 4.453125.804688 6.746093-.792969 2.585938-2.800781 4.644532-5.363281 5.5l-.785157.265626c-2.308593.769531-4.742187.523437-6.851562-.6875-2.113281-1.21875-3.542969-3.199219-4.035156-5.585938l-2.671875-12.945312zm0 0"/><path d="m69.90625 151.027344c-3.535156 6.660156-3.632812 14.664062-.269531 21.40625l.371093.742187c2.984376 5.980469 8.398438 10.40625 14.855469 12.144531 2 .539063 4.039063.800782 6.074219.800782 4.527344 0 9.011719-1.3125 12.867188-3.847656l12.523437-8.242188c3.898437-2.5625 6.226563-6.882812 6.226563-11.554688 0-4.667968-2.328126-8.988281-6.226563-11.550781l-12.894531-8.484375c-5.488282-3.613281-12.292969-4.75-18.660156-3.121094-6.367188 1.632813-11.785157 5.898438-14.867188 11.707032zm20.699219 2.554687c1.613281 0 3.191406.472657 4.589843 1.390625l11.40625 7.503906-11.039062 7.265626c-2.035156 1.339843-4.449219 1.726562-6.804688 1.09375-2.347656-.632813-4.242187-2.179688-5.328124-4.355469l-.371094-.742188c-1.210938-2.421875-1.171875-5.292969.097656-7.6875 1.121094-2.113281 3.015625-3.605469 5.335938-4.199219.703124-.179687 1.410156-.269531 2.113281-.269531zm0 0"/><path d="m254.707031 173.179688.367188-.742188c3.367187-6.746094 3.269531-14.75-.265625-21.414062-3.082032-5.804688-8.5-10.070313-14.867188-11.703126-6.367187-1.628906-13.167968-.492187-18.664062 3.121094l-12.890625 8.484375c-3.898438 2.5625-6.226563 6.882813-6.226563 11.550781 0 4.667969 2.328125 8.988282 6.226563 11.554688l12.527343 8.242188c3.851563 2.535156 8.335938 3.847656 12.863282 3.847656 2.035156 0 4.078125-.261719 6.074218-.800782 6.457032-1.738281 11.871094-6.164062 14.855469-12.140624zm-18.75-2.339844c-2.351562.632812-4.769531.242187-6.800781-1.097656l-11.042969-7.261719 11.410157-7.507813c2-1.316406 4.378906-1.714844 6.699218-1.121094 2.320313.59375 4.21875 2.085938 5.339844 4.203126 1.269531 2.390624 1.304688 5.265624.097656 7.683593l-.371094.742188c-1.089843 2.175781-2.984374 3.722656-5.332031 4.359375zm0 0"/><path d="m103.925781 235.046875.78125.261719c2.414063.804687 4.914063 1.203125 7.410157 1.203125 4.054687 0 8.089843-1.050781 11.675781-3.117188 5.792969-3.335937 9.890625-9.003906 11.242187-15.550781l3.03125-14.683594c.941406-4.570312-.46875-9.273437-3.765625-12.574218-3.304687-3.300782-8.003906-4.710938-12.574219-3.765626h-.003906l-15.109375 3.117188c-6.441406 1.328125-12.054687 5.335938-15.402343 10.992188-3.351563 5.65625-4.167969 12.503906-2.238282 18.789062 2.207032 7.207031 7.800782 12.9375 14.953125 15.328125zm.1875-26.472656c1.21875-2.0625 3.183594-3.464844 5.527344-3.945313l13.375-2.761718-2.667969 12.945312c-.492187 2.382812-1.925781 4.367188-4.035156 5.582031-2.109375 1.214844-4.542969 1.460938-6.855469.6875l-.78125-.261719c-2.566406-.855468-4.574219-2.914062-5.367187-5.5-.703125-2.289062-.417969-4.6875.804687-6.746093zm0 0"/><path d="m203.160156 138.066406 14.683594-3.03125c6.546875-1.347656 12.214844-5.445312 15.546875-11.238281 3.335937-5.792969 4.035156-12.75 1.917969-19.085937l-.261719-.785157c-2.386719-7.152343-8.121094-12.742187-15.328125-14.953125-6.28125-1.929687-13.132812-1.113281-18.789062 2.234375-5.65625 3.351563-9.660157 8.964844-10.988282 15.40625l-3.121094 15.113281c-.941406 4.570313.464844 9.269532 3.765626 12.574219 2.625 2.625 6.136718 4.050781 9.765624 4.050781.933594 0 1.871094-.09375 2.808594-.285156zm1.46875-28.425781c.480469-2.34375 1.882813-4.308594 3.945313-5.53125 1.320312-.78125 2.777343-1.179687 4.257812-1.179687.828125 0 1.664063.125 2.488281.378906 2.589844.792968 4.644532 2.800781 5.503907 5.367187l.261719.78125c.769531 2.308594.527343 4.742188-.6875 6.851563-1.21875 2.113281-3.199219 3.546875-5.582032 4.039062l-12.945312 2.667969zm0 0"/><path d="m196.28125 162.359375c0-18.707031-15.21875-33.925781-33.921875-33.925781-18.707031 0-33.925781 15.21875-33.925781 33.925781 0 18.703125 15.21875 33.921875 33.925781 33.921875 18.703125 0 33.921875-15.21875 33.921875-33.921875zm-33.921875 18.925781c-10.4375 0-18.929687-8.488281-18.929687-18.925781s8.492187-18.929687 18.929687-18.929687c10.433594 0 18.925781 8.492187 18.925781 18.929687 0 10.433594-8.492187 18.925781-18.925781 18.925781zm0 0"/></svg>