<svg height="512pt" viewBox="-58 0 512 512" width="512pt" xmlns="http://www.w3.org/2000/svg"><path d="m384.722656 191.789062c-8.550781-3.34375-16.34375-5.792968-23.367187-7.574218 1.535156-1.945313 3.023437-3.96875 4.445312-6.097656 2.667969-3.484376 16.148438-23.03125 19.296875-65.550782.660156-8.949218-5.773437-16.972656-14.652344-18.269531-23.652343-3.453125-40.957031-2.167969-52.300781-.046875.152344-4.433594.160157-9.167969-.019531-14.222656-.316406-8.824219-7.472656-15.984375-16.300781-16.296875-26.707031-.953125-44.644531 3.257812-55.035157 6.976562-.496093-5.390625-1.585937-11.035156-3.449218-16.9375l-.003906-.011719c-.933594-3.796874-6.964844-23.910156-34.433594-49.496093-6.101563-5.683594-15.664063-5.683594-21.765625 0-27.476563 25.589843-33.507813 45.722656-34.4375 49.5-1.875 5.949219-2.976563 11.636719-3.464844 17.066406-10.320313-3.742187-28.367187-8.0625-55.382813-7.101563-8.824218.3125-15.984374 7.472657-16.300781 16.300782-.179687 5.054687-.171875 9.789062-.019531 14.222656-11.347656-2.121094-28.648438-3.40625-52.300781.042969-8.878907 1.296875-15.3125 9.320312-14.652344 18.269531 3.148437 42.519531 16.628906 62.066406 19.339844 65.613281 1.40625 2.105469 2.882812 4.105469 4.402343 6.035157-7.019531 1.785156-14.816406 4.230468-23.367187 7.574218-8.382813 3.273438-12.851563 12.570313-10.183594 21.160156 12.71875 40.894532 30.335938 56.960938 33.738281 59.769532 0 0 .054688.046875.054688.046875 16.605469 15.589843 35.933594 23.460937 57.566406 23.460937 2.910156 0 5.863282-.144531 8.855469-.425781 6.503906-.621094 12.65625-1.894531 18.300781-3.488281v10.742187c-5.976562 2.929688-10.203125 8.640625-10.652344 15.355469-.914062 13.589844-2.433593 39.457031-2.46875 61.140625-.058593.367187-.082031.738281-.082031 1.113281.046875 21.835938 1.65625 48.167969 2.605469 61.925782.464844 6.675781 4.664062 12.355468 10.597656 15.285156v30.222656c0 13.179688 10.722656 23.90625 23.90625 23.90625h14.46875c6.421875 0 12.253906-2.550781 16.554688-6.683594 4.296875 4.132813 10.132812 6.683594 16.554687 6.683594h14.46875c6.339844 0 12.109375-2.488281 16.394531-6.53125 4.28125 4.042969 10.050782 6.53125 16.394532 6.53125h14.46875c13.179687 0 23.90625-10.726562 23.90625-23.90625v-30.28125c6.183594-2.875 10.585937-8.695312 11.027344-15.558594.796874-12.289062 1.828124-30.679687 2.199218-48.5.085938-4.148437-3.207031-7.578125-7.355468-7.664062-4.195313-.085938-7.578126 3.207031-7.667969 7.351562-.363281 17.546875-1.378907 35.699219-2.167969 47.839844-.121094 1.890625-2.253906 3.433594-4.753906 3.4375l-139.230469.253906c-.003906 0-.007813 0-.015625 0-2.496094 0-4.628906-1.535156-4.761719-3.425781-.929687-13.402344-2.484375-38.890625-2.570312-60.132813.054687-.355468.078125-.71875.078125-1.078124 0-21.402344 1.527344-47.355469 2.4375-60.925782.125-1.890625 2.265625-3.429687 4.765625-3.429687h139.230469c2.503906 0 4.640624 1.539062 4.765624 3.429687.328126 4.894532 1.445313 22.238282 2.054688 39.9375.140625 4.148438 3.59375 7.378906 7.765625 7.25 4.144531-.140625 7.390625-3.617187 7.246094-7.761718-.613281-17.929688-1.742188-35.476563-2.074219-40.429688-.460938-6.832031-4.832031-12.617188-10.972656-15.496094v-10.597656c5.640625 1.589844 11.792968 2.863281 18.289062 3.484375 2.992188.28125 5.945313.425781 8.855469.425781 21.628906 0 40.960937-7.871094 57.554687-23.449218l.0625-.058594c3.40625-2.808594 21.023438-18.875 33.738282-59.769532 2.671875-8.589843-1.800782-17.882812-10.179688-21.15625zm-76.121094-79.261718c.863282-.398438 20.296876-9.113282 59.675782-3.363282 1.113281.160157 1.921875 1.171876 1.839844 2.292969-2.941407 39.746094-15.703126 56.820313-16.226563 57.503907-.21875.285156-.421875.566406-.621094.867187-2.058593 3.078125-5.046875 6.996094-9.066406 11.023437-15.414063-2.066406-24.710937-.539062-27.304687.003907-.160157.023437-.316407.054687-.476563.082031-2.261719-9.214844-6.320313-20.851562-13.550781-34.609375-3.878906-7.382813-12.90625-10.546875-20.542969-7.195313-3.996094 1.75-7.683594 3.523438-11.101563 5.304688 10.578126-19.121094 27.15625-27.90625 36.410157-31.5.328125-.128906.644531-.261719.964843-.410156zm-47.222656 188.429687h-32.234375v-40.828125c3.027344 5.765625 6.042969 10.269532 8.113281 13.109375 2.398438 3.292969 5.949219 5.449219 9.808594 6.222657.660156.519531 1.363282 1 2.109375 1.425781 3.007813 1.71875 7.171875 3.898437 12.203125 6.070312zm-102.082031-61.332031c-1.464844 4.527344-3.492187 9.246094-6.199219 14.132812-2.367187-9.863281-6.757812-22.972656-14.871094-35.382812-10.996093-16.816406-25.855468-28.210938-44.308593-34.0625 1.988281-8.039062 5.613281-18.484375 12.1875-30.996094.167969-.316406.496093-.503906.839843-.503906.125 0 .253907.027344.375.082031 31.523438 13.808594 41.792969 28.984375 42.304688 29.765625.179688.277344.367188.539063.5625.804688.242188.320312.488281.664062.742188 1.015625-5.402344 22.394531-.070313 40.921875 8.367187 55.144531zm-10.6875 39.835938c3.859375-.773438 7.410156-2.929688 9.808594-6.222657 2.074219-2.84375 5.09375-7.347656 8.125-13.121093v40.839843h-32.234375v-14.003906c5.027344-2.171875 9.183594-4.347656 12.191406-6.066406.746094-.425781 1.449219-.902344 2.109375-1.425781zm65.511719 21.496093h-32.234375v-35.453125c2.691406 2.214844 5.070312 3.957032 6.878906 5.207032 2.714844 1.867187 5.894531 2.804687 9.074219 2.804687 3.179687 0 6.359375-.9375 9.074218-2.804687 1.882813-1.300782 4.378907-3.132813 7.207032-5.476563zm28.457031-47.195312c-2.707031-4.886719-4.734375-9.601563-6.203125-14.128907 8.441406-14.222656 13.777344-32.753906 8.371094-55.152343.253906-.351563.503906-.695313.742187-1.015625.199219-.265625.382813-.53125.5625-.808594.511719-.777344 10.78125-15.957031 42.304688-29.765625.457031-.199219.988281-.011719 1.21875.425781 6.570312 12.5 10.195312 22.949219 12.1875 30.988282-18.4375 5.839843-33.308594 17.242187-44.3125 34.070312-8.113281 12.410156-12.503907 25.523438-14.871094 35.386719zm1.519531-165.460938c.695313-.417969 16.410156-9.679687 50.304688-9.679687 2.21875 0 4.515625.039062 6.890625.121094.984375.035156 1.785156.835937 1.820312 1.820312.234375 6.636719.113281 12.644531-.238281 18.070312-.230469.101563-.441406.195313-.609375.269532 0 0-.0625.027344-.0625.027344-23.984375 9.316406-40.550781 26.054687-49.242187 49.757812-1.109376 3.023438-2.035157 6.039062-2.8125 9.011719-4.933594 3.792969-8.605469 7.253906-11.25 10.066406-4.4375-9.007813-13.128907-22.5625-29.808594-38.175781 7.242187-23.886719 24.667968-35.871094 34.121094-40.789063.300781-.15625.589843-.316406.886718-.5zm-77.066406-30.023437c.101562-.320313.1875-.636719.257812-.925782.183594-.746093 4.789063-18.535156 30.085938-42.09375.183594-.167968.414062-.253906.644531-.253906.234375 0 .464844.085938.644531.253906 25.308594 23.570313 29.902344 41.347657 30.085938 42.089844 0 .003906 0 .007813.003906.007813.074219.3125.160156.613281.257813.925781 1.425781 4.519531 2.992187 11.410156 2.890625 19.621094-15.964844 9.375-27.371094 22.375-34.0625 38.78125-6.636719-16.261719-17.917969-29.175782-33.691406-38.550782-.136719-8.3125 1.441406-15.292968 2.882812-19.855468zm-74.464844 22.285156c.035156-.984375.832032-1.785156 1.820313-1.820312 38.652343-1.359376 56.453125 9.113281 57.199219 9.566406.292968.175781.578124.335937.886718.496094 9.445313 4.914062 26.875 16.898437 34.117188 40.78125-2.75 2.574218-5.394532 5.195312-7.855469 7.792968-2.851563 3.015625-2.722656 7.769532.289063 10.621094 3.011718 2.851562 7.765624 2.722656 10.621093-.292969 2.355469-2.488281 4.894531-5.003906 7.550781-7.476562.359376-.332031.921876-.335938 1.285157 0 25.296875 23.5625 29.902343 41.351562 30.085937 42.09375.078125.316406.164063.617187.261719.933593 4.214844 13.355469 9.679687 47.410157-30.445313 75.082032-.332031.226562-.757812.226562-1.089843 0-40.128907-27.671875-34.660157-61.726563-30.445313-75.085938.097656-.308594.179688-.609375.257813-.925781.085937-.34375.902343-3.503906 3.550781-8.703125 1.882812-3.699219.410156-8.222656-3.285156-10.101562-3.695313-1.882813-8.21875-.414063-10.105469 3.285156-.164063.328125-.324219.644531-.480469.960937-2.644531-2.816406-6.324218-6.28125-11.269531-10.082031-.769531-2.96875-1.691406-5.984375-2.800781-9.003906-8.6875-23.703125-25.257813-40.441406-49.246094-49.757813l-.054688-.023437-.003906-.003906c-.167968-.078126-.378906-.171876-.609375-.269532-.351562-5.417968-.472656-11.429687-.234375-18.066406zm-67.007812 30.894531c-.082032-1.121093.726562-2.132812 1.84375-2.292969 9.714844-1.417968 18.210937-1.957031 25.519531-1.957031 22.316406 0 33.503906 5.019531 34.15625 5.320313.320313.148437.636719.285156.960937.410156 18.394532 7.140625 29.628907 18.847656 36.402344 31.492188-3.417968-1.777344-7.101562-3.550782-11.09375-5.300782-7.640625-3.34375-16.664062-.183594-20.542968 7.199219-7.226563 13.753906-11.289063 25.394531-13.550782 34.609375-.183594-.027344-.363281-.066406-.546875-.09375-2.550781-.535156-11.832031-2.0625-27.234375.003906-4.023437-4.023437-7.007812-7.941406-9.066406-11.023437-.199219-.296875-.402344-.578125-.605469-.839844-.539062-.707031-13.296875-17.78125-16.242187-57.527344zm19.28125 150.347657c-.253906-.238282-.503906-.460938-.773438-.679688-.707031-.585938-17.0625-14.417969-28.945312-52.636719-.34375-1.097656.226562-2.289062 1.300781-2.707031 37.308594-14.582031 58.316406-10.421875 59.195313-10.234375.339843.070313.671874.128906 1.023437.179687 16.167969 2.328126 54.730469 13.785157 63.503906 69.84375.148438.917969-.28125 1.808594-1.089843 2.269532-49.273438 28.128906-82.296876 5.15625-94.214844-6.035156zm112.820312 235.171874h-14.46875c-4.898437 0-8.882812-3.984374-8.882812-8.882812v-28.109375l32.234375-.058594v28.167969c0 4.898438-3.984375 8.882812-8.882813 8.882812zm47.578125 0h-14.46875c-4.898437 0-8.882812-3.984374-8.882812-8.882812v-28.195312l32.234375-.058594v28.253906c0 4.898438-3.984375 8.882812-8.882813 8.882812zm47.257813 0h-14.46875c-4.898438 0-8.882813-3.984374-8.882813-8.882812v-28.28125l32.234375-.058594v28.339844c0 4.898438-3.984375 8.882812-8.882812 8.882812zm128.0625-288.492187c-11.886719 38.222656-28.238282 52.054687-28.949219 52.636719-.265625.222656-.519531.445312-.78125.691406-11.910156 11.179688-44.925781 34.15625-94.203125 6.027344-.808594-.460938-1.238281-1.355469-1.09375-2.273438 4.824219-30.816406 22.347656-58.535156 53.359375-67.625 6.6875-1.960937 13.347656-3.082031 20.308594-3.082031 9.621093 0 26.625 1.761719 50.058593 10.921875 1.070313.417969 1.640626 1.605469 1.300782 2.703125zm0 0"/></svg>