<svg height="511pt" viewBox="-15 0 511 511.99779" width="511pt" xmlns="http://www.w3.org/2000/svg"><path d="m432.394531 256.058594c17.546875 19.351562 29.132813 44.160156 32.632813 69.859375.558594 4.113281 4.34375 6.988281 8.464844 6.433593 4.113281-.558593 6.992187-4.347656 6.433593-8.464843-3.902343-28.675781-16.828125-56.351563-36.390625-77.929688-2.136718-2.359375-4.339844-4.675781-6.546875-6.882812-4.675781-4.683594-9.75-9.019531-15.203125-13.003907-2.527344 4.792969-7.535156 8.003907-12.988281 9.277344 6.425781 4.292969 12.285156 9.074219 17.550781 14.351563 2.035156 2.039062 4.070313 4.175781 6.046875 6.359375zm0 0"/><path d="m72.285156 270.019531c5.214844 2.082031 10.671875 3.125 16.125 3.125 5.800782 0 11.597656-1.179687 17.089844-3.53125 10.652344-4.570312 18.890625-13.011719 23.195312-23.773437 4.304688-10.765625 4.160157-22.558594-.40625-33.214844-4.566406-10.652344-13.011718-18.890625-23.773437-23.195312-10.761719-4.304688-22.558594-4.160157-33.210937.40625-21.996094 9.429687-32.21875 34.992187-22.792969 56.984374 4.570312 10.652344 13.011719 18.890626 23.773437 23.199219zm4.941406-66.363281c3.589844-1.539062 7.378907-2.308594 11.171876-2.308594 3.5625 0 7.128906.679688 10.535156 2.042969 7.035156 2.8125 12.550781 8.195313 15.535156 15.15625 6.164062 14.375-.519531 31.082031-14.894531 37.242187-6.960938 2.988282-14.667969 3.082032-21.703125.269532-7.035156-2.816406-12.550782-8.199219-15.535156-15.160156-6.164063-14.375.519531-31.082032 14.890624-37.242188zm0 0"/><path d="m464.128906 445.683594h-44.253906c22.363281-13.636719 39.03125-31.308594 49.617188-52.65625 4.890624-9.863282 8.289062-20.546875 10.105468-31.757813.664063-4.097656-2.121094-7.957031-6.222656-8.621093-4.09375-.660157-7.957031 2.121093-8.621094 6.222656-1.574218 9.71875-4.507812 18.964844-8.730468 27.476562-10.621094 21.417969-28.386719 38.738282-52.796876 51.480469-5.460937 2.851563-11.261718 5.464844-17.371093 7.855469h-295.261719c-3.957031-1.960938-7.777344-4.066406-11.4375-6.351563-20.910156-13.054687-35.9375-34.371093-41.234375-58.484375-2.734375-12.441406-2.792969-25.398437-.171875-37.464844 1.875-8.621093 5.082031-17.277343 9.53125-25.722656 1.238281-2.351562 2.578125-4.675781 3.992188-6.984375 3.796874 3.496094 8.230468 6.316407 13.167968 8.289063 5.160156 2.066406 10.558594 3.097656 15.953125 3.097656 5.742188 0 11.476563-1.167969 16.914063-3.5 9.03125-3.871094 16.375-10.675781 20.9375-19.210938 9.328125 2.582032 19.320312 1.953126 28.351562-1.914062 13.558594-5.8125 22.589844-17.816406 25.226563-31.304688 10.875 2.320313 22.476562 3.996094 34.890625 5.015626l4.449218.367187c21.792969 1.800781 47.046876 3.886719 73.09375 3.886719 13.964844 0 28.164063-.601563 42.171876-2.167969 48.832031-5.460937 82.640624-21.300781 103.359374-48.421875 13.0625-17.097656 18.101563-37.253906 14.570313-58.292969-2.449219-14.582031-8.890625-28.457031-18.464844-40.367187 3.707031-5.316406 6.503907-11.378906 8.238281-18.019532 5.320313-20.347656 2.152344-39.011718-9.410156-55.476562-21.417968-30.503906-69.441406-47.652344-107.53125-51.113281-15.96875-1.4531252-33.027344-2.640625-50.53125.125-28.613281 4.523437-57.519531 26.484375-67.242187 51.082031-2.726563 6.902344-3.945313 13.785156-3.722657 20.546875-12.070312 2.425781-23.660156 5.621094-34.597656 9.597656-31.839844 11.582031-62.820312 34.175781-76.808594 63.359375-9.824218-3.476562-20.929687-3.421875-31.238281.996094-19.417969 8.324219-29.566406 29.359375-24.902343 49.261719-.542969.207031-1.085938.425781-1.621094.65625-21.765625 9.328125-31.886719 34.628906-22.554688 56.394531 5.976563 13.941406 18.824219 23.519531 33.460938 25.601562.003906 5.753907 1.171875 11.460938 3.480468 16.84375.25.582032.515626 1.160157.789063 1.726563-2.839844 4.238281-5.417969 8.535156-7.726563 12.914063-5.082031 9.648437-8.757812 19.585937-10.921874 29.539062-3.078126 14.167969-3.015626 29.34375.179687 43.882812 5.355469 24.390626 19.285156 46.324219 38.828125 61.613282h-24.269531c-9.558594 0-17.335938 7.773437-17.335938 17.335937v14.476563c0 19.023437 15.476563 34.5 34.5 34.5h392.007813c19.023437 0 34.503906-15.476563 34.503906-34.5v-14.476563c0-9.558593-7.777344-17.335937-17.339844-17.335937zm-250.726562-387.40625c8.699218-22.011719 35.101562-38.515625 55.605468-41.753906 15.800782-2.5 31.792969-1.375 46.824219-.007813 47.808594 4.347656 83.582031 26.261719 96.589844 44.78125 8.902344 12.679687 11.3125 27.160156 7.164063 43.035156-2.925782 11.199219-9.90625 20.125-19.652344 25.125-10.554688 5.410157-23.53125 5.855469-35.601563 1.214844-5.195312-2-10.410156-4.40625-15.453125-6.738281-11.628906-5.371094-23.65625-10.925782-37.5625-12.691406-5.796875-.738282-11.984375-.929688-18.472656-.929688-3.386719 0-6.863281.054688-10.398438.105469-18.269531.273437-37.164062.554687-51.074218-6.355469-4.992188-2.480469-8.996094-5.710938-12.234375-9.875-8.769531-11.269531-10.699219-23.351562-5.734375-35.910156zm-195.609375 189.363281c-2.9375-6.855469-3.027344-14.441406-.261719-21.363281 2.769531-6.921875 8.066406-12.351563 14.917969-15.289063 2.113281-.90625 4.332031-1.546875 6.597656-1.910156 2.324219-.375 4.339844-1.816406 5.445313-3.898437 1.105468-2.082032 1.171874-4.558594.179687-6.695313l-.128906-.269531c-.074219-.164063-.152344-.328125-.226563-.492188-6.0625-14.144531.515625-30.585937 14.660156-36.648437 6.851563-2.9375 14.4375-3.03125 21.359376-.261719 6.921874 2.765625 12.351562 8.066406 15.289062 14.917969.070312.164062.132812.328125.199219.496093l.113281.289063c.863281 2.191406 2.703125 3.851563 4.96875 4.484375 2.269531.632812 4.703125.167969 6.578125-1.257812 1.828125-1.390626 3.820313-2.554688 5.933594-3.457032 3.898437-1.671875 8.003906-2.429687 12.210937-2.242187 4.132813.183593 7.660156-3.027344 7.84375-7.175781.183594-4.144532-3.027344-7.660157-7.175781-7.84375-6.484375-.289063-12.808594.871093-18.800781 3.441406-.539063.230468-1.070313.46875-1.597656.722656-2.378907-3.640625-5.261719-6.820312-8.507813-9.503906 3.058594-6.59375 7.300781-13.0625 12.769531-19.375 13.5625-15.664063 34.003906-29.25 56.078125-37.28125 10.21875-3.714844 21.054688-6.699219 32.355469-8.972656 1.941406 5.28125 4.828125 10.425781 8.675781 15.367187 4.589844 5.898437 10.449219 10.644531 17.410157 14.105469 17.175781 8.535156 38.859374 8.210937 57.988281 7.925781 9.765625-.144531 18.988281-.28125 26.753906.703125 11.601563 1.476562 22.070313 6.308594 33.148437 11.425781 5.265626 2.433594 10.710938 4.945313 16.363282 7.121094 7.277344 2.796875 14.832031 4.1875 22.257812 4.1875 8.972656 0 17.75-2.027344 25.605469-6.058594 3.105469-1.59375 6-3.476562 8.675781-5.601562 7.257813 9.527343 12.148438 20.410156 14.054688 31.78125 2.828125 16.824219-1.214844 32.964843-11.6875 46.671875-18.097656 23.691406-48.542969 37.628906-93.082032 42.609375-38.675781 4.324219-79.53125.949219-112.355468-1.761719l-4.457032-.371094c-12.914062-1.058594-24.855468-2.851562-35.929687-5.378906-.554687-3.28125-1.492187-6.546875-2.863281-9.742188-2.304688-5.378906-5.632813-10.164062-9.796875-14.132812 8.585937-12.035156 10.507812-27.945312 4.53125-41.890625-.824219-1.925781-1.796875-3.800781-2.882813-5.574219-2.171875-3.539062-6.796875-4.648437-10.339844-2.476562-3.539062 2.171875-4.648437 6.800781-2.476562 10.339844.707031 1.152343 1.339844 2.375 1.878906 3.632812 4.640625 10.828125 1.953125 23.480469-6.691406 31.480469-1.71875 1.59375-2.597656 3.894531-2.375 6.226562.21875 2.332031 1.511719 4.425781 3.5 5.667969 4.835938 3.023438 8.582031 7.398438 10.835938 12.648438 6.0625 14.148437-.515626 30.589843-14.660157 36.652343-7.453125 3.195313-15.921875 2.984375-23.230469-.578125-1.964843-.957031-4.25-1.011718-6.257812-.152344-2.007812.863282-3.542969 2.554688-4.203125 4.636719-2.460937 7.75-8.144531 14.027344-15.597656 17.222657-14.148438 6.0625-30.589844-.511719-36.652344-14.65625-2.253906-5.253907-2.835937-10.984376-1.691406-16.570313.472656-2.296875-.152344-4.679687-1.691407-6.445313-1.535156-1.765624-3.820312-2.71875-6.144531-2.570312-11.75.734375-22.773437-6.035156-27.414062-16.859375zm448.640625 229.855469c0 10.734375-8.734375 19.46875-19.46875 19.46875h-392.007813c-10.730469 0-19.464843-8.734375-19.464843-19.46875v-14.472656c0-1.269532 1.03125-2.300782 2.300781-2.300782h426.335937c1.269532 0 2.300782 1.03125 2.300782 2.300782v14.472656zm0 0"/></svg>