<svg height="511pt" viewBox="1 -87 511.999 511" width="511pt" xmlns="http://www.w3.org/2000/svg"><path d="m225.445312 166.132812h-9.753906l-24.90625-19.214843c-9.992187-7.707031-16.351562-18.289063-17.90625-29.789063-.554687-4.117187-4.335937-6.996094-8.457031-6.445312-4.113281.558594-7 4.34375-6.445313 8.457031 2.089844 15.449219 10.480469 29.539063 23.621094 39.683594l9.476563 7.308593h-135.390625l9.472656-7.3125c13.144531-10.140624 21.535156-24.230468 23.621094-39.679687l11.664062-86.269531c.464844-3.429688 2.007813-6.710938 4.464844-9.488282 4.414062-4.984374 11.148438-7.84375 18.472656-7.84375 7.324219 0 14.058594 2.859376 18.472656 7.84375 2.457032 2.777344 4 6.058594 4.464844 9.488282l7.109375 52.589844c.558594 4.113281 4.339844 7.003906 8.460938 6.441406 4.113281-.554688 7-4.34375 6.441406-8.457032l-7.109375-52.589843c-.867188-6.394531-3.667969-12.425781-8.109375-17.441407-7.265625-8.207031-18.101563-12.914062-29.730469-12.914062s-22.464844 4.707031-29.730468 12.914062c-4.441407 5.015626-7.246094 11.046876-8.109376 17.4375l-11.660156 86.273438c-1.558594 11.503906-7.914062 22.082031-17.90625 29.789062l-24.910156 19.214844h-9.75c-11.753906.003906-21.3125 9.5625-21.3125 21.316406v62.980469c0 10.027344 6.972656 18.4375 16.316406 20.695313 5.90625 11.300781 25.890625 43.6875 67.195313 58.722656 12.855469 4.675781 26.359375 7.015625 39.867187 7.015625 13.503906 0 27.011719-2.339844 39.863282-7.015625 41.308593-15.035156 61.289062-47.421875 67.199218-58.722656 9.34375-2.257813 16.316406-10.667969 16.316406-20.695313v-62.980469c0-11.753906-9.5625-21.3125-21.3125-21.3125zm-210.410156 21.3125c0-3.460937 2.816406-6.277343 6.277344-6.277343h204.132812c3.460938 0 6.273438 2.816406 6.273438 6.277343v62.980469c0 3.457031-2.8125 6.273438-6.273438 6.273438h-204.132812c-3.460938 0-6.277344-2.8125-6.277344-6.273438zm143.066406 128.265626c-22.390624 8.148437-47.054687 8.148437-69.445312 0-29-10.550782-46.246094-31.355469-54.484375-43.976563h178.414063c-8.246094 12.628906-25.492188 33.425781-54.484376 43.976563zm0 0"/><path d="m490.6875 166.132812h-9.75l-24.910156-19.214843c-9.992188-7.707031-16.347656-18.289063-17.90625-29.789063l-11.660156-86.273437c-.863282-6.394531-3.667969-12.425781-8.109376-17.4375-7.265624-8.207031-18.101562-12.917969-29.730468-12.917969s-22.464844 4.710938-29.730469 12.917969c-4.441406 5.015625-7.242187 11.042969-8.109375 17.4375l-11.660156 86.273437c-1.554688 11.5-7.914063 22.082032-17.90625 29.789063l-24.90625 19.214843h-9.753906c-11.75 0-21.3125 9.558594-21.3125 21.3125v62.980469c0 10.027344 6.972656 18.441407 16.320312 20.695313 5.0625 9.664062 20.453125 34.777344 50.710938 51.28125 3.644531 1.988281 8.210937.644531 10.199218-3 1.988282-3.648438.644532-8.214844-3-10.203125-20.449218-11.148438-33.300781-27.074219-40.070312-37.460938h178.425781c-8.246094 12.625-25.492187 33.421875-54.484375 43.972657-16.824219 6.125-35.058594 7.679687-52.675781 4.515624l-1.199219-.226562c-4.082031-.769531-8.007812 1.917969-8.777344 6-.769531 4.078125 1.917969 8.011719 5.996094 8.78125l1.261719.234375c6.847656 1.230469 13.765625 1.84375 20.671875 1.84375 13.558594 0 27.070312-2.359375 39.863281-7.015625 41.308594-15.03125 61.289063-47.421875 67.199219-58.722656 9.34375-2.257813 16.316406-10.667969 16.316406-20.695313v-62.980469c0-11.753906-9.558594-21.3125-21.3125-21.3125zm-160.285156-7.308593c13.144531-10.140625 21.53125-24.234375 23.621094-39.683594l11.660156-86.269531c.464844-3.429688 2.007812-6.710938 4.464844-9.488282 4.414062-4.984374 11.148437-7.84375 18.472656-7.84375 7.324218 0 14.058594 2.859376 18.472656 7.84375 2.457031 2.777344 4 6.058594 4.464844 9.488282l11.664062 86.273437c2.085938 15.445313 10.476563 29.539063 23.621094 39.679688l9.472656 7.308593h-135.390625zm-43.847656 97.875c-3.460938 0-6.273438-2.816407-6.273438-6.273438v-62.984375c0-3.457031 2.8125-6.273437 6.273438-6.273437h204.132812c3.460938 0 6.277344 2.816406 6.277344 6.273437v62.984375c0 3.457031-2.816406 6.273438-6.277344 6.273438zm0 0"/></svg>