<svg height="512pt" viewBox="0 -18 512.00117 512" width="512pt" xmlns="http://www.w3.org/2000/svg"><path d="m368.480469 101.730469c28.046875 0 50.863281-22.816407 50.863281-50.863281 0-28.046876-22.816406-50.867188-50.863281-50.867188s-50.867188 22.820312-50.867188 50.867188c0 28.046874 22.820313 50.863281 50.867188 50.863281zm0-86.773438c19.796875 0 35.90625 16.109375 35.90625 35.90625 0 19.800781-16.109375 35.910157-35.90625 35.910157-19.800781 0-35.910157-16.109376-35.910157-35.910157 0-19.796875 16.109376-35.90625 35.910157-35.90625zm0 0"/><path d="m467.457031 134.277344c22.070313 0 40.027344-17.953125 40.027344-40.027344 0-22.070312-17.957031-40.027344-40.027344-40.027344-22.070312 0-40.023437 17.957032-40.023437 40.027344 0 22.074219 17.953125 40.027344 40.023437 40.027344zm0-65.097656c13.824219 0 25.070313 11.25 25.070313 25.070312 0 13.824219-11.246094 25.070312-25.070313 25.070312-13.820312 0-25.070312-11.246093-25.070312-25.070312 0-13.820312 11.25-25.070312 25.070312-25.070312zm0 0"/><path d="m405.699219 132.328125c-14.328125 0-34.644531 2.042969-57.199219 5.75-42.898438 7.046875-86.398438 7.046875-129.296875 0-22.554687-3.707031-42.871094-5.75-57.203125-5.75-21.367188 0-41.277344 6.835937-57.960938 18.578125-4.257812-2.160156-8.96875-3.589844-13.988281-4.109375-4.105469-.425781-7.78125 2.558594-8.210937 6.664063-.425782 4.109374 2.558594 7.785156 6.667968 8.210937 12.792969 1.332031 22.4375 12.050781 22.4375 24.9375 0 13.820313-11.246093 25.066406-25.070312 25.066406s-25.070312-11.246093-25.070312-25.066406c0-5.214844 1.582031-10.207031 4.578124-14.445313 2.382813-3.375 1.582032-8.042968-1.792968-10.425781-3.375-2.382812-8.039063-1.578125-10.421875 1.792969-4.789063 6.777344-7.320313 14.757812-7.320313 23.078125 0 11.960937 5.285156 22.710937 13.632813 30.050781-2.449219 9.628906-3.78125 19.753906-3.78125 30.210938v24.023437c-.488281.0625-.976563.132813-1.46875.214844-24.765625 4.066406-42.691407 26.859375-40.804688 51.890625.578125 7.683594 2.859375 14.902344 6.78125 21.453125 1.160157 1.9375.628907 4.566406-1.207031 5.984375-13.515625 10.457031-20.667969 27.480469-18.667969 44.429688 1.609375 13.652343 8.945313 26.066406 20.132813 34.066406 5.433594 3.886718 11.746094 6.675781 18.25 8.058594 2.285156.488281 4.375.597656 6.21875.699218 3.910156.207032 4 .367188 4.515625 1.253906 1.105469 1.898438 1.933593 4.0625 2.808593 6.355469 1.488282 3.886719 3.171876 8.289063 6.601563 12.503907 9.292969 11.410156 23.507813 18.039062 38.089844 18.039062 1.859375 0 3.730469-.109375 5.59375-.328125 13.996093-1.652344 26.605469-9.265625 34.59375-20.894531 1.054687-1.539063 3.140625-2.179688 5.1875-1.585938 6.574219 1.898438 13.371093 2.386719 20.207031 1.453125 23.363281-3.203125 40.957031-22.8125 42.179688-45.855469 4.703124-.648437 9.535156-1.371093 14.492187-2.1875 5.511719-.902343 13.058594-1.953124 19.699219-2.734374 4.101562-.480469 7.035156-4.199219 6.554687-8.300782-.484375-4.101562-4.199219-7.03125-8.304687-6.554687-6.847656.808593-14.65625 1.890625-20.375 2.832031-4.640625.761719-9.160156 1.441406-13.554688 2.054688-.433594-1.675782-.953125-3.328126-1.5625-4.949219-.6875-1.832031.078125-3.960938 1.867188-5.183594 13.152344-8.980469 20.953125-23.550781 21.335937-39.148437h156.828125c24.953125 0 45.253906-20.296876 45.253906-45.25v-53.898438c0-24.953125-20.300781-45.253906-45.253906-45.253906h-195.679687c-24.953125 0-45.253907 20.300781-45.253907 45.253906v3.550781c-4.964843-1.265625-10.199218-1.761719-15.550781-1.375-16.316406 1.1875-30.898437 10.378907-38.996093 24.582031-1.125 1.972657-3.511719 2.832032-5.554688 1.996094-3.230469-1.320312-6.582031-2.277344-9.996094-2.875v-24.324218c0-7.691407.8125-15.179688 2.335938-22.375 4.042968 1.378906 8.375 2.136718 12.882812 2.136718 22.070313 0 40.023438-17.953125 40.023438-40.023437 0-9.882813-3.5625-18.960938-9.519532-25.96875 13.433594-8.480469 29.011719-13.351563 45.621094-13.351563 13.542969 0 32.996094 1.96875 54.777344 5.546875 44.503906 7.316407 89.636719 7.316407 134.144531 0 21.78125-3.578125 41.230469-5.546875 54.773438-5.546875 50.367187 0 91.34375 44.671875 91.34375 99.582032v50.785156c0 54.910156-40.976563 99.582031-91.34375 99.582031-13.542969 0-32.996094-1.96875-54.773438-5.546875-26.175781-4.304688-52.871093-6.085938-79.332031-5.300781-4.128906.125-7.375 3.570312-7.25 7.699219.121094 4.128906 3.539062 7.378906 7.695312 7.253906 25.503907-.757813 51.230469.957031 76.460938 5.105468 22.554688 3.707032 42.871094 5.746094 57.199219 5.746094 58.617187 0 106.300781-51.382812 106.300781-114.539062v-50.785156c0-63.15625-47.6875-114.539063-106.300781-114.539063zm-249.984375 112.984375c0-16.703125 13.589844-30.296875 30.296875-30.296875h195.679687c16.707032 0 30.296875 13.59375 30.296875 30.296875v53.898438c0 16.707031-13.589843 30.296874-30.296875 30.296874h-158.789062c-3.625-12.394531-12.058594-23.019531-23.59375-29.292968-4.921875-2.675782-9.625-3.457032-13.773438-4.144532-2.300781-.382812-4.472656-.742187-6.480468-1.402343-.960938-.3125-1.578126-3.65625-2.023438-6.09375-.125-.664063-.242188-1.320313-.375-1.964844-2.636719-13.144531-10.429688-24.117187-20.941406-31.089844zm-80.714844 42.597656c8.96875 3.664063 19.371094.039063 24.199219-8.429687 5.628906-9.863281 15.757812-16.246094 27.09375-17.074219 16.996093-1.230469 32.347656 10.433594 35.699219 27.148438.113281.5625.21875 1.140624.328124 1.722656 1 5.433594 2.667969 14.523437 12.082032 17.605468 3.085937 1.011719 6.058594 1.503907 8.683594 1.941407 3.417968.570312 6.367187 1.058593 9.074218 2.53125 9.6875 5.265625 16.238282 14.9375 17.527344 25.875 1.484375 12.59375-4.105469 24.867187-14.59375 32.03125-7.496094 5.117187-10.554688 14.492187-7.433594 22.792969 1.1875 3.152343 1.894532 6.484374 2.109375 9.90625 1.109375 17.621093-11.746093 33.308593-29.265625 35.707031-4.75.652343-9.472656.316406-14.027344-1-8.246093-2.382813-16.957031.625-21.667968 7.484375-5.546875 8.074218-14.300782 13.363281-24.015625 14.511718-11.433594 1.34375-23.058594-3.367187-30.335938-12.304687-1.914062-2.351563-2.984375-5.152344-4.226562-8.398437-1.003907-2.621094-2.136719-5.589844-3.851563-8.535157-4.667968-8.027343-12.164062-8.429687-16.644531-8.671875-1.421875-.074218-2.761719-.144531-3.902344-.390625-4.511719-.957031-8.890625-2.894531-12.667969-5.59375-7.765624-5.554687-12.859374-14.175781-13.976562-23.652343-1.410156-11.945313 3.4375-23.476563 12.964844-30.847657 7.851562-6.074219 9.957031-17.035156 4.894531-25.496093-2.71875-4.539063-4.300781-9.550782-4.703125-14.898438-1.308594-17.367188 11.128906-33.183594 28.3125-36.007812 1.855469-.304688 3.71875-.453126 5.570312-.453126 4.378907 0 8.71875.839844 12.773438 2.496094zm0 0"/></svg>