<svg height="512pt" viewBox="-129 0 512 512" width="512pt" xmlns="http://www.w3.org/2000/svg"><path d="m185.765625 145.558594v-30.511719c0-11.226563-9.128906-20.359375-20.355469-20.359375h-8.347656v-30.042969h16.335938c4.144531 0 7.503906-3.359375 7.503906-7.503906s-3.359375-7.503906-7.503906-7.503906h-80.96875c-9.546876 0-17.3125-7.765625-17.3125-17.3125s7.765624-17.3125 17.3125-17.3125h104.34375c4 0 7.761718 1.761719 10.320312 4.839843l21.628906 26c.773438.933594.597656 1.851563.316406 2.457032-.285156.605468-.878906 1.328125-2.089843 1.328125h-19.359375c-4.148438 0-7.503906 3.359375-7.503906 7.503906s3.359374 7.503906 7.503906 7.503906h19.359375c6.789062 0 12.796875-3.816406 15.679687-9.964843 2.882813-6.148438 1.976563-13.207032-2.367187-18.425782l-21.628907-26.003906c-5.417968-6.515625-13.382812-10.25-21.859374-10.25h-104.34375c-17.820313 0-32.320313 14.5-32.320313 32.324219 0 17.820312 14.5 32.320312 32.320313 32.320312h4.566406v30.042969h-8.347656c-11.222657 0-20.355469 9.132812-20.355469 20.359375v30.511719c-38.390625 4.46875-68.292969 37.171875-68.292969 76.746094v249.71875c0 22.042968 17.933594 39.976562 39.976562 39.976562h174.109376c22.042968 0 39.972656-17.933594 39.972656-39.976562v-249.71875c0-39.574219-29.898438-72.273438-68.292969-76.746094zm-73.757813-80.914063h30.042969v30.042969h-30.042969zm-28.703124 50.402344c0-2.949219 2.398437-5.347656 5.34375-5.347656h76.761718c2.949219 0 5.347656 2.398437 5.347656 5.347656v29.972656h-87.453124zm155.746093 356.976563c0 13.765624-11.199219 24.964843-24.964843 24.964843h-174.109376c-13.765624 0-24.964843-11.199219-24.964843-24.964843v-249.71875c0-34.339844 27.933593-62.273438 62.269531-62.273438h99.496094c34.335937 0 62.273437 27.933594 62.273437 62.273438zm0 0"/><path d="m164.691406 191.328125h-75.324218c-26.460938 0-47.988282 21.527344-47.988282 47.988281v42.371094c0 4.144531 3.359375 7.503906 7.507813 7.503906 4.144531 0 7.503906-3.359375 7.503906-7.503906v-42.371094c0-18.183594 14.792969-32.976562 32.976563-32.976562h75.324218c18.183594 0 32.976563 14.792968 32.976563 32.976562v201.234375c0 5.585938-4.542969 10.132813-10.132813 10.132813h-121.011718c-5.585938 0-10.132813-4.546875-10.132813-10.132813v-124.007812c0-4.144531-3.359375-7.503907-7.503906-7.503907s-7.503907 3.359376-7.503907 7.503907v124.007812c0 13.863281 11.277344 25.140625 25.140626 25.140625h121.015624c13.863282 0 25.140626-11.277344 25.140626-25.140625v-201.234375c0-26.460937-21.527344-47.988281-47.988282-47.988281zm0 0"/></svg>