<svg height="512pt" viewBox="-15 0 512 512" width="512pt" xmlns="http://www.w3.org/2000/svg"><path d="m409.039062 363.132812c-8.613281-2.894531-17.765624-5.542968-27.378906-7.925781-24.164062-22.054687-83.625-33.746093-140.34375-33.746093-56.722656 0-116.183594 11.695312-140.347656 33.75-9.609375 2.386718-18.761719 5.027343-27.371094 7.921874-47.460937 15.960938-73.597656 38.238282-73.597656 62.722657s26.136719 46.761719 73.597656 62.722656c44.910156 15.105469 104.476563 23.421875 167.71875 23.421875 63.246094 0 122.8125-8.316406 167.722656-23.421875 47.457032-15.964844 73.597657-38.238281 73.597657-62.722656s-26.136719-46.761719-73.597657-62.722657zm-4.789062 111.203126c-43.410156 14.597656-101.273438 22.640624-162.933594 22.640624-61.65625 0-119.519531-8.042968-162.929687-22.640624-40.269531-13.542969-63.363281-31.214844-63.363281-48.480469s23.09375-34.9375 63.363281-48.480469c3.773437-1.269531 7.679687-2.480469 11.667969-3.648438-.183594 1.210938-.285157 2.4375-.285157 3.6875 0 36.34375 78.082031 55.953126 151.546875 55.953126 14.460938 0 28.75-.707032 42.46875-2.101563 4.128906-.417969 7.132813-4.105469 6.714844-8.230469-.417969-4.128906-4.09375-7.136718-8.234375-6.714844-13.21875 1.339844-26.996094 2.023438-40.949219 2.023438-37.675781 0-73-4.902344-99.449218-13.796875-22.867188-7.691406-37.070313-18.085937-37.070313-27.132813 0-9.046874 14.203125-19.441406 37.070313-27.132812 26.449218-8.894531 61.769531-13.792969 99.449218-13.792969 37.679688 0 73 4.898438 99.453125 13.792969 22.867188 7.691406 37.070313 18.085938 37.070313 27.132812 0 5.519532-5.363282 11.726563-15.101563 17.472657-11.226562 6.628906-27.574219 12.296875-47.277343 16.398437-4.0625.84375-6.671876 4.820313-5.824219 8.882813.84375 4.0625 4.820312 6.667969 8.882812 5.824219 47.246094-9.828126 74.34375-27.535157 74.34375-48.578126 0-1.25-.101562-2.480468-.28125-3.691406 3.988281 1.167969 7.890625 2.382813 11.664063 3.652344 40.269531 13.542969 63.363281 31.214844 63.363281 48.480469s-23.09375 34.9375-63.359375 48.480469zm0 0"/><path d="m241.316406 284.53125c.628906.007812 1.246094.011719 1.871094.011719 33.660156 0 62.871094-10.582031 82.40625-29.902344 16.5-16.316406 25.207031-38.40625 25.183594-63.882813-.023438-24.144531-8.386719-49.769531-24.183594-74.109374-7.609375-11.726563-16.210938-22.761719-24.527344-33.433594-11.835937-15.191406-23.019531-29.535156-31.671875-45.78125-4.863281-9.128906-8.808593-17.539063-12.074219-25.742188l-.089843-.222656c-2.773438-6.96875-9.410157-11.46875-16.910157-11.46875-7.503906 0-14.140624 4.503906-16.9375 11.523438l-.082031.207031c-3.25 8.164062-7.195312 16.570312-12.058593 25.703125-.539063 1.011718-1.089844 2.019531-1.652344 3.023437-2.027344 3.617188-.734375 8.195313 2.886718 10.222657 3.621094 2.027343 8.199219.734374 10.222657-2.882813.613281-1.09375 1.214843-2.195313 1.804687-3.300781 5.128906-9.625 9.300782-18.527344 12.765625-27.226563l.09375-.238281c.695313-1.746094 2.152344-2.007812 2.957031-2.007812.804688 0 2.257813.261718 2.964844 2.039062l.089844.222656c3.457031 8.683594 7.632812 17.585938 12.757812 27.210938 9.265626 17.390625 21.375 32.929687 33.082032 47.953125 8.121094 10.417969 16.519531 21.195312 23.777344 32.378906 14.214843 21.902344 21.738281 44.703125 21.761718 65.941406.019532 21.671875-6.953125 39.566407-20.722656 53.1875-16.789062 16.601563-43.585938 25.914063-73.621094 25.550781-.0625 0-.121094 0-.183594 0-30.035156.371094-56.832031-8.949218-73.621093-25.550781-13.769531-13.621093-20.742188-31.515625-20.71875-53.1875.019531-21.238281 7.546875-44.039062 21.757812-65.941406 7.257813-11.179687 15.652344-21.953125 23.769531-32.371094 3.632813-4.65625 7.382813-9.472656 11-14.28125 2.496094-3.3125 1.832032-8.023437-1.484374-10.519531-3.3125-2.496094-8.023438-1.828125-10.519532 1.484375-3.542968 4.710937-7.253906 9.472656-10.84375 14.082031-8.316406 10.667969-16.914062 21.703125-24.523437 33.425782-15.796875 24.339843-24.160157 49.964843-24.183594 74.109374-.023437 25.472657 8.683594 47.566407 25.183594 63.882813 19.894531 19.675781 49.8125 30.292969 84.273437 29.890625zm0 0"/></svg>