<svg height="512pt" viewBox="-25 0 512 512.002" width="512pt" xmlns="http://www.w3.org/2000/svg"><path d="m126.316406 386.886719c0 6.039062-4.894531 10.933593-10.933594 10.933593-6.035156 0-10.929687-4.894531-10.929687-10.933593 0-6.035157 4.894531-10.929688 10.929687-10.929688 6.039063 0 10.933594 4.894531 10.933594 10.929688zm0 0"/><path d="m356.96875 386.886719c0 6.039062-4.894531 10.933593-10.929688 10.933593-6.039062 0-10.933593-4.894531-10.933593-10.933593 0-6.035157 4.894531-10.929688 10.933593-10.929688 6.035157 0 10.929688 4.894531 10.929688 10.929688zm0 0"/><path d="m98.167969 237.675781c0 6.039063-4.894531 10.933594-10.933594 10.933594-6.035156 0-10.929687-4.894531-10.929687-10.933594 0-6.035156 4.894531-10.929687 10.929687-10.929687 6.039063 0 10.933594 4.894531 10.933594 10.929687zm0 0"/><path d="m385.117188 237.675781c0 6.039063-4.894532 10.933594-10.929688 10.933594-6.039062 0-10.933594-4.894531-10.933594-10.933594 0-6.035156 4.894532-10.929687 10.933594-10.929687 6.035156 0 10.929688 4.894531 10.929688 10.929687zm0 0"/><path d="m444.09375 445.671875h-47.699219c.519531-1.78125.910157-3.625 1.132813-5.539063l2.175781-13.089843h1.96875c7.941406 0 14.398437-6.457031 14.398437-14.398438v-51.515625c0-3.742187-1.445312-7.144531-3.792968-9.707031l12.238281-73.589844h2.804687c7.9375 0 14.398438-6.457031 14.398438-14.398437v-51.515625c0-4.109375-1.738281-7.808594-4.507812-10.433594l4.242187-25.511719c.023437-.140625.042969-.28125.058594-.421875 1.039062-9.574219-1.886719-18.992187-8.03125-25.835937-5.382813-6-12.578125-9.304688-20.261719-9.304688h-134.292969v-28.300781c0-6.472656 1.6875-12.683594 4.886719-17.960937 5.851562-9.660157 8.949219-20.761719 8.949219-32.097657 0-8.976562-1.875-17.632812-5.578125-25.738281-1.71875-3.769531-6.164063-5.429688-9.933594-3.707031-3.765625 1.71875-5.425781 6.164062-3.707031 9.933593 2.800781 6.136719 4.222656 12.699219 4.222656 19.511719 0 8.597657-2.34375 17.011719-6.777344 24.324219-4.617187 7.625-7.058593 16.523438-7.058593 25.734375v28.300781h-66.4375v-28.300781c0-9.097656-2.496094-18.089844-7.21875-25.996094-4.671876-7.832031-6.949219-16.828125-6.578126-26.019531 1.003907-24.800781 22.035157-45.03125 46.886719-45.097656h.125c7.898438 0 15.699219 1.988281 22.574219 5.753906 3.632812 1.992188 8.1875.65625 10.175781-2.972656 1.988281-3.632813.660157-8.191406-2.972656-10.179688-9.074219-4.972656-19.367187-7.597656-29.777344-7.597656-.054687 0-.109375 0-.164062 0-15.96875.0429688-31.164063 6.222656-42.789063 17.402344-11.632812 11.1875-18.394531 26.132812-19.039062 42.085937-.488282 12.109375 2.515625 23.972657 8.6875 34.3125 3.335937 5.585938 5.097656 11.914063 5.097656 18.308594v28.300781h-134.296875c-7.683594 0-14.878906 3.304688-20.261719 9.304688-6.144531 6.847656-9.070312 16.265625-8.03125 25.835937.015625.140625.035156.28125.058594.421875l4.242188 25.511719c-2.769532 2.625-4.503907 6.328125-4.503907 10.433594v51.519531c0 7.9375 6.457031 14.398438 14.394531 14.398438h2.804688l12.238281 73.589843c-2.347656 2.5625-3.792969 5.960938-3.792969 9.703125v51.519532c0 7.9375 6.457032 14.394531 14.398438 14.394531h1.96875l2.175781 13.089843c.21875 1.910157.597657 3.761719 1.113281 5.542969h-47.679687c-9.554687 0-17.328125 7.769531-17.328125 17.324219v14.492188c0 19.027343 15.480469 34.511718 34.507812 34.511718h81.390626c4.140624 0 7.496093-3.359375 7.496093-7.5s-3.355469-7.496094-7.496093-7.496094h-81.390626c-10.757812 0-19.511718-8.753906-19.511718-19.515624v-14.492188c0-1.285156 1.046875-2.332031 2.332031-2.332031h426.765625c1.285156 0 2.332031 1.046875 2.332031 2.332031v14.492188c0 10.761718-8.753906 19.515624-19.511719 19.515624h-276.570312c-4.140625 0-7.5 3.355469-7.5 7.496094s3.359375 7.5 7.5 7.5h276.570312c19.027344 0 34.507813-15.484375 34.507813-34.511718v-14.492188c0-9.554688-7.773437-17.328125-17.328125-17.328125zm-46.238281-98.941406h-47.050781l8.242187-68.898438h50.265625zm-24.164063-191.328125h39.527344c3.367188 0 6.597656 1.539062 9.101562 4.324218 3.261719 3.636719 4.828126 8.734376 4.304688 14.011719l-3.957031 23.78125h-54.015625zm-83.6875 0h68.585938l-5.039063 42.117187h-66.054687zm-100.007812 0h84.050781l-2.507813 42.117187h-82.59375l-2.507812-42.117187zm-18.578125 0 2.507812 42.117187h-66.054687l-5.039063-42.117187zm-132.316407 4.324218c2.5-2.789062 5.734376-4.324218 9.101563-4.324218h39.527344l5.039062 42.117187h-54.019531l-3.953125-23.78125c-.523437-5.277343 1.039063-10.375 4.304687-14.011719zm-4.402343 103.113282v-50.324219h392.023437v50.324219zm309.246093 14.992187-8.242187 68.898438h-57.09375l4.105469-68.898438zm-77.1875 0-4.101562 68.898438h-64.824219l-4.101562-68.898438zm-83.945312 68.898438h-57.09375l-8.242188-68.898438h61.230469zm-130.707031-68.898438h50.269531l8.242188 68.898438h-47.054688zm8.238281 134.21875v-50.324219h340.730469v50.324219zm20.84375 33.621094c-1.257812-2.128906-2.113281-4.640625-2.410156-7.382813-.015625-.140624-.035156-.28125-.058594-.417968l-1.800781-10.828125h43.304687l2.230469 18.632812h-41.265625zm56.367188 0-2.226563-18.628906h52.265625l1.109375 18.628906zm119.207031 0h-53.035157l-1.113281-18.628906h55.257813zm67.105469 0h-51.148438l1.109375-18.628906h52.265625zm58.835937-7.800781c-.023437.136718-.042969.277344-.058594.417968-.296875 2.742188-1.152343 5.257813-2.410156 7.382813h-41.265625l2.226562-18.628906h43.308594zm0 0"/></svg>