<svg height="511pt" viewBox="-5 1 511 511.999" width="511pt" xmlns="http://www.w3.org/2000/svg"><path d="m500.539062 282.128906c-.003906-.082031-.011718-.160156-.015624-.238281-3.496094-36.425781-9.28125-70.425781-17.195313-101.054687-1.035156-4.003907-5.125-6.414063-9.125-5.378907-4.007813 1.035157-6.414063 5.121094-5.378906 9.125 7.710937 29.839844 13.351562 63.015625 16.773437 98.613281.128906 2.117188 1.945313 32.554688.515625 57.695313-.007812.148437-.148437.269531-.3125.269531h-73.125c-.171875 0-.308593-.132812-.3125-.300781-.417969-21.496094-1.851562-77.9375-6.191406-137.558594-4.695313-64.539062-11.269531-112.425781-19.585937-142.777343l10.574218 4.089843c16.121094 6.234375 29.65625 17.886719 38.117188 32.8125 8.675781 15.304688 16.566406 33.257813 23.453125 53.355469l.289062.839844c1.339844 3.914062 5.597657 6 9.511719 4.660156s6-5.601562 4.660156-9.511719l-.289062-.839843c-7.1875-20.976563-15.464844-39.78125-24.59375-55.890626-10.160156-17.925781-26.40625-31.917968-45.746094-39.394531l-17.058594-6.597656c0-.015625.003906-.03125.007813-.046875l-38.5625-14.914062-16.609375-9.03125c-.003906 0-.003906-.003907-.007813-.003907l-35.207031-19.140625c-.007812-.003906-.015625-.007812-.023438-.011718-.246093-.132813-.492187-.242188-.742187-.34375-.070313-.03125-.140625-.054688-.210937-.078126-.214844-.082031-.429688-.152343-.648438-.210937-.054688-.015625-.109375-.03125-.167969-.046875-.277343-.066406-.5625-.1210938-.847656-.1601562-.011719 0-.023437 0-.039063-.0039063-.269531-.03125-.539062-.046875-.808593-.046875-.03125 0-.058594-.0078125-.089844-.0078125h-77.171875c-.039062 0-.074219.0078125-.109375.0078125-.253906.0039063-.507813.0195313-.757813.046875-.035156.0039063-.070312.0039063-.101562.0117187-.285156.0351558-.566406.0898438-.847656.1601558-.054688.015626-.109375.03125-.164063.046876-.222656.0625-.441406.132812-.660156.214843-.066406.027344-.136719.050781-.203125.078125-.261719.109375-.519531.226563-.773438.367188l-34.699218 19.140625-8.210938 4.527343-40.917968 15.828126c-.738282.050781-1.472657.207031-2.183594.480468l-25.164063 9.734375c-19.339843 7.480469-35.585937 21.46875-45.746093 39.394531-18.5625 32.753907-42.6875 92.625-52.210938 191.847657-.007812.078125-.011719.160156-.019531.238281-.082031 1.328125-2.054688 32.792969-.527344 59.613281.457031 8.074219 7.164063 14.402344 15.265625 14.402344h69.574219l1.351562 111.21875c0 .042969 0 .085937.003907.125.726562 24.960937 18.449218 44.515625 40.347656 44.515625h247.960937c21.894531 0 39.621094-19.554688 40.347657-44.515625 0-.039063 0-.082031.003906-.125l1.351562-111.21875h68.511719c8.105469 0 14.808594-6.328125 15.269531-14.402344 1.527344-26.820312-.441406-58.285156-.527344-59.609375zm-104.222656 19.96875c-38.089844 9.300782-94.914062 14.460938-127.457031 16.8125-14.007813 1.007813-28.199219.972656-42.195313-.101562v-41.882813c0-.039062-.003906-.082031-.003906-.121093 34.84375 1.515624 70.773438-.828126 107.222656-7.074219l.746094-.128907c19.734375-3.355468 33.734375-6.070312 42-7.757812 7.023438-1.433594 12.914063-2.6875 17.839844-3.851562.804688 16.191406 1.40625 31.195312 1.847656 44.105468zm-27.519531-248.5c13.878906 39.875 21.128906 121.832032 24.867187 189.105469-11.699218 2.941406-32.132812 7.128906-61.550781 12.132813l-.757812.128906c-3.734375.640625-7.460938 1.222656-11.179688 1.777344-1.746093-39.859376-3.730469-70.269532-5.296875-77.71875-1.167968-5.5625-3.554687-10.726563-6.9375-15.160157 6.140625-3.929687 12.125-8.472656 18.136719-14.238281 8.964844-8.597656 16.570313-17.960938 22.617187-27.828125 10.1875-16.644531 20.886719-41.796875 13.972657-67.109375-.375-1.378906-.796875-2.679688-1.234375-3.941406zm-32.878906 60.375c-5.375 8.773438-12.171875 17.132813-20.210938 24.839844-6.324219 6.066406-12.636719 10.609375-19.378906 14.617188l-32.5625-23.921876c14.960937-17.226562 53.257813-65.765624 45.984375-103.59375l29.566406 16.074219c3.746094 3.875 23.699219 27.734375-3.398437 71.984375zm-118.3125-98.992187h70.707031c11.894531 13.792969 9.453125 35.621093-7.304688 64.949219-9.566406 16.746093-21.507812 31.539062-28.324218 39.453124-6.730469-7.875-18.476563-22.542968-27.9375-39.226562-16.695313-29.4375-19.082032-51.335938-7.140625-65.175781zm-53.703125 28.90625 10.292968-5.679688.882813-.339843c.003906-.050782.007813-.101563.007813-.152344l21.007812-11.585938c-8.660156 45.589844 48.242188 106.605469 51.125 109.660156.308594.328126.648438.628907 1.011719.894532l43.1875 31.726562c4.515625 3.320313 7.644531 8.183594 8.800781 13.695313 1.402344 6.683593 3.304688 36.875 5.003906 76.664062-15.164062 1.820313-30.199218 2.921875-45.070312 3.332031v-50.964843c0-13.515625-7.203125-26.019531-18.796875-32.640625-22.398438-12.785156-42.183594-30.496094-51.984375-39.917969-7.894532-7.59375-14.613282-15.871094-19.960938-24.605469-27.085937-44.234375-8.847656-66.574218-5.507812-70.085937zm-30.710938 10.179687 9.964844-3.851562c-5.328125 14.757812-6.722656 38.589844 13.480469 71.582031 6.015625 9.820313 13.539062 19.101563 22.355469 27.578125 10.296874 9.902344 31.132812 28.542969 54.9375 42.132812 6.9375 3.957032 11.246093 11.480469 11.246093 19.628907v51.148437c-7.820312-.03125-15.574219-.289062-23.28125-.71875-4.90625-7.148437-13.136719-11.847656-22.445312-11.847656h-19.472657c-5.761718 0-11.105468 1.804688-15.511718 4.871094-5.765625-1.070313-11.632813-2.25-17.664063-3.574219-14.867187-3.265625-27.144531-6.371094-38.242187-9.679687 3.746094-66.757813 10.953125-147.496094 24.632812-187.269532zm78.492188 222.863282v143.445312c0 6.742188-5.488282 12.230469-12.234375 12.230469h-19.472657c-6.742187 0-12.230468-5.488281-12.230468-12.230469v-143.445312c0-6.746094 5.488281-12.234376 12.230468-12.234376h19.472657c6.746093 0 12.234375 5.488282 12.234375 12.234376zm-57.363282-9.050782c-1.003906 2.835938-1.554687 5.878906-1.554687 9.050782v33.835937c-16.542969-2.421875-32.898437-5.363281-46.929687-8.898437.457031-13.199219 1.074218-28.570313 1.90625-45.15625 10.535156 3.039062 22.136718 5.921874 35.847656 8.933593 3.632812.796875 7.195312 1.53125 10.730468 2.234375zm-64.535156 72.980469c-.003906.167969-.140625.300781-.3125.300781h-73.125c-.164062 0-.304687-.121094-.3125-.269531-1.429687-25.117187.386719-55.578125.515625-57.695313 9.277344-96.523437 32.484375-154.296874 50.320313-185.769531 8.457031-14.921875 21.996094-26.574219 38.117187-32.808593l10.574219-4.089844c-8.316406 30.351562-14.890625 78.238281-19.585938 142.773437-4.339843 59.621094-5.777343 116.0625-6.191406 137.558594zm217.9375 156.160156h-47.570312v-80.359375c0-4.136718-3.351563-7.488281-7.488282-7.488281-4.136718 0-7.488281 3.351563-7.488281 7.488281v80.359375h-117.554687c-13.492188 0-24.863282-13.410156-25.371094-29.910156l-1.414062-116.09375c2.367187-2.640625 3.851562-6.085937 3.925781-9.867187.101562-5.246094.28125-13.5.589843-23.988282 14.449219 3.472656 30.914063 6.359375 47.414063 8.734375v94.480469c0 15.003906 12.207031 27.210938 27.210937 27.210938h19.472657c15.007812 0 27.214843-12.207032 27.214843-27.210938v-86.546875c6.144532.445313 12.324219.699219 18.511719.765625v47.449219c0 4.136719 3.351563 7.488281 7.488281 7.488281 4.136719 0 7.492188-3.351562 7.492188-7.488281v-47.65625c3.265625-.125 6.53125-.300781 9.785156-.535157 10.542969-.761718 23.605469-1.816406 37.78125-3.210937 1.753906 63.984375 2.375 131.789063 0 166.378906zm93.234375-29.910156c-.507812 16.5-11.878906 29.910156-25.375 29.910156h-52.847656c2.359375-35.828125 1.761719-103.832031-.007813-167.949219 25.179688-2.785156 52.167969-6.609374 74.078126-11.703124.300781 10.386718.480468 18.570312.582031 23.78125.085937 4.308593 1.996093 8.1875 4.96875 10.921874zm0 0"/></svg>