<svg height="512pt" viewBox="-28 0 512 512.00005" width="512pt" xmlns="http://www.w3.org/2000/svg"><path d="m410.28125 412.273438c41.6875-56.425782 45.863281-124.371094 46.503906-183.625.0625-5.652344.089844-11.820313.089844-19.410157 0-21.246093-17.285156-38.53125-38.53125-38.53125h-40.496094l17.292969-35.007812c1.667969-3.382813 4.582031-6.179688 8.199219-7.871094 11.046875-5.179687 20.425781-13.304687 27.128906-23.496094 9.863281-15 13.171875-32.988281 9.3125-50.652343-3.9375-18.023438-14.792969-33.382813-30.558594-43.246094-26.40625-16.515625-60.367187-13.15625-82.589844 8.175781-2.988281 2.867187-3.085937 7.617187-.214843 10.605469 2.871093 2.992187 7.617187 3.085937 10.605469.21875 16.980468-16.300782 44-18.941406 64.242187-6.277344 12.316406 7.703125 20.789063 19.679688 23.859375 33.726562 2.988281 13.683594.433594 27.609376-7.191406 39.203126-5.179688 7.875-12.425782 14.152343-20.960938 18.152343-6.683594 3.132813-12.113281 8.394531-15.285156 14.816407l-20.570312 41.652343h-60.546876l-62.613281-.457031 75.835938-85.664062c.03125-.039063.066406-.074219.097656-.113282 4.636719-5.453125 7.316406-12.53125 7.550781-19.925781.09375-2.964844.441406-5.929687 1.042969-8.816406.84375-4.054688-1.761719-8.027344-5.820313-8.871094-4.054687-.835937-8.027343 1.765625-8.871093 5.820313-.777344 3.730468-1.230469 7.5625-1.351563 11.398437-.125 3.988281-1.523437 7.757813-3.9375 10.621094l-84.988281 96.007812h-178.984375c-21.246094 0-38.53125 17.285157-38.53125 38.53125 0 73.871094 3.574219 145.003907 46.773438 203.277344 5.621093 7.585937 11.535156 14.394531 17.648437 20.328125h-1.996094c-25.648437 0-46.511719 20.867188-46.511719 46.515625v6.105469c0 14.632812 11.902344 26.535156 26.535157 26.535156h247.839843c4.144532 0 7.5-3.359375 7.5-7.5 0-4.144531-3.359374-7.503906-7.5-7.503906h-247.839843c-6.359375 0-11.53125-5.171875-11.53125-11.53125v-6.105469c0-17.375 14.136719-31.507813 31.507812-31.507813h332.023438c17.375 0 31.507812 14.132813 31.507812 31.507813v6.105469c0 6.359375-5.171875 11.53125-11.53125 11.53125h-88.960937c-4.140625 0-7.5 3.359375-7.5 7.503906 0 4.140625 3.359375 7.5 7.5 7.5h88.960937c14.632813 0 26.535157-11.902344 26.535157-26.535156v-6.105469c0-25.648437-20.863282-46.515625-46.511719-46.515625h-1.992188c6.175781-6 12.152344-12.890625 17.824219-20.570312zm-40.183594 20.570312h-283.324218c-2.636719 0-11.449219-10.117188-13.1875-11.824219-5.441407-5.339843-10.226563-11.320312-14.757813-17.4375-18.722656-25.257812-30.964844-55.371093-37.417969-92.066406-5.910156-33.59375-6.40625-68.945313-6.40625-102.277344 0-12.972656 10.554688-23.527343 23.527344-23.527343h379.816406c12.972656 0 23.523438 10.554687 23.523438 23.527343 0 7.53125-.027344 13.648438-.089844 19.246094-.613281 56.910156-4.539062 122.046875-43.566406 174.871094-7.796875 10.550781-17.332032 21.835937-28.117188 29.488281zm0 0"/><path d="m270.675781 259.105469c-.476562 0-.957031.007812-1.433593.023437-3.53125-19.316406-20.484376-34-40.804688-34s-37.269531 14.683594-40.800781 34c-.480469-.015625-.957031-.023437-1.433594-.023437-22.871094 0-41.476563 18.605469-41.476563 41.476562 0 14.5625 7.667969 27.882813 19.742188 35.328125-2.121094 5.042969-3.21875 10.472656-3.21875 16.039063 0 22.871093 18.605469 41.480469 41.476562 41.480469 9.410157 0 18.445313-3.195313 25.714844-8.945313 7.265625 5.75 16.300782 8.945313 25.710938 8.945313 22.871094 0 41.480468-18.605469 41.480468-41.480469 0-5.566407-1.101562-10.996094-3.222656-16.039063 12.074219-7.445312 19.742188-20.761718 19.742188-35.328125 0-22.871093-18.605469-41.476562-41.476563-41.476562zm8.875 66.417969c-2.199219.785156-3.910156 2.550781-4.625 4.773437-.714843 2.226563-.351562 4.65625.980469 6.578125 3.085938 4.441406 4.71875 9.65625 4.71875 15.074219 0 14.597656-11.875 26.476562-26.472656 26.476562-7.691406 0-14.996094-3.351562-20.039063-9.1875-1.421875-1.648437-3.496093-2.597656-5.675781-2.597656s-4.25.949219-5.675781 2.597656c-5.042969 5.835938-12.347657 9.1875-20.039063 9.1875-14.59375 0-26.472656-11.878906-26.472656-26.476562 0-5.417969 1.632812-10.632813 4.71875-15.074219 1.332031-1.917969 1.695312-4.351562.980469-6.578125-.714844-2.222656-2.425781-3.988281-4.625-4.773437-10.527344-3.746094-17.597657-13.769532-17.597657-24.941407 0-14.597656 11.875-26.472656 26.472657-26.472656 2.179687 0 4.355469.265625 6.464843.796875 2.28125.574219 4.699219.039062 6.527344-1.433594 1.832032-1.472656 2.867188-3.71875 2.796875-6.070312l-.011719-.292969c-.003906-.167969-.011718-.335937-.011718-.503906 0-14.597657 11.875-26.472657 26.472656-26.472657s26.472656 11.875 26.472656 26.472657c0 .15625-.007812.3125-.011718.464843l-.011719.34375c-.066407 2.347657.96875 4.589844 2.800781 6.0625 1.832031 1.472657 4.246094 2 6.523438 1.429688 2.109374-.527344 4.285156-.796875 6.464843-.796875 14.59375 0 26.472657 11.875 26.472657 26.472656 0 11.171875-7.074219 21.199219-17.597657 24.941407zm0 0"/><path d="m228.4375 269.558594c-23.109375 0-41.910156 18.796875-41.910156 41.90625s18.800781 41.910156 41.910156 41.910156 41.910156-18.800781 41.910156-41.910156-18.800781-41.90625-41.910156-41.90625zm0 68.8125c-14.835938 0-26.90625-12.070313-26.90625-26.90625 0-14.835938 12.070312-26.902344 26.90625-26.902344s26.90625 12.066406 26.90625 26.902344c0 14.835937-12.070312 26.90625-26.90625 26.90625zm0 0"/></svg>