<svg height="512pt" viewBox="-96 0 512 512.004" width="512pt" xmlns="http://www.w3.org/2000/svg"><path d="m320.847656 216.8125-7.203125-46.800781c-.550781-3.570313-1.070312-7.171875-1.59375-10.78125-3.101562-21.5-6.3125-43.726563-16.308593-64.007813-7.820313-15.875-19.914063-29.679687-34.964844-39.914062-8.570313-5.828125-18.648438-9.554688-32.683594-12.078125-2.5625-.460938-5.082031-.824219-7.519531-1.179688-16.765625-2.4375-21.019531-4.269531-21.019531-15.402343 0-2.164063-.042969-4.34375-.085938-6.527344-.085938-4.238282-.167969-8.246094.070312-12.164063.125-2.0625-.605468-4.089843-2.023437-5.597656-1.417969-1.503906-3.390625-2.359375-5.460937-2.359375h-63.105469c-2.066407 0-4.042969.855469-5.460938 2.359375-1.417969 1.507813-2.148437 3.535156-2.023437 5.597656.238281 3.917969.15625 7.925781.070312 12.164063-.042968 2.183594-.085937 4.363281-.085937 6.527344 0 11.132812-4.253907 12.964843-21.019531 15.402343-2.4375.351563-4.960938.71875-7.519532 1.179688-1.902344.34375-3.660156.691406-5.371094 1.066406-4.042968.886719-6.605468 4.886719-5.71875 8.929687.886719 4.046876 4.882813 6.605469 8.933594 5.722657 1.523438-.335938 3.097656-.648438 4.808594-.957031 2.3125-.414063 4.707031-.765626 7.023438-1.101563 14.289062-2.078125 33.859374-4.921875 33.859374-30.246094 0-2.0625.042969-4.140625.085938-6.21875.035156-1.789062.074219-3.601562.085938-5.429687h47.769531c.011719 1.832031.046875 3.640625.082031 5.429687.042969 2.078125.085938 4.15625.085938 6.21875 0 25.324219 19.570312 28.167969 33.863281 30.246094 2.3125.335937 4.707031.6875 7.019531 1.101563 11.859375 2.132812 20.160156 5.128906 26.90625 9.71875 12.910156 8.777343 23.265625 20.585937 29.945312 34.140624 8.941407 18.148438 11.976563 39.179688 14.914063 59.519532.53125 3.660156 1.054687 7.304687 1.613281 10.921875l6.875 44.667969h-41.585937l-13.828125-83.027344c-.667969-4.003906-4.101563-6.960938-8.160156-7.03125-4.074219-.089844-7.59375 2.769531-8.398438 6.75l-6.011719 29.792968c-1.132812 5.617188-2.460937 11.234376-3.75 16.671876-5.769531 24.410156-11.742187 49.652343.144531 76.828124 1.128907 2.578126 2.375 5.199219 3.699219 7.78125 1.332031 2.585938 3.957031 4.070313 6.675781 4.070313 1.15625 0 2.328126-.265625 3.425782-.832031 3.683594-1.894532 5.132812-6.414063 3.238281-10.097656-1.183594-2.308594-2.292969-4.640626-3.296875-6.933594-9.878906-22.585938-4.972656-43.339844.710938-67.367188.929687-3.925781 1.882812-7.949218 2.777343-12.039062l8.234375 49.441406c1.058594 6.371094 6.515625 10.992188 12.972656 10.992188h45.308594c3.84375 0 7.480469-1.671876 9.984375-4.589844 2.503907-2.914063 3.601563-6.761719 3.015625-10.558594zm0 0"/><path d="m259.09375 285.714844c-2.371094-3.398438-7.046875-4.230469-10.441406-1.859375-3.398438 2.371093-4.230469 7.046875-1.859375 10.441406 7.542969 10.808594 15.378906 22.816406 21.59375 37.390625 16.613281 38.996094 13.773437 87.117188-7.605469 128.726562l-18.078125 35.1875c-.441406.863282-1.320313 1.398438-2.292969 1.398438h-159.816406c-.96875 0-1.847656-.535156-2.292969-1.398438l-18.078125-35.1875c-9.511718-18.515624-15.054687-34.363281-17.445312-49.882812-3.824219-24.84375 1.519531-61.207031 12.429687-84.589844 6.386719-13.6875 15.011719-26.136718 24.800781-39.828125 7.167969-10.023437 12.691407-19.5625 16.894532-29.167969 11.882812-27.175781 5.914062-52.417968.140625-76.828124-1.285157-5.4375-2.613281-11.054688-3.75-16.671876l-6.011719-29.792968c-.804688-3.980469-4.328125-6.835938-8.394531-6.75-4.0625.070312-7.492188 3.027344-8.160157 7.035156l-13.832031 83.027344h-41.585937l6.878906-44.667969c.554688-3.621094 1.082031-7.265625 1.609375-10.925781 2.9375-20.335938 5.976563-41.371094 14.917969-59.519532 5.640625-11.445312 13.652344-21.402343 23.8125-29.597656 3.226562-2.597656 3.730468-7.320312 1.132812-10.542968-2.601562-3.222657-7.320312-3.730469-10.546875-1.132813-11.871093 9.574219-21.242187 21.230469-27.851562 34.648437-9.992188 20.277344-13.203125 42.507813-16.308594 64.003907-.523437 3.609375-1.042969 7.210937-1.59375 10.785156l-7.203125 46.796875c-.585938 3.796875.511719 7.648438 3.015625 10.5625 2.5 2.917969 6.136719 4.589844 9.980469 4.589844h45.3125c6.457031 0 11.910156-4.625 12.96875-10.988282l8.234375-49.445312c.898437 4.089844 1.847656 8.113281 2.777343 12.039062 5.683594 24.03125 10.589844 44.78125.710938 67.367188-3.773438 8.636719-8.796875 17.292969-15.347656 26.453125-10.230469 14.3125-19.265625 27.363281-26.195313 42.210937-12.203125 26.15625-17.949219 65.355469-13.660156 93.214844 2.644531 17.160156 8.660156 34.464844 18.929687 54.453125l18.078126 35.191407c3.023437 5.886718 9.015624 9.542968 15.632812 9.542968h159.816406c6.617188 0 12.609375-3.65625 15.632813-9.542968l18.082031-35.191407c23.390625-45.527343 26.402344-98.40625 8.058594-141.457031-6.746094-15.835938-15.085938-28.628906-23.089844-40.097656zm0 0"/><path d="m160.421875 136.980469c19.023437 0 34.503906-13.183594 34.503906-29.390625 0-16.203125-15.476562-29.386719-34.503906-29.386719s-34.503906 13.183594-34.503906 29.386719c0 16.207031 15.480469 29.390625 34.503906 29.390625zm0-43.78125c10.574219 0 19.503906 6.589843 19.503906 14.390625 0 7.800781-8.929687 14.390625-19.503906 14.390625-10.570313 0-19.503906-6.589844-19.503906-14.390625 0-7.800782 8.933593-14.390625 19.503906-14.390625zm0 0"/><path d="m160.421875 217.914062c19.023437 0 34.503906-13.183593 34.503906-29.390624 0-16.207032-15.476562-29.390626-34.503906-29.390626s-34.503906 13.183594-34.503906 29.390626c0 16.207031 15.480469 29.390624 34.503906 29.390624zm0-43.78125c10.574219 0 19.503906 6.589844 19.503906 14.390626 0 7.800781-8.929687 14.390624-19.503906 14.390624-10.570313 0-19.503906-6.589843-19.503906-14.390624 0-7.800782 8.933593-14.390626 19.503906-14.390626zm0 0"/><path d="m160.421875 298.84375c19.023437 0 34.503906-13.183594 34.503906-29.390625 0-16.203125-15.476562-29.386719-34.503906-29.386719s-34.503906 13.183594-34.503906 29.386719c0 16.207031 15.480469 29.390625 34.503906 29.390625zm0-43.777344c10.574219 0 19.503906 6.585938 19.503906 14.386719s-8.929687 14.390625-19.503906 14.390625c-10.570313 0-19.503906-6.589844-19.503906-14.390625s8.933593-14.386719 19.503906-14.386719zm0 0"/></svg>