<svg height="512pt" viewBox="-76 0 511 512" width="512pt" xmlns="http://www.w3.org/2000/svg"><path d="m332.964844 0h-306.878906c-14.109376 0-25.585938 11.480469-25.585938 25.585938v348.660156c0 4.144531 3.359375 7.507812 7.503906 7.507812 4.148438 0 7.507813-3.363281 7.507813-7.507812v-348.660156c0-5.832032 4.742187-10.574219 10.574219-10.574219h306.878906c5.832031 0 10.578125 4.742187 10.578125 10.574219v460.828124c0 5.832032-4.746094 10.574219-10.578125 10.574219h-306.878906c-5.832032 0-10.574219-4.742187-10.574219-10.574219v-77.308593c0-4.144531-3.359375-7.503907-7.507813-7.503907-4.144531 0-7.503906 3.359376-7.503906 7.503907v77.308593c0 14.109376 11.480469 25.585938 25.585938 25.585938h306.878906c14.109375 0 25.585937-11.480469 25.585937-25.585938v-460.828124c0-14.105469-11.476562-25.585938-25.585937-25.585938zm0 0"/><path d="m176.15625 33.316406c-22.457031.855469-43.453125 10.328125-59.125 26.675782-15.65625 16.339843-24.246094 37.71875-24.179688 60.199218.082032 27.550782 13.457032 53.683594 35.777344 69.898438 2.414063 1.753906 3.851563 4.5 3.851563 7.351562v234.261719c0 25.941406 21.105469 47.042969 47.046875 47.042969 25.9375 0 47.042968-21.101563 47.042968-47.042969v-234.269531c0-2.851563 1.398438-5.566406 3.734376-7.257813 22.476562-16.273437 35.894531-42.535156 35.894531-70.25 0-23.773437-9.433594-45.949219-26.566407-62.445312-17.125-16.484375-39.683593-25.074219-63.476562-24.164063zm45.34375 144.699219c-6.226562 4.507813-9.941406 11.769531-9.941406 19.417969v234.269531c0 17.664063-14.371094 32.03125-32.035156 32.03125-17.664063 0-32.03125-14.367187-32.03125-32.03125v-234.261719c0-7.640625-3.753907-14.929687-10.039063-19.496094-18.460937-13.410156-29.523437-35.019531-29.589844-57.800781-.058593-18.570312 7.050781-36.246093 20.007813-49.765625 12.960937-13.523437 30.308594-21.355468 48.855468-22.0625.941407-.035156 1.882813-.050781 2.820313-.050781 18.648437 0 36.195313 7.050781 49.675781 20.027344 14.164063 13.640625 21.964844 31.976562 21.964844 51.636719 0 22.914062-11.097656 44.628906-29.6875 58.085937zm0 0"/><path d="m178.609375 60.996094c-31.351563.480468-56.816406 25.382812-57.980469 56.695312-.726562 19.640625 8.316406 38.277344 24.191406 49.859375 6.742188 4.917969 10.769532 12.632813 10.769532 20.628907v125.714843c0 6.632813 5.398437 12.03125 12.03125 12.03125h23.8125c6.632812 0 12.03125-5.398437 12.03125-12.03125v-125.34375c0-8.183593 4.105468-16.089843 10.980468-21.15625 3.339844-2.457031 4.050782-7.15625 1.59375-10.492187-2.457031-3.335938-7.15625-4.050782-10.492187-1.59375-10.703125 7.878906-17.09375 20.308594-17.09375 33.242187v122.363281h-17.851563v-122.734374c0-12.773438-6.328124-25.019532-16.933593-32.753907-11.835938-8.636719-18.578125-22.535156-18.035157-37.175781.867188-23.332031 19.84375-41.886719 43.207032-42.242188 11.878906-.164062 23.0625 4.300782 31.511718 12.621094 8.449219 8.324219 13.105469 19.4375 13.105469 31.296875 0 3.742188-.472656 7.460938-1.398437 11.046875-1.039063 4.011719 1.371094 8.109375 5.382812 9.144532 4.019532 1.042968 8.109375-1.371094 9.148438-5.382813 1.246094-4.8125 1.878906-9.796875 1.878906-14.804687 0-15.914063-6.246094-30.828126-17.582031-41.996094-11.34375-11.164063-26.386719-17.191406-42.277344-16.9375zm0 0"/><path d="m54.441406 207.96875c0 4.144531 3.359375 7.503906 7.503906 7.503906h43.03125c4.144532 0 7.503907-3.359375 7.503907-7.503906s-3.359375-7.507812-7.503907-7.507812h-43.03125c-4.144531 0-7.503906 3.363281-7.503906 7.507812zm0 0"/><path d="m104.976562 229.714844h-20.015624c-4.144532 0-7.503907 3.359375-7.503907 7.503906s3.359375 7.507812 7.503907 7.507812h20.015624c4.144532 0 7.503907-3.363281 7.503907-7.507812s-3.359375-7.503906-7.503907-7.503906zm0 0"/><path d="m104.976562 258.96875h-20.015624c-4.144532 0-7.503907 3.359375-7.503907 7.503906 0 4.144532 3.359375 7.503906 7.503907 7.503906h20.015624c4.144532 0 7.503907-3.359374 7.503907-7.503906 0-4.144531-3.359375-7.503906-7.503907-7.503906zm0 0"/><path d="m104.976562 288.21875h-20.015624c-4.144532 0-7.503907 3.359375-7.503907 7.507812 0 4.144532 3.359375 7.503907 7.503907 7.503907h20.015624c4.144532 0 7.503907-3.359375 7.503907-7.503907 0-4.148437-3.359375-7.507812-7.503907-7.507812zm0 0"/><path d="m61.945312 332.484375h43.03125c4.144532 0 7.503907-3.363281 7.503907-7.507813 0-4.144531-3.359375-7.503906-7.503907-7.503906h-43.03125c-4.144531 0-7.503906 3.359375-7.503906 7.503906 0 4.144532 3.359375 7.507813 7.503906 7.507813zm0 0"/><path d="m104.976562 346.726562h-20.015624c-4.144532 0-7.503907 3.359376-7.503907 7.503907s3.359375 7.503906 7.503907 7.503906h20.015624c4.144532 0 7.503907-3.359375 7.503907-7.503906s-3.359375-7.503907-7.503907-7.503907zm0 0"/><path d="m104.976562 375.976562h-20.015624c-4.144532 0-7.503907 3.363282-7.503907 7.507813s3.359375 7.503906 7.503907 7.503906h20.015624c4.144532 0 7.503907-3.359375 7.503907-7.503906s-3.359375-7.507813-7.503907-7.507813zm0 0"/><path d="m104.976562 405.230469h-20.015624c-4.144532 0-7.503907 3.359375-7.503907 7.503906s3.359375 7.507813 7.503907 7.507813h20.015624c4.144532 0 7.503907-3.363282 7.503907-7.507813s-3.359375-7.503906-7.503907-7.503906zm0 0"/><path d="m61.945312 449.496094h43.03125c4.144532 0 7.503907-3.363282 7.503907-7.507813s-3.359375-7.503906-7.503907-7.503906h-43.03125c-4.144531 0-7.503906 3.359375-7.503906 7.503906s3.359375 7.507813 7.503906 7.507813zm0 0"/><path d="m104.976562 463.734375h-20.015624c-4.144532 0-7.503907 3.363281-7.503907 7.507813 0 4.144531 3.359375 7.503906 7.503907 7.503906h20.015624c4.144532 0 7.503907-3.359375 7.503907-7.503906 0-4.144532-3.359375-7.507813-7.503907-7.507813zm0 0"/><path d="m297.105469 200.460938h-43.027344c-4.148437 0-7.507813 3.363281-7.507813 7.507812s3.359376 7.503906 7.507813 7.503906h43.027344c4.148437 0 7.507812-3.359375 7.507812-7.503906s-3.363281-7.507812-7.507812-7.507812zm0 0"/><path d="m254.078125 244.726562h20.011719c4.148437 0 7.507812-3.363281 7.507812-7.507812s-3.359375-7.503906-7.507812-7.503906h-20.011719c-4.148437 0-7.507813 3.359375-7.507813 7.503906s3.359376 7.507812 7.507813 7.507812zm0 0"/><path d="m254.078125 273.976562h20.011719c4.148437 0 7.507812-3.359374 7.507812-7.503906 0-4.144531-3.359375-7.503906-7.507812-7.503906h-20.011719c-4.148437 0-7.507813 3.359375-7.507813 7.503906 0 4.144532 3.359376 7.503906 7.507813 7.503906zm0 0"/><path d="m254.078125 303.230469h20.011719c4.148437 0 7.507812-3.359375 7.507812-7.503907 0-4.148437-3.359375-7.507812-7.507812-7.507812h-20.011719c-4.148437 0-7.507813 3.359375-7.507813 7.507812 0 4.144532 3.359376 7.503907 7.507813 7.503907zm0 0"/><path d="m297.105469 317.472656h-43.027344c-4.148437 0-7.507813 3.359375-7.507813 7.503906 0 4.144532 3.359376 7.507813 7.507813 7.507813h43.027344c4.148437 0 7.507812-3.363281 7.507812-7.507813 0-4.144531-3.363281-7.503906-7.507812-7.503906zm0 0"/><path d="m254.078125 361.734375h20.011719c4.148437 0 7.507812-3.359375 7.507812-7.503906s-3.359375-7.503907-7.507812-7.503907h-20.011719c-4.148437 0-7.507813 3.359376-7.507813 7.503907s3.359376 7.503906 7.507813 7.503906zm0 0"/><path d="m254.078125 390.988281h20.011719c4.148437 0 7.507812-3.359375 7.507812-7.503906s-3.359375-7.507813-7.507812-7.507813h-20.011719c-4.148437 0-7.507813 3.363282-7.507813 7.507813s3.359376 7.503906 7.507813 7.503906zm0 0"/><path d="m254.078125 420.242188h20.011719c4.148437 0 7.507812-3.363282 7.507812-7.507813s-3.359375-7.503906-7.507812-7.503906h-20.011719c-4.148437 0-7.507813 3.359375-7.507813 7.503906s3.359376 7.507813 7.507813 7.507813zm0 0"/><path d="m304.613281 441.988281c0-4.144531-3.359375-7.503906-7.507812-7.503906h-43.027344c-4.148437 0-7.507813 3.359375-7.507813 7.503906s3.359376 7.507813 7.507813 7.507813h43.027344c4.144531 0 7.507812-3.363282 7.507812-7.507813zm0 0"/><path d="m254.078125 463.734375c-4.148437 0-7.507813 3.363281-7.507813 7.507813 0 4.144531 3.359376 7.503906 7.507813 7.503906h20.011719c4.148437 0 7.507812-3.359375 7.507812-7.503906 0-4.144532-3.359375-7.507813-7.507812-7.507813zm0 0"/></svg>