<svg height="512pt" viewBox="-148 0 511 512" width="512pt" xmlns="http://www.w3.org/2000/svg"><path d="m162.914062 210.988281v-17.222656h7.449219c11.289063 0 20.472657-9.183594 20.472657-20.472656v-38.121094c0-11.289063-9.183594-20.472656-20.472657-20.472656h-13.589843l-4.574219-7.5c-5.507813-9.03125-8.417969-19.394531-8.417969-29.972657v-41.566406c0-19.664062-15.996094-35.660156-35.660156-35.660156-19.660156 0-35.65625 15.996094-35.65625 35.660156v41.566406c0 10.578126-2.914063 20.945313-8.421875 29.972657l-4.574219 7.5h-13.589844c-11.289062 0-20.472656 9.183593-20.472656 20.472656v38.121094c0 11.289062 9.183594 20.472656 20.472656 20.472656h7.453125v17.222656c-29.320312 1.109375-52.832031 25.292969-52.832031 54.878907v224.019531c0 12.195312 9.917969 22.113281 22.113281 22.113281h111.871094c4.140625 0 7.496094-3.355469 7.496094-7.496094s-3.355469-7.496094-7.496094-7.496094h-111.871094c-3.925781 0-7.121093-3.195312-7.121093-7.121093v-38.324219h185.257812v38.324219c0 3.925781-3.195312 7.121093-7.121094 7.121093h-24.160156c-4.140625 0-7.496094 3.355469-7.496094 7.496094s3.355469 7.496094 7.496094 7.496094h24.160156c12.191406 0 22.113282-9.917969 22.113282-22.113281v-224.019531c0-29.585938-23.511719-53.769532-52.828126-54.878907zm-75.457031-133.761719v-41.566406c0-11.394531 9.269531-20.667968 20.664063-20.667968 11.394531 0 20.667968 9.269531 20.667968 20.667968v41.566406c0 13.214844 3.601563 26.160157 10.421876 37.472657h-62.179688c6.820312-11.3125 10.425781-24.257813 10.425781-37.472657zm-41.578125 101.546876c-3.019531 0-5.476562-2.460938-5.476562-5.480469v-38.121094c0-3.023437 2.457031-5.480469 5.476562-5.480469h124.484375c3.019531 0 5.480469 2.457032 5.480469 5.480469v38.121094c0 3.019531-2.460938 5.480469-5.480469 5.480469zm102.039063 14.992187v17.167969h-79.59375v-17.167969zm52.832031 77.605469h-121.117188c-4.140624 0-7.496093 3.355468-7.496093 7.496094 0 4.140624 3.355469 7.496093 7.496093 7.496093h121.117188v150.207031h-185.253906v-150.207031h29.652344c4.140624 0 7.496093-3.355469 7.496093-7.496093 0-4.140626-3.355469-7.496094-7.496093-7.496094h-29.652344v-5.503906c0-22.023438 17.914062-39.9375 39.9375-39.9375h105.375c22.023437 0 39.941406 17.914062 39.941406 39.9375zm0 0"/><path d="m44.59375 355.074219c0 10.832031 5.421875 20.785156 14.066406 26.75-1.265625 3.503906-1.917968 7.21875-1.917968 11.015625 0 17.90625 14.570312 32.476562 32.476562 32.476562 6.84375 0 13.441406-2.160156 18.90625-6.078125 5.460938 3.917969 12.054688 6.078125 18.902344 6.078125 17.90625 0 32.476562-14.570312 32.476562-32.476562 0-3.796875-.652344-7.511719-1.917968-11.015625 8.648437-5.964844 14.066406-15.917969 14.066406-26.75 0-17.722657-14.269532-32.175781-31.925782-32.46875-3.390624-14.308594-16.273437-24.984375-31.601562-24.984375s-28.210938 10.675781-31.601562 24.984375c-17.660157.292969-31.929688 14.746093-31.929688 32.46875zm32.476562-17.480469c1.441407 0 2.875.175781 4.269532.523438 2.277344.574218 4.691406.042968 6.519531-1.425782 1.832031-1.472656 2.863281-3.714844 2.796875-6.0625l-.015625-.535156c0-9.636719 7.839844-17.480469 17.480469-17.480469s17.480468 7.84375 17.480468 17.480469l-.015624.535156c-.066407 2.347656.964843 4.589844 2.796874 6.0625 1.828126 1.46875 4.242188 1.996094 6.519532 1.425782 1.394531-.347657 2.832031-.523438 4.269531-.523438 9.640625 0 17.480469 7.839844 17.480469 17.480469 0 7.378906-4.667969 13.996093-11.617188 16.472656-2.203125.78125-3.910156 2.546875-4.625 4.769531s-.351562 4.652344.980469 6.570313c2.039063 2.933593 3.113281 6.375 3.113281 9.953125 0 9.640625-7.839844 17.480468-17.480468 17.480468-5.078126 0-9.898438-2.210937-13.230469-6.066406-1.425781-1.648437-3.496094-2.59375-5.671875-2.59375-2.179688 0-4.25.945313-5.675782 2.59375-3.332031 3.855469-8.152343 6.066406-13.230468 6.066406-9.640625 0-17.480469-7.839843-17.480469-17.480468 0-3.578125 1.074219-7.019532 3.113281-9.953125 1.332032-1.917969 1.695313-4.347657.980469-6.570313-.714844-2.226562-2.421875-3.988281-4.625-4.769531-6.949219-2.476563-11.617187-9.09375-11.617187-16.472656.003906-9.640625 7.84375-17.480469 17.484374-17.480469zm0 0"/><path d="m108.121094 393.605469c15.792968 0 28.640625-12.847657 28.640625-28.640625 0-15.792969-12.847657-28.640625-28.640625-28.640625-15.792969 0-28.640625 12.847656-28.640625 28.640625 0 15.792968 12.847656 28.640625 28.640625 28.640625zm0-42.285157c7.527344 0 13.648437 6.121094 13.648437 13.644532 0 7.527344-6.121093 13.648437-13.648437 13.648437-7.523438 0-13.644532-6.121093-13.644532-13.648437 0-7.523438 6.121094-13.644532 13.644532-13.644532zm0 0"/></svg>