<svg height="511pt" viewBox="0 -42 511.99983 511" width="511pt" xmlns="http://www.w3.org/2000/svg"><path d="m430.785156 315.777344c44.78125 0 81.214844-36.433594 81.214844-81.214844s-36.433594-81.214844-81.214844-81.214844c-13.8125 0-26.816406 3.488282-38.210937 9.601563-7.867188-10.414063-15.273438-18.199219-20.285157-23.046875 4.214844-4.371094 6.8125-10.308594 6.8125-16.847656v-24.886719c0-13.398438-10.898437-24.296875-24.292968-24.296875h-5.402344v-10.636719c0-11.472656-9.332031-20.808594-20.808594-20.808594h-59.105468c.410156-2.613281.527343-5.277343.359374-7.964843-1.152343-18.113282-15.671874-32.675782-33.769531-33.878907-10.167969-.675781-19.851562 2.773438-27.265625 9.714844-7.308594 6.839844-11.5 16.5-11.5 26.511719 0 1.890625.144532 3.765625.433594 5.617187h-13.570312c-4.132813 0-7.484376 3.351563-7.484376 7.484375 0 4.128906 3.351563 7.480469 7.484376 7.480469h20.015624c3.238282 0 6.277344-1.578125 8.132813-4.226563 1.863281-2.65625 2.316406-6.066406 1.210937-9.125-.835937-2.316406-1.261718-4.75-1.261718-7.230468 0-5.972656 2.402344-11.507813 6.765625-15.589844 4.355469-4.074219 10.058593-6.101562 16.046875-5.707031 10.628906.707031 19.152344 9.261719 19.828125 19.898437.1875 2.984375-.226563 5.898438-1.234375 8.667969-1.097656 3.03125-.648438 6.417969 1.203125 9.0625 1.867187 2.660156 4.914062 4.25 8.164062 4.25h65.546875c3.226563 0 5.847656 2.621094 5.847656 5.84375v10.636719h-201.648437v-10.636719c0-3.222656 2.621094-5.84375 5.84375-5.84375h10.621094c4.132812 0 7.480469-3.351563 7.480469-7.484375 0-4.128906-3.347657-7.480469-7.480469-7.480469h-10.621094c-11.472656 0-20.808594 9.335938-20.808594 20.808594v10.636719h-5.398437c-13.398438 0-24.296875 10.898437-24.296875 24.296875v24.886719c0 3.308593.664062 6.460937 1.867187 9.335937h-71.484375c-5.078125 0-9.992187 2.117187-13.484375 5.804687-3.460937 3.660157-5.285156 8.636719-5.0078122 13.644532 2.1523442 38.605468 25.3750002 65.425781 41.3750002 79.46875-11.046875 44.867187-2.71875 90.277344 24.746094 135.234375h-21.015626c-8.910156 0-16.164062 7.25-16.164062 16.164062v12.800781c0 17.28125 14.0625 31.339844 31.34375 31.339844h346.613281c17.28125 0 31.339844-14.058594 31.339844-31.339844v-12.800781c0-8.914062-7.25-16.164062-16.164063-16.164062h-21.007812c10.304688-16.902344 17.910156-33.96875 22.8125-51.066407 2.269531.191407 4.5625.300782 6.878906.300782zm0-147.464844c36.53125 0 66.25 29.71875 66.25 66.25s-29.71875 66.25-66.25 66.25c-1.113281 0-2.21875-.039062-3.320312-.09375 1.3125-6.746094 2.214844-13.488281 2.675781-20.226562.109375-1.648438.195313-3.292969.257813-4.941407.128906.003907.257812.011719.386718.011719 22.609375 0 41-18.390625 41-41 0-3.355469-.40625-6.691406-1.207031-9.921875-1-4.007813-5.058594-6.449219-9.066406-5.453125-4.011719.996094-6.453125 5.054688-5.457031 9.066406.511718 2.046875.769531 4.171875.769531 6.308594 0 14.359375-11.679688 26.039062-26.039063 26.039062-.179687 0-.359375-.011718-.539062-.015624-.953125-16.703126-4.554688-33.257813-10.746094-49.484376 3.414062-1.648437 7.246094-2.574218 11.285156-2.574218 2.667969 0 5.292969.398437 7.804688 1.1875 3.945312 1.234375 8.140625-.960938 9.375-4.902344 1.238281-3.941406-.957032-8.140625-4.898438-9.375-3.964844-1.246094-8.09375-1.875-12.28125-1.875-6.132812 0-11.957031 1.363281-17.183594 3.789062-3.855468-8.054687-8.082031-15.417968-12.375-22.050781 8.90625-4.464843 18.941407-6.988281 29.558594-6.988281zm-327.6875-70.144531c0-5.148438 4.1875-9.335938 9.335938-9.335938h242.375c5.144531 0 9.332031 4.1875 9.332031 9.335938v24.886719c0 5.148437-4.1875 9.335937-9.332031 9.335937h-242.375c-5.148438 0-9.335938-4.1875-9.335938-9.335937zm319.007813 283.335937c.660156 0 1.199219.539063 1.199219 1.203125v12.800781c0 9.027344-7.347657 16.375-16.378907 16.375h-346.613281c-9.03125 0-16.378906-7.347656-16.378906-16.375v-12.800781c0-.664062.539062-1.203125 1.203125-1.203125zm-6.894531-102.023437c-1.964844 28.898437-12.671876 58.167969-31.84375 87.0625h-299.496094c-30.167969-45.445313-39.195313-91.148438-26.832032-135.90625.789063-2.855469-.179687-5.90625-2.472656-7.785157-13.929687-11.390624-37.59375-35.871093-39.597656-71.84375-.070312-1.261718.558594-2.125.9375-2.527343.398438-.421875 1.265625-1.128907 2.613281-1.128907h339.816407c6.722656 6.0625 29.414062 28.101563 44.101562 61.535157 10.09375 22.988281 14.390625 46.738281 12.773438 70.59375zm0 0"/></svg>