<svg height="512pt" viewBox="-112 0 512 512.001" width="512pt" xmlns="http://www.w3.org/2000/svg"><path d="m147.160156 0h-7.152344c-77.199218 0-140.007812 62.808594-140.007812 140.007812v91.167969c0 62.59375 41.289062 115.71875 98.058594 133.585938v35.042969c0 7.933593-2.167969 15.925781-6.273438 23.117187-5.789062 10.140625-8.441406 21.71875-7.667968 33.472656.957031 14.625 7.332031 28.363281 17.957031 38.6875 10.613281 10.320313 24.527343 16.3125 39.175781 16.875.792969.027344 1.585938.042969 2.375.042969 8.339844 0 16.414062-1.695312 24.023438-5.058594 3.78125-1.671875 5.492187-6.089844 3.820312-9.871094-1.667969-3.78125-6.085938-5.492187-9.871094-3.824218-6.226562 2.753906-12.882812 4.019531-19.773437 3.75-22.511719-.863282-41.296875-19.128906-42.769531-41.582032-.578126-8.816406 1.40625-17.488281 5.734374-25.070312 5.390626-9.449219 8.242188-20.007812 8.242188-30.535156v-31.242188c8.730469 1.714844 17.75 2.621094 26.976562 2.621094h7.152344c9.226563 0 18.246094-.90625 26.976563-2.621094v31.234375c0 10.832031 2.742187 21.203125 7.925781 29.996094 4.023438 6.824219 6.152344 14.640625 6.152344 22.605469 0 7.277344-1.695313 14.214844-5.039063 20.617187-1.910156 3.664063-.492187 8.1875 3.175781 10.097657 3.660157 1.910156 8.183594.492187 10.097657-3.171876 4.40625-8.441406 6.734375-17.964843 6.734375-27.542968 0-10.636719-2.84375-21.085938-8.222656-30.210938-3.828126-6.492187-5.851563-14.230468-5.851563-22.390625v-35.035156c56.769531-17.867187 98.058594-70.996094 98.058594-133.585937v-91.167969c0-77.203125-62.808594-140.011719-140.007813-140.011719zm125.039063 231.175781c0 33.253907-13.046875 64.613281-36.738281 88.300781-23.6875 23.691407-55.046876 36.738282-88.300782 36.738282h-7.148437c-33.253907 0-64.613281-13.046875-88.300781-36.738282-23.691407-23.6875-36.738282-55.046874-36.738282-88.300781v-91.167969c0-33.253906 13.046875-64.613281 36.738282-88.300781 23.6875-23.691406 55.046874-36.738281 88.300781-36.738281h7.148437c33.253906 0 64.613282 13.046875 88.300782 36.738281 23.691406 23.6875 36.738281 55.050781 36.738281 88.300781zm0 0"/><path d="m220.078125 80.140625c-17.824219-22.492187-45.429687-35.933594-74.144531-35.933594h-4.699219c-52.144531 0-94.570313 42.425781-94.570313 94.570313v16.152344c0 .019531-.003906.039062-.003906.058593v47.359375c0 .027344.003906.054688.003906.082032v25.96875c0 .023437-.003906.039062-.003906.0625v3.945312c0 5.652344.496094 11.234375 1.484375 16.710938 7.914063 44.207031 46.644531 77.859374 93.089844 77.859374h4.699219c52.148437 0 94.570312-42.421874 94.570312-94.570312v-13.152344c0-.019531.003906-.039062.003906-.058594 0 0 .078126-78.195312-.195312-84.191406-.261719-5.746094-.847656-11.472656-2.121094-17.140625-1.328125-5.886719-3.257812-11.625-5.691406-17.144531-3.246094-7.351562-7.433594-14.28125-12.421875-20.578125zm-158.441406 58.636719c0-43.890625 35.707031-79.597656 79.597656-79.597656h4.699219c30.792968 0 57.539062 17.585937 70.769531 43.234374l-155.066406 42.746094zm163.894531 93.628906c0 43.890625-35.707031 79.601562-79.597656 79.601562h-4.699219c-29.734375 0-55.699219-16.402343-69.363281-40.621093l153.660156-42.363281zm0-58.960938-36.476562 10.058594c-3.984376 1.097656-6.328126 5.21875-5.226563 9.203125 1.097656 3.984375 5.214844 6.328125 9.207031 5.226563l32.5-8.957032v24.519532l-159.804687 44.054687c-.011719-.03125-.023438-.0625-.03125-.09375-.277344-.816406-.53125-1.640625-.78125-2.46875-.957031-3.203125-1.628907-6.097656-2.191407-9.492187-.488281-2.933594-.820312-5.898438-.976562-8.867188-.007812-.152344-.007812-.300781-.015625-.449218-.03125-.675782-.039063-1.355469-.054687-2.035157l97.746093-26.945312c3.988281-1.097657 6.328125-5.21875 5.230469-9.207031-1.101562-3.984376-5.214844-6.324219-9.207031-5.226563l-93.8125 25.863281v-10.582031l163.898437-45.175781v10.574218zm0-26.101562-163.894531 45.171875v-31.828125l160.671875-44.289062c.035156.117187.066406.238281.101562.359374 1.910156 6.632813 3.433594 14.785157 3.121094 21.617188-.046875 1.027344.433594 8.851562 0 8.96875zm0 0"/></svg>