<svg height="512pt" viewBox="0 -9 512.0008 512" width="512pt" xmlns="http://www.w3.org/2000/svg"><path d="m493.777344 169.847656c3.765625-2.058594 6.699218-5.523437 8.105468-9.949218 2.460938-7.730469-.53125-15.765626-7.449218-20l-26.273438-16.085938h2.058594c11.496094 0 20.847656-9.355469 20.847656-20.851562v-82.109376c0-11.496093-9.351562-20.851562-20.847656-20.851562h-369.875c-4.148438 0-7.507812 3.363281-7.507812 7.507812 0 4.148438 3.359374 7.507813 7.507812 7.507813h369.871094c3.21875 0 5.835937 2.617187 5.835937 5.835937v82.109376c0 3.21875-2.617187 5.835937-5.835937 5.835937h-428.441406c-3.214844 0-5.832032-2.617187-5.832032-5.835937v-82.109376c0-3.21875 2.617188-5.835937 5.832032-5.835937h23.535156c4.148437 0 7.507812-3.359375 7.507812-7.507813 0-4.144531-3.363281-7.507812-7.507812-7.507812h-23.535156c-11.496094 0-20.847657 9.351562-20.847657 20.847656v82.113282c0 11.496093 9.351563 20.847656 20.847657 20.847656h2.066406l-26.273438 16.089844c-6.917968 4.234374-9.910156 12.269531-7.453125 19.996093 1.410157 4.429688 4.339844 7.898438 8.109375 9.957031-14.792968 19.128907-21.011718 43.714844-17.058594 67.585938l30.359376 183.320312c1.96875 11.890626 6.246093 22.863282 12.332031 32.492188 15.546875 24.613281 42.898437 40.460938 73.691406 40.460938h276.90625c25.757813 0 49.09375-11.097657 65.140625-29.125 10.648438-11.960938 18.09375-26.964844 20.882812-43.828126l30.359376-183.320312c3.953124-23.871094-2.265626-48.460938-17.058594-67.589844zm-28.117188 248.460938c-1.730468 10.460937-5.632812 20.050781-11.183594 28.375-13.023437 19.519531-35.160156 32.015625-60.027343 32.015625h-276.898438c-29.925781 0-55.925781-18.082031-66.800781-44.75-2.011719-4.9375-3.507812-10.171875-4.414062-15.640625l-22.53125-136.082032c6.035156 1.941407 11.25 4.3125 16.65625 6.773438 13.785156 6.269531 28.035156 12.753906 56.207031 12.753906 28.183593 0 42.433593-6.488281 56.21875-12.765625 12.890625-5.867187 25.070312-11.414062 49.996093-11.414062 24.921876 0 37.101563 5.546875 49.992188 11.414062 13.785156 6.277344 28.042969 12.765625 56.230469 12.765625 28.179687 0 42.433593-6.488281 56.214843-12.761718 12.898438-5.871094 25.078126-11.417969 50.011719-11.417969 24.914063 0 37.09375 5.546875 49.988281 11.414062 6.21875 2.832031 12.605469 5.742188 20.414063 8.066407zm30.359375-183.324219-7.800781 47.117187c-6.035156-1.9375-11.253906-4.308593-16.679688-6.777343-13.78125-6.273438-28.035156-12.761719-56.207031-12.761719-28.191406 0-42.445312 6.488281-56.230469 12.761719-12.894531 5.871093-25.074218 11.414062-49.996093 11.414062-24.933594 0-37.113281-5.542969-50.007813-11.414062-13.785156-6.273438-28.039062-12.761719-56.21875-12.761719-28.179687 0-42.433594 6.488281-56.214844 12.761719-12.894531 5.871093-25.074218 11.414062-49.996093 11.414062-24.917969 0-37.09375-5.539062-49.988281-11.40625-7.554688-3.4375-15.335938-6.972656-25.585938-9.453125l-5.117188-30.890625c-3.308593-19.96875 1.976563-40.539062 14.496094-56.445312l5.664063-7.195313 78.570312-5.257812c4.984375-.332032 9.941407.21875 14.734375 1.632812l54.65625 16.148438c12.339844 3.648437 25.699219 2.992187 37.621094-1.835938l17.941406-7.269531c10.535156-4.265625 22.140625-4.265625 32.675782 0l17.941406 7.269531c6.835937 2.769532 14.144531 4.164063 21.460937 4.164063 5.445313 0 10.894531-.773438 16.15625-2.328125l6.804688-2.011719c3.976562-1.171875 6.246093-5.351563 5.070312-9.324219-1.175781-3.976562-5.347656-6.25-9.324219-5.074218l-6.804687 2.011718c-9.089844 2.683594-18.9375 2.203125-27.726563-1.355468l-17.945312-7.269532c-14.164062-5.738281-29.773438-5.738281-43.945312 0l-17.941407 7.269532c-8.789062 3.558593-18.636719 4.039062-27.730469 1.351562l-54.65625-16.148438c-6.503906-1.921874-13.230468-2.664062-19.992187-2.210937l-86.953125 5.816406c-1.179688.082031-1.96875-.453125-2.328125-1.582031-.359375-1.132812-.027344-2.019531.984375-2.640625l47.1875-28.890625h366.8125l47.1875 28.890625c1.011719.621094 1.34375 1.507813.980469 2.640625-.359375 1.128906-1.144531 1.667969-2.328125 1.582031l-86.953125-5.816406c-6.761719-.453125-13.492188.292969-19.992188 2.214844l-14.429687 4.261719c-3.980469 1.175781-6.25 5.351562-5.074219 9.328124 1.171875 3.972657 5.34375 6.246094 9.328125 5.070313l14.429688-4.261719c4.792968-1.417968 9.75-1.96875 14.734374-1.632812l78.570313 5.257812 5.664063 7.195313c12.519531 15.902343 17.804687 36.476562 14.496093 56.441406zm0 0"/></svg>