<svg height="511pt" viewBox="0 -43 511.99765 511" width="511pt" xmlns="http://www.w3.org/2000/svg"><path d="m486.605469 258.628906c0-.003906.003906-.007812.003906-.007812 1.984375-3.28125 8.945313-15.789063 15.121094-38.972656 7.988281-29.988282 11.34375-64.847657 9.964843-103.613282-.53125-14.996094-12.695312-27.160156-27.691406-27.691406-18.378906-.65625-34.863281-.171875-49.546875 1.03125-7.214843-19.539062-17.386719-39.851562-30.414062-60.636719-7.082031-11.304687-21.859375-15.253906-33.632813-8.988281-3.414062 1.8125-6.804687 3.679688-10.078125 5.546875-3.609375 2.054687-4.871093 6.648437-2.816406 10.257813 2.058594 3.609374 6.652344 4.867187 10.257813 2.8125 3.152343-1.792969 6.414062-3.589844 9.699218-5.335938 4.839844-2.574219 10.914063-.953125 13.824219 3.695312 12.988281 20.726563 21.769531 38.945313 27.714844 54.246094-31.96875 4.035156-53.664063 11.40625-65.898438 16.660156-5.269531-11.039062-13.378906-25.441406-25.660156-42.210937 3.527344-2.816406 7.347656-5.714844 11.476563-8.671875 3.378906-2.417969 4.160156-7.117188 1.742187-10.496094-2.421875-3.378906-7.121094-4.15625-10.496094-1.738281-4.261719 3.050781-8.210937 6.046875-11.882812 8.96875-11.132813-13.886719-24.976563-29.074219-42.195313-45.113281-11.273437-10.496094-28.933594-10.496094-40.203125 0-17.21875 16.035156-31.0625 31.222656-42.191406 45.109375-15.019531-11.976563-32.453125-23.269531-52.121094-33.730469-11.773437-6.261719-26.550781-2.316406-33.632812 8.988281-14.515625 23.152344-24.066407 43.574219-30.351563 60.597657-15.699218-1.273438-32.261718-1.609376-49.613281-.992188-14.992187.53125-27.15625 12.695312-27.691406 27.691406-3.296875 92.84375 22.171875 137.769532 25.089843 142.585938 0 .003906 0 .003906.003907.007812.125.207032.238281.414063.351562.628906 8.667969 16.652344 19.007813 31.207032 30.96875 43.652344-29.058593 12.703125-44.238281 28.128906-44.238281 45.332032 0 22.4375 25.773438 41.855468 74.53125 56.148437 45.242188 13.269531 105.261719 20.574219 168.996094 20.574219 32.484375 0 63.988281-1.882813 93.632812-5.601563 13.210938-1.65625 24.898438-9.042969 32.0625-20.273437 4.628906-7.25 13.328125-10.691406 21.667969-8.558594l22.265625 5.699219c9.511719 2.4375 19.683594 1.648437 28.640625-2.210938 30.03125-12.949219 45.261719-28.351562 45.261719-45.777343 0-17.203126-15.179688-32.628907-44.238282-45.335938 11.960938-12.441406 22.300782-26.996094 30.964844-43.648438.109375-.214843.222656-.421874.351563-.628906zm-365.914063-221.90625c1.976563-3.152344 5.410156-4.914062 8.925782-4.914062 1.664062 0 3.34375.394531 4.898437 1.222656 21.019531 11.179688 37.390625 22.285156 50.039063 32.367188-12.28125 16.761718-20.390626 31.152343-25.660157 42.195312-6.460937-2.792969-15.484375-6.140625-27.296875-9.285156-12.089844-3.222656-24.984375-5.679688-38.597656-7.386719 5.945312-15.292969 14.714844-33.492187 27.691406-54.199219zm-81.609375 215.589844c-.265625-.507812-.535156-.992188-.832031-1.484375-2.679688-4.421875-26.070312-45.777344-22.921875-134.261719.253906-7.140625 6.046875-12.9375 13.191406-13.191406 67.148438-2.386719 107.152344 10.511719 124.46875 18.035156-1.90625 5.121094-2.800781 8.445313-3.097656 9.65625-.066406.261719-.136719.507813-.214844.757813-9.589843 30.410156-11.738281 60.421875-6.378906 89.195312 4.445313 23.851563 14.058594 47.007813 28.582031 68.820313 2.304688 3.460937 6.972656 4.398437 10.429688 2.09375 3.460937-2.300782 4.398437-6.972656 2.09375-10.429688-29.789063-44.746094-36.644532-93.582031-20.378906-145.160156.175781-.554688.332031-1.097656.472656-1.671875 1.28125-5.210937 14.460937-52.71875 81.648437-115.292969 5.523438-5.144531 14.175781-5.144531 19.699219 0 67.191406 62.578125 80.367188 110.082032 81.652344 115.300782.140625.570312.296875 1.121093.46875 1.671874 15.371094 48.726563 10.058594 95.128907-15.789063 137.917969-21.4375 35.488281-51.777343 59.503907-67.957031 70.660157-4.996094 3.445312-11.453125 3.445312-16.449219 0-10.628906-7.328126-26.601562-19.652344-42.328125-36.75-2.8125-3.058594-7.570312-3.257813-10.628906-.445313-3.058594 2.816406-3.257812 7.574219-.445312 10.628906 7.734374 8.410157 15.519531 15.710938 22.769531 21.917969-19.742188 1.851562-46.097657 1.96875-73.320313-4.75-46.769531-11.542969-82.003906-39.539062-104.734375-83.21875zm445.394531 95.929688c0 10.398437-13.183593 22.050781-36.171874 31.960937-5.917969 2.550781-12.644532 3.066406-18.957032 1.453125l-22.265625-5.699219c-14.644531-3.746093-29.945312 2.296875-38.078125 15.039063-4.746094 7.445312-12.492187 12.34375-21.25 13.4375-29.023437 3.640625-59.898437 5.484375-91.757812 5.484375-62.34375 0-120.859375-7.089844-164.769532-19.964844-39.898437-11.695313-63.71875-27.289063-63.71875-41.710937 0-11.453126 15.027344-23.640626 41.191407-34.035157 20.058593 17.097657 43.945312 29.128907 71.511719 35.929688 18.953124 4.679687 37.46875 6.269531 53.890624 6.269531 15.570313 0 29.238282-1.433594 39.609376-3.015625 1.949218 1.425781 3.804687 2.742187 5.515624 3.921875 5.015626 3.457031 10.890626 5.1875 16.769532 5.1875 5.875 0 11.75-1.730469 16.765625-5.1875 1.699219-1.171875 3.550781-2.484375 5.519531-3.921875 10.367188 1.582031 24.027344 3.015625 39.605469 3.015625 16.417969 0 34.9375-1.59375 53.890625-6.269531 27.5625-6.804688 51.449218-18.828125 71.503906-35.921875 26.160156 10.390625 41.195312 22.578125 41.195312 34.027344zm-11.570312-95.929688c-22.730469 43.675781-57.964844 71.675781-104.734375 83.21875-27.226563 6.722656-53.585937 6.601562-73.328125 4.75 16.164062-13.84375 35.195312-33.375 50.210938-58.230469 28.179687-46.652343 33.984374-97.195312 17.253906-150.238281-.078125-.246094-.148438-.492188-.207032-.734375-.300781-1.214844-1.191406-4.542969-3.101562-9.667969 15.882812-6.902344 50.847656-18.324218 108.363281-18.324218 5.183594 0 10.554688.09375 16.105469.289062 7.144531.253906 12.9375 6.050781 13.195312 13.191406 3.144532 88.488282-20.246093 129.839844-22.921874 134.261719-.300782.492187-.570313.976563-.835938 1.484375zm0 0"/></svg>