<svg height="511pt" viewBox="-103 0 511 511.996" width="511pt" xmlns="http://www.w3.org/2000/svg"><path d="m294.527344 249.847656c-29.792969-11.960937-49.988282-12.339844-59.144532-11.570312-1.28125-10.835938-5.234374-27.710938-16.453124-49.542969-3.972657-7.730469-13.347657-11.113281-21.339844-7.699219-3.441406 1.46875-6.671875 2.957032-9.71875 4.453125 1.898437-14.515625 4.839844-27.003906 4.882812-27.1875.003906-.019531.003906-.039062.011719-.058593.585937-2.554688-.558594-5.773438-1.082031-8.28125-2.964844-14.191407-5.382813-28.796876-5.382813-43.328126 0-15.03125 3.328125-33.324218 5.203125-42.449218h2.988282c11.535156 0 20.917968-9.382813 20.917968-20.917969v-22.347656c.003906-11.535157-9.382812-20.917969-20.914062-20.917969h-173.082032c-11.53125 0-20.917968 9.382812-20.917968 20.917969v22.347656c0 11.53125 9.386718 20.917969 20.917968 20.917969h2.996094c1.875 9.113281 5.199219 27.390625 5.199219 42.449218 0 5.957032-.484375 11.914063-1.175781 17.828126-1.03125 8.851562-2.542969 17.652343-4.390625 26.367187-.339844 1.597656-.960938 3.328125-1.097657 4.960937-.253906 2.957032 1.125 6.527344 1.710938 9.464844.671875 3.371094 1.304688 6.746094 1.875 10.136719.6875 4.078125 4.542969 6.824219 8.621094 6.140625s6.828125-4.546875 6.144531-8.621094c-.554687-3.292968-1.109375-6.289062-1.613281-8.859375h136.539062c-1.492187 7.605469-3.433594 18.945313-4.355468 30.355469-18.097657 11.460938-25.597657 21.65625-27.289063 24.195312-7.304687 9.570313-12.253906 19.714844-14.84375 30.351563h-90.046875c1.953125-9.9375 4.675781-26.253906 4.878906-40.757813.058594-4.132812-3.246094-7.53125-7.378906-7.589843-4.136719-.046875-7.53125 3.246093-7.589844 7.378906-.289062 20.617187-6.378906 46.460937-6.441406 46.71875-.007812.042969-.011719.089844-.023438.132813-.007812.035156-.011718.070312-.019531.105468-.226562 1.089844-.222656 1.957032.003907 3.039063.007812.027343.011718.054687.015624.082031.011719.042969.015626.089844.023438.132812.066406.273438 6.453125 27.332032 6.453125 48.203126 0 17.195312-4.351563 38.652343-5.90625 45.773437-.554687 1.152344-.800781 2.429687-.722656 3.710937-.078125 1.28125.167969 2.558594.722656 3.710938 1.558594 7.113281 5.90625 28.542969 5.90625 45.769531 0 15.03125-3.324219 33.328125-5.203125 42.449219h-2.988281c-11.535157 0-20.917969 9.386719-20.917969 20.917969v22.347656c0 11.535156 9.382812 20.917969 20.917969 20.917969h173.078125c11.535156 0 20.917968-9.382813 20.917968-20.917969v-22.347656c0-11.53125-9.382812-20.917969-20.917968-20.917969h-2.992188c-1.875-9.113281-5.199218-27.390625-5.199218-42.449219 0-17.195312 4.351562-38.652343 5.90625-45.773437 1.09375-2.265625.492187-5.148438-.003907-7.421875-.398437-1.820313-.980469-4.582031-1.621093-7.972657 8.035156 2.402344 17.25 4.144532 27.070312 4.144532 7.476562 0 15.308594-1.007813 23.238281-3.5 3.945313-1.238282 6.136719-5.4375 4.898438-9.382813-1.238281-3.945312-5.4375-6.136719-9.382813-4.898437-20.691406 6.496094-40.984375.5-53.835937-5.28125 7.425781-3.253906 15.746093-7.808594 23.550781-14.132813 18.195312-14.75 28.097656-34.214843 29.503906-57.847656 6.039063-.625 24.496094-1.132813 53.324219 10.441406.808594.324219 1.234375 1.230469.96875 2.0625-1.839844 5.722657-11.777344 34.972657-26.992187 48.636719-3.074219 2.761719-3.328126 7.496094-.566407 10.570312 2.761719 3.078126 7.496094 3.328126 10.570313.566407 17.625-15.832031 28.367187-46.25 31.242187-55.195313 2.65625-8.273437-1.582031-17.292968-9.648437-20.53125zm-273.113282-200.636718c-3.277343 0-5.945312-2.667969-5.945312-5.945313v-22.347656c0-3.277344 2.667969-5.945313 5.945312-5.945313h173.082032c3.277344 0 5.945312 2.667969 5.945312 5.945313v22.347656c0 3.277344-2.667968 5.945313-5.945312 5.945313zm18.273438 99.871093c2.03125-10.324219 4.890625-27.535156 4.890625-42.449219 0-14.914062-2.863281-32.125-4.890625-42.449218h136.535156c-2.027344 10.324218-4.890625 27.535156-4.890625 42.449218 0 14.914063 2.863281 32.125 4.890625 42.449219zm87.96875 114.867188c-.234375 6.347656.308594 12.84375 1.632812 19.476562 3.773438 18.894531 13.164063 34.054688 18.425782 41.410157 3.160156 4.421874 8.296875 6.960937 13.597656 6.960937.648438 0 1.300781-.042969 1.953125-.121094.730469.625 1.507813 1.210938 2.355469 1.707031 2.234375 1.304688 5.160156 2.894532 8.652344 4.546876.597656 3.703124 1.210937 7.105468 1.773437 10.015624h-136.183594c2.015625-10.402343 4.714844-27.050781 4.714844-41.546874 0-14.914063-2.863281-32.125-4.890625-42.449219zm-83.078125 141.417969c0-14.496094-2.699219-31.140626-4.714844-41.546876h136.1875c-2.015625 10.40625-4.71875 27.050782-4.71875 41.546876 0 14.914062 2.863281 32.125 4.890625 42.449218h-136.535156c2.027344-10.324218 4.890625-27.535156 4.890625-42.449218zm149.917969 57.421874c3.277344 0 5.945312 2.667969 5.945312 5.945313v22.347656c0 3.277344-2.667968 5.945313-5.945312 5.945313h-173.082032c-3.277343 0-5.945312-2.667969-5.945312-5.945313v-22.347656c0-3.277344 2.667969-5.945313 5.945312-5.945313zm26.363281-212.910156v.003906c-.035156.332032-.058594.660157-.074219 1-1.867187 45.925782-41.945312 61.382813-59.089844 65.894532-.683593.183594-1.394531-.074219-1.804687-.648438-30.960937-43.285156-12.699219-76.273437-3.414063-88.441406.207032-.269531.402344-.539062.589844-.824219.464844-.699219 11.785156-17.273437 46.402344-32.058593.210938-.089844.433594-.132813.652344-.132813.609375 0 1.199218.335937 1.492187.90625 17.203125 33.480469 15.332031 53.46875 15.246094 54.300781zm0 0"/><path d="m199.644531 237.257812-2.621093.824219 2.9375-8.136719c1.402343-3.890624-.613282-8.179687-4.5-9.582031-3.894532-1.40625-8.179688.613281-9.582032 4.5l-2.9375 8.140625-1.488281-2.3125c-2.242187-3.472656-6.875-4.472656-10.347656-2.230468-3.472657 2.238281-4.472657 6.871093-2.234375 10.347656l7.402344 11.476562c.007812.316406.039062.636719.089843.957032l-3.746093 10.378906-1.488282-2.308594c-2.242187-3.476562-6.875-4.472656-10.347656-2.234375-3.476562 2.238281-4.476562 6.871094-2.234375 10.347656l7.402344 11.476563c.007812.320312.039062.640625.085937.960937l-4.664062 12.925781c-1.402344 3.890626.613281 8.179688 4.503906 9.582032.839844.304687 1.695312.445312 2.539062.445312 3.066407 0 5.941407-1.894531 7.042969-4.945312l4.664063-12.929688c.242187-.214844.46875-.4375.679687-.679687l13.023438-4.109375c3.945312-1.242188 6.132812-5.445313 4.890625-9.386719-1.246094-3.945313-5.449219-6.132813-9.390625-4.886719l-2.625.824219 3.746093-10.378906c.242188-.214844.46875-.4375.679688-.679688l13.027344-4.109375c3.941406-1.242187 6.128906-5.445312 4.886718-9.386718-1.246093-3.949219-5.449218-6.136719-9.394531-4.890626zm0 0"/></svg>