<svg height="512pt" viewBox="0 -41 512.00047 512" width="512pt" xmlns="http://www.w3.org/2000/svg"><path d="m211.179688 102.6875c-12.085938-15.699219-30.808594-26.238281-52.714844-29.675781-19.847656-3.113281-41.550782-.195313-59.546875 8.015625-45.777344 20.882812-54.375 75.828125-47.15625 120.289062 4.769531 29.386719 11.660156 63.300782 26.578125 92.019532 1.40625 2.710937 2.886718 5.367187 4.398437 7.898437 2.113281 3.546875 6.703125 4.707031 10.25 2.589844 3.546875-2.113281 4.707031-6.707031 2.59375-10.25-1.363281-2.28125-2.695312-4.679688-3.972656-7.132813-13.941406-26.84375-20.503906-59.304687-25.085937-87.519531-9.660157-59.503906 13.605468-92.886719 38.601562-104.289063 29.460938-13.4375 72.75-10.6875 94.203125 17.175782 15.617187 20.285156 9.035156 41.464844 1.414063 65.988281-5.746094 18.492187-11.6875 37.613281-7.792969 57.515625 1.464843 7.472656 3.761719 14.710938 5.980469 21.710938 3.605468 11.355468 7.007812 22.085937 6.761718 32.96875-.335937 14.703124-7.992187 29.132812-19.980468 37.65625-11.984376 8.523437-28.128907 11.015624-42.128907 6.503906-10.066406-3.246094-19.269531-8.425782-27.359375-15.402344-3.125-2.695312-7.847656-2.347656-10.546875.78125-2.695312 3.125-2.347656 7.847656.78125 10.546875 9.609375 8.285156 20.558594 14.445313 32.539063 18.308594 6.066406 1.957031 12.4375 2.910156 18.820312 2.910156 12.980469 0 26-3.949219 36.5625-11.460937 15.757813-11.203126 25.820313-30.175782 26.261719-49.503907.304687-13.375-3.640625-25.808593-7.457031-37.832031-2.1875-6.90625-4.257813-13.425781-5.558594-20.0625-3.167969-16.199219 1.964844-32.714844 7.398438-50.203125 8.117187-26.113281 16.507812-53.113281-3.84375-79.546875zm0 0"/><path d="m261.382812 73.949219c4.21875-8.902344 5.113282-18.769531 2.523438-27.789063-2.6875-9.363281-8.769531-16.703125-17.125-20.660156-8.355469-3.960938-17.886719-4.019531-26.835938-.167969-8.621093 3.710938-15.6875 10.652344-19.90625 19.554688-4.214843 8.898437-5.113281 18.765625-2.523437 27.785156 2.6875 9.363281 8.773437 16.703125 17.128906 20.660156 4.238281 2.007813 8.78125 3.011719 13.394531 3.011719 4.480469 0 9.03125-.945312 13.441407-2.84375 8.621093-3.710938 15.6875-10.652344 19.902343-19.550781zm-13.515624-6.40625c-2.65625 5.609375-7.023438 9.949219-12.296876 12.21875-4.945312 2.128906-10.105468 2.148437-14.523437.054687s-7.667969-6.097656-9.152344-11.269531c-1.585937-5.519531-.996093-11.648437 1.664063-17.257813 2.65625-5.609374 7.023437-9.949218 12.296875-12.21875 2.496093-1.070312 5.042969-1.609374 7.523437-1.609374 2.4375 0 4.808594.519531 7 1.554687 4.417969 2.09375 7.667969 6.097656 9.152344 11.273437 1.585938 5.519532.996094 11.644532-1.664062 17.253907zm0 0"/><path d="m155.671875 67.398438c2.476563.671874 4.972656.992187 7.449219.992187 14.097656 0 27.425781-10.449219 31.652344-26.015625 4.96875-18.304688-4.488282-36.859375-21.082032-41.363281-8.210937-2.230469-16.847656-.742188-24.320312 4.195312-7.171875 4.734375-12.417969 12.132813-14.78125 20.828125-4.964844 18.304688 4.492187 36.859375 21.082031 41.363282zm-6.644531-37.445313c1.40625-5.179687 4.457031-9.539063 8.589844-12.265625 2.714843-1.796875 5.667968-2.71875 8.585937-2.71875 1.203125 0 2.402344.160156 3.570313.476562 8.632812 2.34375 13.375 12.667969 10.566406 23.011719s-12.117188 16.851563-20.75 14.507813c-8.632813-2.34375-13.371094-12.667969-10.5625-23.011719zm0 0"/><path d="m100.285156 70.605469c1.441406 0 2.902344-.117188 4.363282-.363281 15.65625-2.632813 26.039062-18.789063 23.144531-36.015626-1.375-8.171874-5.511719-15.417968-11.652344-20.410156-6.417969-5.214844-14.230469-7.371094-21.992187-6.0625-7.765626 1.300782-14.441407 5.890625-18.800782 12.917969-4.175781 6.722656-5.714844 14.925781-4.34375 23.097656 2.625 15.617188 15.273438 26.835938 29.28125 26.835938zm-12.230468-42.046875c2.0625-3.324219 5.105468-5.472656 8.570312-6.058594.628906-.105469 1.261719-.15625 1.898438-.15625 2.851562 0 5.699218 1.0625 8.183593 3.082031 3.316407 2.691407 5.566407 6.699219 6.335938 11.277344 1.527343 9.097656-3.351563 17.523437-10.875 18.789063-7.523438 1.261718-14.886719-5.105469-16.414063-14.203126-.769531-4.578124.046875-9.101562 2.300782-12.730468zm0 0"/><path d="m48.007812 95.574219c1.476563.257812 2.941407.382812 4.386719.382812 5.324219 0 10.339844-1.726562 14.457031-5.027343 10.503907-8.4375 11.539063-24.648438 2.308594-36.140626-4.359375-5.429687-10.378906-9.050781-16.945312-10.191406-6.921875-1.203125-13.613282.449219-18.84375 4.648438-5.226563 4.199218-8.285156 10.375-8.601563 17.394531-.300781 6.65625 1.933594 13.316406 6.292969 18.746094 4.359375 5.425781 10.378906 9.046875 16.945312 10.1875zm-5.269531-34.667969c1.414063-1.136719 3.203125-1.726562 5.152344-1.726562.574219 0 1.164063.050781 1.761719.152343 2.976562.519531 5.765625 2.230469 7.84375 4.820313 4.066406 5.0625 4.0625 11.84375-.011719 15.117187-1.832031 1.46875-4.292969 2.027344-6.914063 1.570313-2.980468-.515625-5.765624-2.226563-7.847656-4.820313-2.082031-2.589843-3.152344-5.679687-3.015625-8.699219.125-2.667968 1.199219-4.941406 3.03125-6.414062zm0 0"/><path d="m49.839844 107.351562c-3.25-5.816406-8.660156-10.296874-15.226563-12.613281-6.566406-2.3125-13.589843-2.21875-19.769531.273438-6.515625 2.625-11.335938 7.554687-13.566406 13.878906-4.476563 12.707031 3.1875 27.027344 17.085937 31.929687 3.160157 1.113282 6.421875 1.667969 9.644531 1.667969 3.484376 0 6.917969-.644531 10.128907-1.941406 6.515625-2.621094 11.332031-7.550781 13.5625-13.878906 2.230469-6.324219 1.570312-13.183594-1.859375-19.316407zm-12.246094 14.34375c-.78125 2.214844-2.574219 3.984376-5.046875 4.980469-2.804687 1.132813-6.078125 1.144531-9.210937.039063-6.121094-2.15625-9.691407-7.921875-7.953126-12.851563.78125-2.214843 2.574219-3.984375 5.046876-4.980469 1.421874-.570312 2.957031-.855468 4.539062-.855468 1.542969 0 3.121094.269531 4.671875.816406 3.132813 1.105469 5.671875 3.167969 7.144531 5.808594 1.304688 2.324218 1.589844 4.828125.808594 7.042968zm0 0"/><path d="m416.078125 165.582031c-27.460937-15.226562-62.4375-17.1875-89.109375-5-3.753906 1.714844-5.410156 6.152344-3.695312 9.910157 1.71875 3.753906 6.15625 5.40625 9.910156 3.691406 22.5-10.28125 52.191406-8.523438 75.644531 4.476562 36.644531 20.316406 39.695313 68.585938 30.332031 106.984375-6.773437 27.773438-15.855468 59.621094-31.851562 85.292969-14.914063 23.929688-33.082032 38.160156-55.539063 43.503906-14.3125 3.40625-30.210937-.339844-41.492187-9.777344-11.285156-9.433593-17.789063-24.414062-16.976563-39.101562.605469-10.871094 4.835938-21.296875 9.316407-32.339844 2.761718-6.804687 5.617187-13.839844 7.660156-21.179687 5.4375-19.535157 1.007812-39.0625-3.273438-57.945313-4.984375-21.960937-9.6875-42.707031 2.386719-60.390625 2.332031-3.410156 1.453125-8.0625-1.957031-10.394531-3.410156-2.328125-8.0625-1.449219-10.390625 1.957031-15.757813 23.070313-10.097657 48.011719-4.628907 72.136719 4.054688 17.859375 7.878907 34.726562 3.453126 50.628906-1.8125 6.515625-4.386719 12.851563-7.109376 19.5625-4.742187 11.691406-9.648437 23.777344-10.390624 37.136719-1.070313 19.304687 7.480468 39 22.316406 51.40625 11.210937 9.375 25.890625 14.476563 40.511718 14.472656 4.722657 0 9.441407-.53125 14.035157-1.621093 26.113281-6.214844 47.90625-23.085938 64.769531-50.144532 17.117188-27.464844 26.636719-60.738281 33.6875-89.660156 5.777344-23.695312 6.449219-47.878906 1.890625-68.097656-5.664063-25.128906-19.324219-44.324219-39.5-55.507813zm0 0"/><path d="m299.742188 168.804688c8.640624-3.292969 15.277343-10.132813 18.691406-19.257813 3.285156-8.789063 3.164062-18.699219-.34375-27.898437-7.371094-19.335938-27.597656-29.644532-45.082032-22.980469-8.640624 3.296875-15.277343 10.136719-18.691406 19.261719-3.285156 8.789062-3.164062 18.695312.34375 27.898437 5.851563 15.347656 19.796875 25.003906 34.046875 25.003906 3.703125 0 7.425781-.652343 11.035157-2.027343zm-31.105469-28.304688c-2.210938-5.800781-2.324219-11.957031-.3125-17.335938 1.886719-5.042968 5.441406-8.777343 10.007812-10.519531 9.785157-3.726562 21.347657 2.699219 25.78125 14.328125 2.210938 5.800782 2.320313 11.957032.308594 17.335938-1.882813 5.042968-5.4375 8.78125-10.007813 10.523437-9.777343 3.726563-21.34375-2.703125-25.777343-14.332031zm0 0"/><path d="m355.28125 148.054688c1.746094 0 3.511719-.160157 5.28125-.496094 16.890625-3.195313 27.769531-20.953125 24.246094-39.589844-3.519532-18.632812-20.125-31.191406-37.023438-28.003906-16.894531 3.195312-27.773437 20.953125-24.25 39.589844 3.15625 16.683593 16.796875 28.5 31.746094 28.5zm-4.71875-53.390626c.847656-.164062 1.695312-.238281 2.539062-.238281 7.882813 0 15.214844 6.808594 17.011719 16.324219 1.992188 10.53125-3.539062 20.449219-12.328125 22.113281-8.789062 1.660157-17.5625-5.554687-19.550781-16.089843-1.992187-10.527344 3.539063-20.449219 12.328125-22.109376zm0 0"/><path d="m411.207031 154.378906c2.125.53125 4.261719.785156 6.375.785156 13.210938 0 25.585938-9.9375 29.234375-24.546874 4.234375-16.949219-4.855468-33.871094-20.257812-37.714844-15.398438-3.84375-31.375 6.8125-35.609375 23.761718-2.007813 8.039063-1.109375 16.339844 2.523437 23.367188 3.796875 7.34375 10.097656 12.441406 17.734375 14.347656zm-5.746093-34.089844c1.953124-7.824218 8.1875-13.222656 14.671874-13.222656.933594 0 1.871094.113282 2.804688.347656 7.398438 1.847657 11.605469 10.628907 9.371094 19.578126-2.234375 8.949218-10.074219 14.722656-17.476563 12.878906-3.410156-.851563-6.277343-3.234375-8.074219-6.710938-1.960937-3.792968-2.421874-8.363281-1.296874-12.871094zm0 0"/><path d="m440.058594 159.945312c-.234375 7.019532 2.332031 13.414063 7.214844 18.011719 4.3125 4.054688 9.914062 6.222657 15.976562 6.222657.808594 0 1.625-.039063 2.445312-.117188 6.632813-.625 12.917969-3.761719 17.6875-8.835938 10.101563-10.734374 10.335938-26.976562.523438-36.210937-9.8125-9.226563-26.011719-8.003906-36.109375 2.730469-4.773437 5.074218-7.519531 11.535156-7.738281 18.199218zm18.628906-7.949218c2.625-2.789063 6.042969-4.261719 9.183594-4.261719 2.179687 0 4.230468.710937 5.789062 2.175781 3.804688 3.582032 3.28125 10.339844-1.167968 15.070313-2.277344 2.421875-5.1875 3.910156-8.199219 4.191406-2.648438.253906-5.058594-.496094-6.769531-2.105469-1.710938-1.609375-2.605469-3.964844-2.515626-6.628906.097657-3.023438 1.40625-6.023438 3.679688-8.441406zm0 0"/><path d="m511.242188 200.988281c-1.730469-6.480469-6.148438-11.769531-12.4375-14.894531-5.96875-2.96875-12.960938-3.609375-19.691407-1.816406-6.726562 1.792968-12.46875 5.835937-16.167969 11.382812-3.894531 5.84375-5.089843 12.632813-3.359374 19.113282 2.863281 10.722656 13.148437 17.703124 24.648437 17.703124 2.457031 0 4.96875-.320312 7.476563-.988281 14.242187-3.800781 23.003906-17.484375 19.53125-30.5zm-23.386719 16.046875c-6.277344 1.675782-12.472657-1.070312-13.820313-6.117187-.605468-2.269531-.125-4.742188 1.355469-6.960938 1.679687-2.515625 4.371094-4.375 7.578125-5.230469 1.230469-.328124 2.472656-.492187 3.683594-.492187 1.945312 0 3.828125.421875 5.496094 1.25 2.386718 1.1875 4.035156 3.089844 4.640624 5.359375 1.347657 5.050781-2.660156 10.519531-8.933593 12.191406zm0 0"/></svg>