<svg height="512pt" viewBox="-18 0 512 512" width="512pt" xmlns="http://www.w3.org/2000/svg"><path d="m376.300781 7.222656c-4.007812-4.433594-9.804687-7.222656-16.238281-7.222656h-27.121094c-6.425781 0-12.210937 2.78125-16.222656 7.199219h-94.144531c-55.878907 0-101.339844 45.460937-101.339844 101.34375v49.378906c-7.730469 2.195313-15.28125 5.089844-22.609375 8.695313-3.71875 1.828124-5.25 6.324218-3.421875 10.039062 1.828125 3.71875 6.324219 5.246094 10.039063 3.417969 16.527343-8.125 34.304687-12.246094 52.839843-12.246094 50.421875 0 95.421875 31.765625 112.707031 78.386719h-225.359374c6.78125-18.25 17.925781-34.609375 32.601562-47.757813 3.085938-2.761719 3.347656-7.503906.585938-10.585937-2.765626-3.082032-7.503907-3.347656-10.589844-.582032-17.882813 16.015626-31.09375 36.300782-38.464844 58.925782h-3.957031c-14.117188 0-25.605469 11.484375-25.605469 25.605468v34.519532c0 14.117187 11.488281 25.605468 25.605469 25.605468h264.992187c14.117188 0 25.605469-11.488281 25.605469-25.605468v-34.519532c0-14.121093-11.488281-25.605468-25.605469-25.605468h-3.9375c-14.363281-44.234375-50.582031-77.476563-94.5-88.988282v-49.660156c0-16.234375 13.203125-29.441406 29.4375-29.441406h94.652344c4.019531 4.734375 10.007812 7.742188 16.6875 7.742188h6.066406v281.722656c-13.929687 3.382812-24.304687 15.949218-24.304687 30.902344 0 17.535156 14.265625 31.804687 31.800781 31.804687s31.804688-14.269531 31.804688-31.804687c0-14.953126-10.378907-27.519532-24.304688-30.902344v-281.722656h6.0625c6.667969 0 12.644531-3 16.664062-7.714844 15.71875.589844 28.324219 13.550781 28.324219 29.414062v227.667969c0 4.140625 3.359375 7.5 7.5 7.5s7.5-3.359375 7.5-7.5v-227.671875c0-22.34375-16.585937-40.867188-38.089843-43.957031v-41.050781c44.191406 3.734374 79.019531 40.847656 79.019531 85.988281v388.460937h-40.929688v-127.027344c0-4.140624-3.359375-7.496093-7.5-7.496093s-7.5 3.355469-7.5 7.496093v134.523438c0 4.144531 3.359375 7.5 7.5 7.5h55.925781c4.144532 0 7.5-3.355469 7.5-7.5v-395.957031c0-55.324219-44.558593-100.425781-99.675781-101.320313zm-85.703125 253.984375c5.847656 0 10.609375 4.761719 10.609375 10.613281v34.515626c0 5.851562-4.761719 10.609374-10.609375 10.609374h-264.992187c-5.847657 0-10.609375-4.757812-10.609375-10.609374v-34.515626c0-5.851562 4.761718-10.613281 10.609375-10.613281zm20.441406-198.078125h-89.441406c-24.5 0-44.433594 19.933594-44.433594 44.433594v46.628906c-6.257812-.898437-12.628906-1.363281-19.082031-1.363281-7.398437 0-14.6875.59375-21.851562 1.757813v-46.046876c0-47.609374 38.734375-86.34375 86.34375-86.34375h88.464843zm52.269532 335.359375c0 9.269531-7.539063 16.808594-16.804688 16.808594-9.269531 0-16.808594-7.542969-16.808594-16.808594s7.539063-16.804687 16.808594-16.804687c9.265625 0 16.804688 7.539062 16.804688 16.804687zm3.660156-334.519531c0 3.804688-3.097656 6.902344-6.90625 6.902344h-27.121094c-3.808594 0-6.90625-3.097656-6.90625-6.902344v-42.070312c0-3.804688 3.097656-6.902344 6.90625-6.902344h27.121094c3.808594 0 6.90625 3.097656 6.90625 6.902344zm0 0"/><path d="m71.804688 439.03125c-4.652344-4.53125-10.824219-6.96875-17.285157-6.886719-6.492187.085938-12.5625 2.699219-17.09375 7.351563-4.527343 4.652344-6.972656 10.792968-6.886719 17.285156l.316407 23.28125c.179687 13.292969 11.050781 23.980469 24.304687 23.980469h.335938c13.402344-.183594 24.160156-11.234375 23.976562-24.640625l-.316406-23.28125c-.085938-6.492188-2.695312-12.5625-7.351562-17.089844zm-16.511719 50.015625c-5.15625.089844-9.371094-4.050781-9.441407-9.1875l-.3125-23.28125c-.035156-2.488281.902344-4.839844 2.636719-6.621094 1.734375-1.785156 4.0625-2.785156 6.550781-2.816406.042969-.003906.085938-.003906.128907-.003906 2.4375 0 4.738281.9375 6.492187 2.640625 1.78125 1.734375 2.78125 4.0625 2.816406 6.546875l.316407 23.285156c.070312 5.132813-4.050781 9.367187-9.1875 9.4375zm0 0"/><path d="m114.710938 347.144531c-.109376 0-.222657 0-.335938.003907-6.492188.085937-12.5625 2.699218-17.089844 7.351562-4.53125 4.65625-6.976562 10.792969-6.886718 17.285156l.507812 37.664063c.179688 13.292969 11.050781 23.980469 24.304688 23.980469.109374 0 .222656 0 .335937-.003907 6.492187-.085937 12.5625-2.699219 17.089844-7.351562 4.53125-4.652344 6.976562-10.789063 6.886719-17.285157l-.507813-37.660156c-.183594-13.292968-11.050781-23.984375-24.304687-23.984375zm7.179687 68.46875c-1.734375 1.785157-4.0625 2.785157-6.546875 2.816407-5.164062.109374-9.371094-4.046876-9.441406-9.183594l-.511719-37.664063c-.03125-2.484375.902344-4.839843 2.640625-6.621093 1.734375-1.78125 4.058594-2.78125 6.546875-2.816407h.128906c5.078125 0 9.242188 4.09375 9.3125 9.1875l.511719 37.660157c.03125 2.488281-.90625 4.839843-2.640625 6.621093zm0 0"/><path d="m261.683594 432.144531c-13.355469-.171875-24.457032 10.574219-24.640625 23.976563l-.3125 23.285156c-.183594 13.402344 10.574219 24.453125 23.976562 24.636719.113281 0 .226563.003906.339844.003906 6.367187 0 12.375-2.441406 16.945313-6.890625 4.65625-4.527344 7.265624-10.597656 7.351562-17.089844l.316406-23.285156c.089844-6.492188-2.355468-12.628906-6.886718-17.285156-4.527344-4.652344-10.597657-7.265625-17.089844-7.351563zm8.667968 47.714844c-.035156 2.488281-1.035156 4.8125-2.816406 6.546875-1.785156 1.738281-4.101562 2.707031-6.625 2.640625-5.132812-.070313-9.253906-4.304687-9.183594-9.4375l.3125-23.285156c.035157-2.488281 1.035157-4.8125 2.816407-6.546875 1.753906-1.703125 4.054687-2.640625 6.496093-2.640625.042969 0 .085938 0 .128907.003906 2.488281.03125 4.8125 1.03125 6.546875 2.816406 1.734375 1.78125 2.671875 4.132813 2.640625 6.621094zm0 0"/><path d="m201.828125 347.148438c-6.5-.101563-12.632813 2.355468-17.285156 6.886718-4.652344 4.527344-7.265625 10.597656-7.351563 17.09375l-.511718 37.660156c-.089844 6.492188 2.355468 12.632813 6.886718 17.285157 4.527344 4.65625 10.597656 7.265625 17.089844 7.351562.113281.003907.226562.003907.339844.003907 6.367187 0 12.375-2.4375 16.949218-6.886719 4.652344-4.53125 7.265626-10.601563 7.351563-17.09375l.511719-37.664063c.085937-6.492187-2.359375-12.628906-6.886719-17.285156-4.53125-4.652344-10.601563-7.261719-17.09375-7.351562zm8.472656 62.097656c-.035156 2.488281-1.035156 4.8125-2.816406 6.546875s-4.148437 2.699219-6.625 2.636719c-2.484375-.03125-4.808594-1.03125-6.546875-2.816407-1.734375-1.78125-2.671875-4.132812-2.640625-6.621093l.511719-37.664063c.035156-2.484375 1.035156-4.808594 2.820312-6.546875 1.75-1.703125 4.050782-2.636719 6.492188-2.636719h.128906c2.488281.035157 4.8125 1.03125 6.546875 2.816407 1.734375 1.78125 2.671875 4.132812 2.640625 6.621093zm0 0"/></svg>