<svg height="512pt" viewBox="-52 0 512 512" width="512pt" xmlns="http://www.w3.org/2000/svg"><path d="m389.652344 104.644531h-42.433594c-4.144531 0-7.503906 3.359375-7.503906 7.507813 0 4.144531 3.359375 7.503906 7.503906 7.503906h42.433594c1.621094 0 2.9375 1.316406 2.9375 2.933594v58.425781h-96.789063v-58.425781c0-1.617188 1.316407-2.933594 2.933594-2.933594h13.460937c4.148438 0 7.507813-3.359375 7.507813-7.507812 0-4.144532-3.359375-7.503907-7.507813-7.503907h-13.460937c-9.894531 0-17.945313 8.050781-17.945313 17.945313v185.609375c0 42.453125-34.539062 76.992187-76.992187 76.992187-19.066406 0-37.359375-7.019531-51.511719-19.769531-3.078125-2.773437-7.824218-2.527344-10.597656.550781-2.773438 3.082032-2.527344 7.824219.550781 10.597656 16.914063 15.238282 38.777344 23.628907 61.558594 23.628907 50.730469 0 92-41.269531 92-92v-112.148438h96.789063v112.148438c0 104.101562-84.691407 188.792969-188.789063 188.792969s-188.789063-84.691407-188.789063-188.792969v-112.148438h96.792969v112.148438c0 13.472656 2.84375 26.457031 8.460938 38.59375 1.742187 3.761719 6.199219 5.402343 9.960937 3.660156 3.761719-1.742187 5.402344-6.203125 3.660156-9.964844-4.695312-10.144531-7.074218-21.007812-7.074218-32.289062v-185.609375c0-9.894532-8.050782-17.945313-17.945313-17.945313h-90.917969c-9.894531 0-17.945312 8.050781-17.945312 17.945313v185.609375c0 112.375 91.425781 203.800781 203.800781 203.800781s203.796875-91.425781 203.796875-203.800781v-185.609375c0-9.894532-8.050781-17.945313-17.945312-17.945313zm-374.644532 17.945313c0-1.617188 1.316407-2.933594 2.9375-2.933594h90.917969c1.617188 0 2.933594 1.316406 2.933594 2.933594v58.421875h-96.789063zm0 0"/><path d="m25.4375 91.054688c14.027344 0 25.4375-11.414063 25.4375-25.4375v-24.839844c0-14.023438-11.410156-25.4375-25.4375-25.4375s-25.4375 11.414062-25.4375 25.4375v24.835937c0 14.027344 11.410156 25.441407 25.4375 25.441407zm-10.429688-50.277344c0-5.75 4.679688-10.425782 10.429688-10.425782s10.429688 4.675782 10.429688 10.425782v24.835937c0 5.753907-4.679688 10.429688-10.429688 10.429688s-10.429688-4.679688-10.429688-10.429688zm0 0"/><path d="m101.371094 91.054688c14.027344 0 25.4375-11.414063 25.4375-25.4375v-40.179688c0-14.027344-11.414063-25.4375-25.4375-25.4375-14.027344 0-25.4375 11.410156-25.4375 25.4375v40.175781c0 14.027344 11.410156 25.441407 25.4375 25.441407zm-10.429688-65.617188c0-5.75 4.675782-10.429688 10.429688-10.429688 5.75 0 10.429687 4.679688 10.429687 10.429688v40.175781c0 5.753907-4.679687 10.429688-10.429687 10.429688-5.753906 0-10.429688-4.679688-10.429688-10.429688zm0 0"/><path d="m382.160156 15.339844c-14.027344 0-25.4375 11.410156-25.4375 25.4375v24.835937c0 14.027344 11.410156 25.4375 25.4375 25.4375s25.4375-11.410156 25.4375-25.4375v-24.835937c0-14.023438-11.410156-25.4375-25.4375-25.4375zm10.429688 50.273437c0 5.753907-4.679688 10.429688-10.429688 10.429688s-10.429687-4.679688-10.429687-10.429688v-24.835937c0-5.75 4.679687-10.425782 10.429687-10.425782s10.429688 4.675782 10.429688 10.425782zm0 0"/><path d="m306.226562 91.054688c14.027344 0 25.4375-11.414063 25.4375-25.4375v-40.179688c0-14.027344-11.410156-25.4375-25.4375-25.4375-14.027343 0-25.4375 11.410156-25.4375 25.4375v40.175781c0 14.027344 11.414063 25.441407 25.4375 25.441407zm-10.425781-65.617188c0-5.75 4.675781-10.429688 10.425781-10.429688 5.753907 0 10.429688 4.679688 10.429688 10.429688v40.175781c0 5.753907-4.675781 10.429688-10.429688 10.429688-5.75 0-10.425781-4.679688-10.425781-10.429688zm0 0"/></svg>