<svg height="511pt" viewBox="-149 0 511 511.99943" width="511pt" xmlns="http://www.w3.org/2000/svg"><path d="m106.578125 337.507812c-6.210937 0-12.367187.847657-18.292969 2.515626-3.988281 1.121093-6.308594 5.261718-5.1875 9.25 1.121094 3.984374 5.261719 6.304687 9.25 5.183593 4.605469-1.296875 9.394532-1.953125 14.230469-1.953125 28.886719 0 52.386719 23.5 52.386719 52.386719s-23.5 52.382813-52.386719 52.382813c-28.882813 0-52.382813-23.5-52.382813-52.382813 0-12.644531 4.5625-24.851563 12.851563-34.371094 2.714844-3.125 2.386719-7.859375-.734375-10.578125-3.125-2.71875-7.859375-2.390625-10.578125.730469-10.664063 12.253906-16.535156 27.957031-16.535156 44.21875 0 37.152344 30.226562 67.378906 67.378906 67.378906s67.378906-30.226562 67.378906-67.378906c0-37.15625-30.226562-67.382813-67.378906-67.382813zm0 0"/><path d="m200.761719 355.925781c-3.972657-7.464843-8.847657-14.453125-14.484375-20.777343-5.175782-5.808594-10.917969-10.617188-16.472656-15.269532-7.652344-6.410156-14.886719-12.46875-20.074219-20.585937-8.453125-13.226563-12.441407-28.996094-11.238281-44.367188.003906-.035156 2.3125-29.460937 4.992187-63.625 0 0 6.386719-81.398437 6.730469-85.773437.59375-7.570313 2.875-15.207032 6.78125-22.707032 4.136718-7.949218 6.324218-16.914062 6.324218-25.917968 0-1.191406-.035156-2.394532-.105468-3.582032-.242188-4.132812-3.777344-7.277343-7.925782-7.042968-4.132812.242187-7.285156 3.792968-7.042968 7.925781.054687.890625.082031 1.800781.082031 2.695313 0 6.699218-1.5625 13.09375-4.632813 18.996093-3.679687 7.058594-6.191406 14.28125-7.519531 21.542969h-58.707031c-1.328125-7.261719-3.839844-14.484375-7.519531-21.542969-3.070313-5.902343-4.628907-12.296875-4.628907-18.996093 0-11.640626 4.226563-22.664063 11.601563-30.25 11.160156-11.480469 30.53125-14.964844 47.109375-8.46875 5.011719 1.960937 9.449219 5.019531 13.191406 9.089843 2.800782 3.050781 7.542969 3.25 10.59375.449219 3.046875-2.800781 3.25-7.546875.445313-10.59375-5.296875-5.765625-11.609375-10.109375-18.761719-12.910156-22.035156-8.628906-48.078125-3.703125-63.328125 11.980468-10.074219 10.359376-15.847656 25.195313-15.847656 40.707032 0 9.003906 2.1875 17.96875 6.328125 25.917968 3.902344 7.5 6.183594 15.136719 6.777344 22.707032l6.730468 85.773437 3.070313 39.117188c1.171875 14.957031 1.917969 24.46875 1.917969 24.46875 1.210937 15.410156-2.78125 31.179687-11.230469 44.402343-5.191407 8.121094-12.421875 14.175782-20.078125 20.589844-5.554688 4.652344-11.292969 9.460938-16.46875 15.265625-5.640625 6.328125-10.515625 13.316407-14.488282 20.78125-8.203124 15.410157-12.484374 32.84375-12.382812 50.417969.164062 27.792969 11.683594 55.023438 31.609375 74.707031 10.117187 9.996094 21.683594 17.742188 34.378906 23.03125 12.625 5.257813 26.078125 7.917969 39.714844 7.917969 7.054687 0 14.160156-.714844 21.222656-2.148438 20.546875-4.167968 39.257813-14.128906 54.109375-28.800781 19.925782-19.683593 31.445313-46.914062 31.609375-74.707031.101563-17.570312-4.179687-35.007812-12.382812-50.417969zm-66.128907-243.492187c-1.78125 22.695312-3.761718 47.957031-5.554687 70.78125h-44.511719l-5.554687-70.78125zm36.367188 357.949218c-25.972656 25.660157-65.65625 33.640626-98.746094 19.855469-10.90625-4.539062-20.867187-11.222656-29.605468-19.855469-17.113282-16.910156-27.011719-40.28125-27.152344-64.125-.085938-15.09375 3.585937-30.0625 10.625-43.285156 3.410156-6.410156 7.597656-12.414062 12.441406-17.847656 4.449219-4.988281 9.527344-9.242188 14.90625-13.75 8.1875-6.855469 16.652344-13.949219 23.082031-24.007812 10.199219-15.957032 15.007813-35.007813 13.546875-53.652344l-4.351562-55.503906h42.15625c-2.476563 31.558593-4.34375 55.382812-4.351563 55.503906-1.464843 18.644531 3.347657 37.695312 13.546875 53.652344 6.429688 10.058593 14.894532 17.152343 23.082032 24.007812 5.375 4.503906 10.457031 8.761719 14.90625 13.753906 4.84375 5.429688 9.03125 11.433594 12.441406 17.84375 7.039062 13.222656 10.710937 28.191406 10.625 43.285156-.144532 23.84375-10.039063 47.214844-27.152344 64.125zm0 0"/></svg>