<svg height="511pt" viewBox="0 -11 511.99981 511" width="511pt" xmlns="http://www.w3.org/2000/svg"><path d="m511.832031 354.285156c-.355469-10.015625-8.484375-18.144531-18.503906-18.5-36.214844-1.289062-59.238281 5.09375-71.152344 9.867188-1.183593-2.441406-2.609375-5.152344-4.320312-8.105469-4.15625-7.175781-9.167969-14.367187-14.984375-21.523437 2.21875-10.03125 3.410156-20.441407 3.410156-31.125v-240.863282c0-24.007812-19.527344-43.535156-43.53125-43.535156h-307.101562c-24.003907 0-43.535157 19.527344-43.535157 43.535156v240.863282c0 47.945312 23.578125 90.472656 59.730469 116.644531h-19.609375c-28.800781 0-52.234375 23.429687-52.234375 52.234375v6.996094c0 16.179687 13.160156 29.339843 29.339844 29.339843 0 0 369.363281-.011719 372.425781-.011719 9.277344 0 19.753906-.898437 30.480469-3.546874 29.136718-7.191407 51.074218-24.601563 65.1875-51.726563.03125-.058594.0625-.117187.097656-.171875.003906-.003906.003906-.007812.007812-.011719 2.703126-4.472656 16.105469-29.371093 14.292969-80.359375zm-484.671875-310.25c0-15.710937 12.777344-28.488281 28.488282-28.488281h307.101562c15.707031 0 28.488281 12.777344 28.488281 28.488281v44.484375h-364.078125zm0 240.863282v-83.449219h241.878906c4.15625 0 7.523438-3.367188 7.523438-7.523438s-3.367188-7.523437-7.523438-7.523437h-241.878906v-82.839844h364.078125v82.839844h-87.429687c-4.152344 0-7.523438 3.367187-7.523438 7.523437s3.371094 7.523438 7.523438 7.523438h87.429687v83.449219c0 5.699218-.382812 11.3125-1.105469 16.820312-2.976562-3.066406-6.085937-6.121094-9.351562-9.164062-7.335938-6.832032-18.828125-6.832032-26.164062 0-15.871094 14.78125-28.34375 29.917968-37.078126 44.992187-1.707031 2.949219-3.132812 5.660156-4.3125 8.101563-11.925781-4.777344-34.957031-11.15625-71.15625-9.863282-10.019531.355469-18.148437 8.484375-18.503906 18.5-.625 17.511719.402344 33.105469 3.125 47.257813h-125.386718c-43.769532-20.625-74.144532-65.144531-74.144532-116.644531zm247.226563 171.5c-3.257813-2.578126-7.992188-2.027344-10.566407 1.234374-2.578124 3.257813-2.027343 7.988282 1.230469 10.566407 3.242188 2.566406 6.570313 4.839843 9.953125 6.867187h-245.664062c-7.882813 0-14.292969-6.414062-14.292969-14.292968v-6.996094c0-20.507813 16.679687-37.191406 37.1875-37.191406h178.152344c1.121093 3.699218 2.3125 7.074218 3.644531 10.257812 2 4.78125 4.421875 9.113281 6.746094 13.082031 2.101562 3.585938 6.707031 4.789063 10.292968 2.691407 3.585938-2.097657 4.789063-6.707032 2.691407-10.292969-2.058594-3.515625-4.191407-7.320313-5.851563-11.285157-1.234375-2.957031-2.34375-6.125-3.394531-9.691406-4.753906-16.167968-6.691406-34.660156-5.914063-56.527344.078126-2.167968 1.835938-3.925781 4.003907-4 20.183593-.714843 38.226562.996094 53.617187 5.097657 4.847656 1.292969 8.699219 2.640625 11.609375 3.808593-9.179687 29.160157-5.972656 56.960938 9.535157 82.632813 8.351562 13.832031 18.957031 24.613281 27.871093 32.183594-18.550781 1.632812-47.53125.304687-70.851562-18.144531zm95.679687 14.640624c-1.4375.996094-3.296875.996094-4.734375 0-56.960937-39.273437-49.140625-87.804687-43.140625-106.820312.125-.390625.230469-.773438.320313-1.136719.179687-.730469 1.929687-7.429687 8.050781-17.996093 7.984375-13.785157 19.527344-27.753907 34.304688-41.519532.792968-.742187 1.8125-1.109375 2.832031-1.109375s2.035156.367188 2.828125 1.109375c14.78125 13.765625 26.324218 27.734375 34.308594 41.519532 6.105468 10.546874 7.863281 17.234374 8.050781 17.988281.09375.390625.199219.761719.3125 1.117187 6.003906 19.042969 13.828125 67.570313-43.132813 106.847656zm121.628906-62.597656c-3.140624 11.792969-6.644531 17.773438-7.03125 18.417969-.195312.324219-.378906.644531-.566406 1.003906-8.652344 16.632813-34.570312 52.785157-94.046875 46.773438 8.9375-7.574219 19.59375-18.390625 27.980469-32.277344 15.503906-25.660156 18.710938-53.453125 9.53125-82.632813 2.914062-1.167968 6.765625-2.515624 11.609375-3.804687 13.125-3.496094 28.164063-5.261719 44.820313-5.261719 2.886718 0 5.820312.054688 8.800781.160156 2.167969.078126 3.925781 1.835938 4.003906 4 .71875 20.1875-1 38.226563-5.101563 53.621094zm0 0"/><path d="m376.050781 382.101562 14.328125-10.933593c3.304688-2.519531 3.9375-7.238281 1.417969-10.542969-2.519531-3.300781-7.238281-3.9375-10.542969-1.417969l-6.03125 4.601563v-15.109375c0-4.15625-3.367187-7.523438-7.523437-7.523438-4.152344 0-7.523438 3.367188-7.523438 7.523438v15.109375l-6.03125-4.601563c-3.304687-2.519531-8.023437-1.882812-10.542969 1.417969-2.519531 3.304688-1.886718 8.023438 1.417969 10.542969l14.328125 10.933593c.191406.628907.464844 1.238282.828125 1.8125v18.679688l-6.03125-4.601562c-3.304687-2.519532-8.023437-1.886719-10.542969 1.417968-2.519531 3.300782-1.886718 8.023438 1.417969 10.542969l14.328125 10.929687c.191406.628907.464844 1.238282.828125 1.8125v18.054688c0 4.152344 3.367188 7.523438 7.523438 7.523438s7.523437-3.371094 7.523437-7.523438v-18.054688c.363282-.574218.636719-1.183593.828125-1.808593l14.328125-10.933594c3.304688-2.519531 3.9375-7.238281 1.417969-10.542969-2.519531-3.304687-7.242187-3.9375-10.542969-1.417968l-6.03125 4.601562v-18.679688c.363282-.574218.636719-1.183593.828125-1.8125zm0 0"/></svg>