<svg height="512pt" viewBox="-99 0 512 512.00028" width="512pt" xmlns="http://www.w3.org/2000/svg"><path d="m312.832031 394.867188c-3.730469-28.972657-12.042969-51.234376-26.152343-70.058594-2.480469-3.304688-7.175782-3.976563-10.484376-1.496094-3.308593 2.480469-3.976562 7.171875-1.496093 10.480469 12.417969 16.5625 19.796875 36.441406 23.214843 62.492187-3.265624 1.085938-6.289062 2.234375-9.25 3.363282-10.875 4.140624-21.152343 8.054687-42.210937 8.054687-12.003906 0-20.503906-1.273437-27.609375-3.136719l-36.382812-166.28125 2.800781-12.792968h38.433593v39.425781c0 11.285156 4.730469 22.175781 12.980469 29.875 3.347657 3.125 9.761719 9.128906 15.078125 14.195312 2.996094 2.851563 7.734375 2.738281 10.585938-.257812 2.851562-2.992188 2.738281-7.730469-.253906-10.582031-5.367188-5.113282-11.824219-11.15625-15.191407-14.300782-5.226562-4.878906-8.226562-11.777344-8.226562-18.925781v-41.503906c4.515625-2.636719 7.566406-7.523438 7.566406-13.117188v-33.179687c0-8.378906-6.816406-15.195313-15.195313-15.195313h-31.871093l30.742187-140.507812c1.597656-7.300781-3.042968-14.542969-10.347656-16.140625l-22.660156-4.957032c-3.539063-.773437-7.164063-.125-10.210938 1.828126-3.050781 1.957031-5.15625 4.980468-5.929687 8.519531l-24.050781 109.921875-24.050782-109.921875c-.773437-3.539063-2.878906-6.566407-5.929687-8.519531-3.046875-1.953126-6.675781-2.605469-10.214844-1.828126l-22.65625 4.957032c-7.304687 1.597656-11.945313 8.839844-10.347656 16.140625l12.792969 58.46875c.882812 4.039062 4.875 6.601562 8.914062 5.710937 4.039062-.882812 6.597656-4.871094 5.714844-8.910156l-12.492188-57.085938 19.894532-4.351562 32.09375 146.675781h-20.847657l-11.269531-51.5c-.882812-4.039062-4.871094-6.589843-8.914062-5.714843-4.039063.882812-6.597657 4.875-5.714844 8.914062l10.566406 48.296875h-31.867188c-8.378906 0-15.195312 6.816406-15.195312 15.195313v33.179687c0 5.597656 3.046875 10.480469 7.566406 13.121094v41.5c0 7.148437-3 14.046875-8.222656 18.925781-4.480469 4.183594-12.832031 12.003906-18.4375 17.410156-9.214844 8.882813-15.800781 16.148438-21.351562 23.554688-14.113282 18.820312-22.421876 41.082031-26.15625 70.066406-.101563.78125-2.378907 19.382812 2.789062 41.664062 6.960938 30.003907 24.140625 52.585938 49.6875 65.308594 13.335938 6.644532 28.597656 10.152344 44.132812 10.152344h119.027344c15.539063 0 30.800782-3.507812 44.136719-10.152344 25.542969-12.722656 42.722656-35.304687 49.683594-65.304687 5.167969-22.28125 2.890625-40.882813 2.789062-41.675781zm-110.558593 4.03125c-6.46875-2.449219-13.257813-4.859376-22.253907-6.445313l-36.53125-166.960937h20.847657zm-68.871094-6.449219c-8.996094 1.585937-15.785156 3.996093-22.253906 6.445312l27.472656-125.582031 10.425781 47.640625zm30.921875-1.667969c-2.40625-.109375-4.933594-.171875-7.625-.171875-2.679688 0-5.203125.058594-7.601563.167969l7.613282-34.796875zm30.761719-375.53125 19.894531 4.351562-31.140625 142.324219h-18.085938l-1.378906-6.308593zm-112.925782 161.871094c0-.125.101563-.222656.222656-.222656h148.652344c.125 0 .222656.097656.222656.222656v33.179687c0 .121094-.101562.21875-.222656.21875h-148.652344c-.121093 0-.222656-.097656-.222656-.21875zm-43.4375 156.671875c5.054688-6.742188 11.148438-13.453125 19.765625-21.757813 4.039063-3.894531 10.691407-10.179687 18.257813-17.242187 8.25-7.699219 12.980468-18.585938 12.980468-29.871094v-39.429687h38.433594l2.796875 12.792968-36.378906 166.28125c-7.105469 1.863282-15.605469 3.136719-27.617187 3.136719-21.058594 0-31.332032-3.910156-42.207032-8.054687-2.957031-1.125-5.980468-2.277344-9.246094-3.363282 3.417969-26.058594 10.796876-45.929687 23.214844-62.492187zm214.960938 154.652343c-11.273438 5.613282-24.226563 8.582032-37.460938 8.582032h-119.027344c-13.230468 0-26.183593-2.96875-37.457031-8.582032-21.621093-10.765624-35.648437-29.253906-41.699219-54.949218-1.867187-7.933594-2.652343-15.386719-2.929687-21.480469 1.433594.527344 2.863281 1.070313 4.316406 1.625 11.664063 4.441406 23.722657 9.035156 47.535157 9.035156 23.816406 0 35.875-4.59375 47.539062-9.039062 10.875-4.140625 21.148438-8.054688 42.203125-8.054688 21.058594 0 31.332031 3.914063 42.210937 8.054688 11.664063 4.445312 23.726563 9.039062 47.539063 9.039062s35.875-4.59375 47.542969-9.035156c1.453125-.554687 2.882812-1.097656 4.316406-1.625-.277344 6.09375-1.066406 13.546875-2.933594 21.480469-6.046875 25.695312-20.078125 44.183594-41.695312 54.949218zm0 0"/></svg>