<svg height="512pt" viewBox="0 -17 512 512" width="512pt" xmlns="http://www.w3.org/2000/svg"><path d="m503.050781 9.359375c-5.6875-4.421875-12.953125-5.9375-19.933593-4.160156l-85.589844 21.789062c-37.433594-8.828125-98.359375-15.546875-149.820313-20.050781-23.109375-2.496094-46.296875-4.3125-69.5-5.632812-12.257812-.699219-24.378906-1.304688-36.632812-1.304688-4.613281 0-9.25.230469-13.839844.679688-.238281.019531-.476563.039062-.714844.0625-22.027343 2.257812-43.167969 9.699218-61.753906 21.640624-5.996094 3.851563-11.699219 8.152344-17.050781 12.855469-30.394532 26.71875-48.214844 65.851563-48.214844 106.335938 0 60.605469 38.28125 112.429687 91.925781 132.582031.132813.058594.257813.136719.390625.1875 7.296875 2.710938 15.070313 4.824219 22.984375 6.308594.085938 1.59375.164063 2.957031.222657 3.976562.050781.859375.082031 1.46875.097656 1.765625.777344 15.566407 5.121094 30.261719 9.324218 44.476563 1.398438 4.726562 2.820313 9.550781 4.101563 14.382812.039063.140625.078125.28125.117187.425782.027344.117187.058594.230468.089844.347656.75 2.863281 1.445313 5.730468 2.050782 8.582031 2.484374 11.652344 3.851562 24.21875 4.769531 36.53125.523437 7.03125.90625 14.085937 1.28125 21.066406.011719.246094.027343.492188.039062.738281v.003907c.003907.082031.007813.164062.011719.246093l.039062.71875c1.929688 36.105469 31.722657 64.386719 67.828126 64.386719 36.101562 0 65.898437-28.289062 67.832031-64.410156 1.4375-26.863281-3.980469-53.660156-9.445313-75.039063 6.027344-1.140624 11.582032-4.230468 15.734375-8.871093 5.320313-5.957031 7.859375-13.921875 6.96875-21.859375l-3.992187-35.445313c8.78125-1.019531 17.5625-2.058593 26.355468-3.089843 33.058594-3.878907 64.9375-8.554688 88.078126-13.957032l86.3125 21.976563c1.914062.484375 3.851562.726562 5.769531.726562 5.078125 0 10.035156-1.679687 14.164062-4.886719 5.6875-4.425781 8.949219-11.089843 8.949219-18.296874v-227.5c0-7.203126-3.261719-13.867188-8.949219-18.289063zm-488.019531 132.214844c0-44.632813 23.234375-83.945313 58.238281-106.476563-14.199219 49.003906-19.007812 95.851563-14.277343 139.496094 2.988281 27.554688 9.664062 53.304688 19.859374 76.851562-38.09375-21.832031-63.820312-62.902343-63.820312-109.871093zm243.0625 271.511719c-1.507812 28.136718-24.707031 50.179687-52.820312 50.179687-25.746094 0-47.363282-18.484375-51.972657-43.203125h17.957031c7.859376 0 15.34375-3.386719 20.53125-9.285156 5.191407-5.90625 7.597657-13.761719 6.59375-21.5625-.53125-4.117188-4.3125-7.023438-8.414062-6.496094-4.121094.53125-7.027344 4.296875-6.496094 8.414062.457032 3.566407-.597656 7.015626-2.96875 9.714844-2.371094 2.695313-5.65625 4.179688-9.246094 4.179688h-19.234374c-.027344-.476563-.058594-.964844-.085938-1.441406-1.152344-20.289063-2.816406-40.691407-7.90625-60.445313-1.4375-5.589844-3.058594-11.09375-4.648438-16.472656-.011718-.039063-.023437-.078125-.035156-.117188h24.949219c6.164063 0 11.410156 4.617188 12.203125 10.738281l2.601562 20.078126c.53125 4.117187 4.300782 7.03125 8.417969 6.488281 4.117188-.535157 7.023438-4.304688 6.488281-8.421875l-2.597656-20.074219c-1.757812-13.589844-13.414062-23.839844-27.113281-23.839844h-29.230469c-2.496094-9.515625-4.042968-19.007812-4.59375-28.835937 3.726563.300781 7.4375.464844 11.101563.464844 23.203125 0 46.65625-1.730469 69.886719-3.410157 6.210937-.453125 12.40625-.976562 18.597656-1.53125 1.933594 12.398438 6.230468 24.675781 10.40625 36.589844 2.707031 7.714844 5.261718 15 7.191406 22.246094 5.621094 21.125 11.890625 48.855469 10.4375 76.042969zm10.089844-93.125c-2.261719 2.527343-5.296875 4.023437-8.628906 4.296874-1.542969-4.855468-3.242188-9.695312-4.902344-14.433593-3.84375-10.957031-7.796875-22.246094-9.597656-33.042969 7.464843-.753906 14.921874-1.570312 22.378906-2.40625l3.988281 35.425781c.421875 3.742188-.726563 7.351563-3.238281 10.160157zm121.1875-78.058594c-19.972656 4.394531-46.160156 8.300781-73.78125 11.671875-4.433594-46.101563-19.15625-105.550781-31.085938-148.40625-1.113281-3.996094-5.261718-6.335938-9.257812-5.226563-4 1.117188-6.339844 5.257813-5.226563 9.257813 11.796875 42.378906 26.359375 101.125 30.636719 146.132812.082031.863281-87.679688 8.382813-96.445312 9.070313-24.289063 1.902344-48.5625 5.246094-72.90625 3.296875-8.039063-.644531-15.613282-1.992188-23.417969-4.140625-.390625-.109375-.78125-.214844-1.171875-.324219-2.210938-.636719-4.394532-1.335937-6.558594-2.085937-9.867188-18.65625-21.910156-48.453126-26.21875-88.171876-4.96875-45.839843 1.121094-95.5625 18.113281-147.84375 12.960938-5.535156 27.03125-8.957031 41.769531-9.855468 2.574219-.152344 5.15625-.238282 7.753907-.238282 33.734375 0 67.875 3.734376 101.5 6.644532 5.015625 14.507812 11.308593 34.179687 17.199219 53.824218 1.195312 3.976563 5.390624 6.234376 9.359374 5.039063 3.976563-1.191406 6.234376-5.382813 5.042969-9.359375-5.125-17.089844-10.558593-34.214844-15.21875-48.042969 45.808594 4.230469 96.53125 10.082031 129.910157 17.40625v201.351563zm107.597656 13.246094c0 2.53125-1.148438 4.871093-3.144531 6.421874-1.996094 1.554688-4.546875 2.085938-6.996094 1.460938l-82.425781-20.984375v-201.292969l82.425781-20.984375c2.445313-.621093 5-.09375 6.996094 1.457031 1.996093 1.554688 3.144531 3.894532 3.144531 6.421876zm0 0"/><path d="m172.757812 67.378906c-40.910156 0-74.195312 33.285156-74.195312 74.195313 0 40.910156 33.285156 74.195312 74.195312 74.195312 40.914063 0 74.195313-33.28125 74.195313-74.195312 0-40.910157-33.285156-74.195313-74.195313-74.195313zm0 133.359375c-32.621093 0-59.160156-26.542969-59.160156-59.164062 0-32.621094 26.539063-59.160157 59.160156-59.160157 32.621094 0 59.164063 26.539063 59.164063 59.160157 0 32.621093-26.542969 59.164062-59.164063 59.164062zm0 0"/><path d="m154.820312 121.632812h35.875c4.152344 0 7.515626-3.363281 7.515626-7.515624 0-4.152344-3.363282-7.519532-7.515626-7.519532h-35.875c-4.148437 0-7.515624 3.367188-7.515624 7.519532 0 4.152343 3.367187 7.515624 7.515624 7.515624zm0 0"/><path d="m190.695312 161.515625h-35.875c-4.152343 0-7.515624 3.367187-7.515624 7.519531s3.363281 7.515625 7.515624 7.515625h35.875c4.152344 0 7.515626-3.363281 7.515626-7.515625s-3.363282-7.519531-7.515626-7.519531zm0 0"/><path d="m203.636719 134.058594h-61.757813c-4.152344 0-7.515625 3.363281-7.515625 7.515625 0 4.152343 3.363281 7.519531 7.515625 7.519531h61.757813c4.152343 0 7.515625-3.367188 7.515625-7.519531 0-4.152344-3.363282-7.515625-7.515625-7.515625zm0 0"/></svg>