<svg height="512pt" viewBox="0 0 512.003 512" width="512pt" xmlns="http://www.w3.org/2000/svg"><path d="m491.476562 134.382812-25.6875-15.109374v-19.886719c0-4.136719-3.351562-7.484375-7.484374-7.484375-4.136719 0-7.488282 3.347656-7.488282 7.484375v10.6875l-52.046875-30.609375v-26.667969h52.046875v11.742187c0 4.132813 3.351563 7.484376 7.484375 7.484376 4.136719 0 7.488281-3.351563 7.488281-7.484376v-12.125h1.957032c7.007812 0 12.707031-5.699218 12.707031-12.707031v-27c0-7.003906-5.699219-12.707031-12.707031-12.707031h-85.910156c-7.007813 0-12.707032 5.703125-12.707032 12.707031v27c0 7.007813 5.699219 12.707031 12.707032 12.707031h1.960937v18.636719l-110.558594-65.023437c-10.632812-6.253906-23.84375-6.253906-34.476562 0l-218.238281 128.355468c-12.660157 7.445313-20.523438 21.191407-20.523438 35.878907 0 15.152343 7.863281 28.675781 21.035156 36.171875 8.863282 5.046875 18.84375 6.617187 28.394532 4.753906 1.175781 9.457031 6.113281 17.761719 13.265624 23.371094-8.234374 6.457031-13.539062 16.488281-13.539062 27.742187 0 11.25 5.304688 21.28125 13.539062 27.738281-8.234374 6.457032-13.539062 16.488282-13.539062 27.742188 0 11.25 5.304688 21.28125 13.539062 27.742188-8.234374 6.457031-13.539062 16.488281-13.539062 27.738281 0 11.253906 5.304688 21.285156 13.539062 27.742187-8.234374 6.457032-13.539062 16.488282-13.539062 27.742188 0 8.175781 2.800781 15.699218 7.488281 21.683594-13.359375 4.0625-23.105469 16.492187-23.105469 31.164062v13.453125c0 9.160156 7.449219 16.613281 16.613282 16.613281h411.703125c9.160156 0 16.609375-7.453125 16.609375-16.613281v-13.453125c0-14.671875-9.746094-27.101562-23.105469-31.164062 4.6875-5.980469 7.488281-13.507813 7.488281-21.683594 0-11.253906-5.304687-21.285156-13.539062-27.742188 8.234375-6.457031 13.539062-16.488281 13.539062-27.742187 0-11.25-5.304687-21.28125-13.539062-27.738281 8.234375-6.460938 13.539062-16.492188 13.539062-27.742188 0-11.253906-5.304687-21.285156-13.539062-27.742188 8.234375-6.457031 13.539062-16.488281 13.539062-27.738281 0-11.253906-5.304687-21.285156-13.539062-27.742187 7.148437-5.609375 12.085937-13.910156 13.261718-23.367188 2.578126.503906 5.1875.765625 7.796876.765625 7.0625 0 14.128906-1.835937 20.601562-5.519531 13.171875-7.496094 21.035156-21.023438 21.035156-36.175781-.003906-14.6875-7.867187-28.433594-20.527344-35.878907zm-107.378906-119.410156h81.386719v22.472656h-81.386719zm-42.015625 127.511719 62.890625 37.347656c-.667968.558594-297.269531.554688-297.9375-.003906l62.878906-37.34375zm-146.957031-14.972656 60.875-36.152344 60.875 36.152344zm-75.472656 79.304687c0-3.566406-.542969-7.003906-1.53125-10.253906h275.761718c-.992187 3.246094-1.535156 6.6875-1.535156 10.253906 0 11.253906 5.304688 21.285156 13.539063 27.742188-.203125.160156-.398438.332031-.597657.496094h-298.578124c-.199219-.164063-.394532-.335938-.597657-.496094 8.234375-6.460938 13.539063-16.488282 13.539063-27.742188zm287.664062 221.929688c0-10.96875 8.761719-19.914063 19.652344-20.246094.210938.003906.417969.015625.628906.015625.210938 0 .417969-.011719.628906-.015625 10.890626.335938 19.648438 9.277344 19.648438 20.246094 0 11.179687-9.097656 20.277344-20.277344 20.277344-11.183594 0-20.28125-9.097657-20.28125-20.277344zm19.652344-186.695313c.210938.003907.417969.015625.628906.015625.210938 0 .417969-.011718.628906-.015625 10.890626.335938 19.648438 9.277344 19.648438 20.25 0 10.972657-8.765625 19.917969-19.664062 20.246094-.203126-.003906-.40625-.015625-.613282-.015625-.207031 0-.410156.011719-.617187.015625-10.894531-.328125-19.664063-9.273437-19.664063-20.246094 0-10.972656 8.761719-19.914062 19.652344-20.25zm-19.652344-35.234375c0-8.226562 4.9375-15.296875 11.996094-18.46875l28.496094 16.921875c.039062.511719.066406 1.027344.066406 1.546875 0 10.972656-8.761719 19.914063-19.652344 20.25-.207031-.003906-.414062-.019531-.625-.019531-.214844 0-.421875.015625-.628906.019531-10.890625-.339844-19.652344-9.277344-19.652344-20.25zm19.664063 90.71875c.207031 0 .410156.015625.617187.015625.207032 0 .410156-.011719.613282-.015625 10.898437.328125 19.664062 9.273438 19.664062 20.246094 0 10.96875-8.757812 19.914062-19.648438 20.246094-.210937-.003906-.417968-.015625-.628906-.015625-.210937 0-.417968.011719-.628906.015625-10.890625-.335938-19.652344-9.277344-19.652344-20.246094 0-10.972656 8.769532-19.917969 19.664063-20.246094zm-.011719 55.480469c.210938.003906.417969.015625.628906.015625.210938 0 .417969-.011719.625-.015625 10.890625.335937 19.652344 9.277344 19.652344 20.246094 0 10.972656-8.757812 19.914062-19.648438 20.25-.210937-.003907-.417968-.015625-.628906-.015625-.210937 0-.417968.011718-.628906.015625-10.890625-.335938-19.652344-9.277344-19.652344-20.25 0-10.96875 8.761719-19.910157 19.652344-20.246094zm-309.527344-102.992187h44.585938v39.117187h-54.828125c7.605469-6.472656 12.453125-16.09375 12.453125-26.839844 0-4.320312-.785156-8.453125-2.210938-12.277343zm-.554687 54.085937h45.140625v38.492187h-52.640625c6.335937-6.375 10.265625-15.144531 10.265625-24.820312 0-4.847656-.988282-9.464844-2.765625-13.671875zm-.925781 53.460937h46.066406v39.113282h-51.324219c5.558594-6.230469 8.949219-14.429688 8.949219-23.421875 0-5.632813-1.328125-10.964844-3.691406-15.691407zm219.039062 91.453126h-15.003906v-122.933594c0-35.285156-28.710938-63.992188-63.996094-63.992188s-63.992188 28.707032-63.992188 63.992188c0 4.136718 3.347657 7.488281 7.484376 7.488281 4.132812 0 7.484374-3.351563 7.484374-7.488281 0-27.027344 21.992188-49.023438 49.023438-49.023438s49.023438 21.996094 49.023438 49.023438v122.933594h-98.046876v-89.230469c0-4.132813-3.351562-7.484375-7.484374-7.484375-4.136719 0-7.484376 3.351562-7.484376 7.484375v89.230469h-15.007812v-199h158zm14.972656 0v-37.367188h46.816406c-2.824218 5.0625-4.445312 10.886719-4.445312 17.089844 0 7.542968 2.390625 14.539062 6.441406 20.277344zm54.828125-159.882813h-54.828125v-39.117187h44.585938c-1.425782 3.824218-2.210938 7.957031-2.210938 12.277343 0 10.746094 4.847656 20.367188 12.453125 26.839844zm-9.6875 14.96875c-1.777343 4.207031-2.765625 8.824219-2.765625 13.671875 0 9.675781 3.929688 18.441406 10.265625 24.820312h-52.640625v-38.492187zm.925781 53.460937c-2.363281 4.726563-3.691406 10.058594-3.691406 15.691407 0 8.988281 3.390625 17.191406 8.949219 23.421875h-51.324219v-39.113282zm-280.828124 54.085938h46.816406v37.367188h-48.816406c4.054687-5.738282 6.441406-12.730469 6.441406-20.277344 0-6.203125-1.617188-12.027344-4.441406-17.089844zm-31.433594-169.605469c.207031.003907.414062.015625.625.015625.214844 0 .421875-.011718.628906-.015625 10.890625.335938 19.652344 9.277344 19.652344 20.25 0 10.972657-8.769532 19.917969-19.664063 20.246094-.203125-.003906-.410156-.015625-.617187-.015625-.203125 0-.40625.011719-.613282.015625-10.894531-.328125-19.664062-9.273437-19.664062-20.246094 0-10.972656 8.761719-19.914062 19.652344-20.25zm-19.652344-35.234375c0-.523437.035156-1.039062.074219-1.550781l28.496093-16.921875c7.054688 3.171875 11.988282 10.246094 11.988282 18.472656 0 10.972656-8.761719 19.914063-19.652344 20.25-.207031-.003906-.414062-.019531-.628906-.019531-.210938 0-.417969.015625-.625.019531-10.890625-.339844-19.652344-9.277344-19.652344-20.25zm19.664062 90.71875c.203126 0 .410157.015625.613282.015625.207031 0 .410156-.011719.617187-.015625 10.894531.328125 19.664063 9.273438 19.664063 20.246094 0 10.96875-8.761719 19.914062-19.652344 20.246094-.207031-.003906-.414062-.015625-.628906-.015625-.210938 0-.417969.011719-.625.015625-10.890625-.335938-19.652344-9.277344-19.652344-20.246094 0-10.972656 8.765625-19.917969 19.664062-20.246094zm-.011718 55.480469c.207031.003906.417968.015625.625.015625.210937 0 .421875-.011719.628906-.015625 10.890625.335937 19.652344 9.277344 19.652344 20.246094 0 10.972656-8.761719 19.914062-19.652344 20.25-.207031-.003907-.414062-.015625-.628906-.015625-.210938 0-.417969.011718-.625.015625-10.890625-.335938-19.652344-9.277344-19.652344-20.25 0-10.96875 8.761719-19.910157 19.652344-20.246094zm0 55.480469c.207031.003906.414062.015625.625.015625.214844 0 .421875-.011719.628906-.015625 10.890625.335937 19.652344 9.277344 19.652344 20.25 0 11.179687-9.097656 20.277344-20.277344 20.277344h-.003906c-11.179688 0-20.277344-9.097657-20.277344-20.277344 0-10.96875 8.761719-19.914063 19.652344-20.25zm379.714844 73.097656v13.453125c0 .90625-.734376 1.640625-1.640626 1.640625h-411.703124c-.90625 0-1.640626-.734375-1.640626-1.640625v-13.453125c0-9.703125 7.894532-17.597656 17.59375-17.597656h379.796876c9.699218 0 17.59375 7.894531 17.59375 17.597656zm20.066406-288.167969c-8.433594 4.800781-18.449219 4.710938-26.792969-.246093l-111.722656-66.347657-85.21875-50.617187c-2.359375-1.402344-5.289063-1.402344-7.644531 0l-84.648438 50.273437-112.296875 66.691407c-8.34375 4.953124-18.359375 5.046874-26.792969.246093-8.4375-4.800781-13.46875-13.460937-13.46875-23.164062 0-9.40625 5.035156-18.210938 13.140625-22.976563l218.238281-128.351562c5.953126-3.5 13.34375-3.5 19.296876 0l218.238281 128.351562c8.105469 4.769532 13.140625 13.570313 13.140625 22.976563 0 9.703125-5.03125 18.363281-13.46875 23.164062zm0 0"/></svg>