<svg height="512pt" viewBox="-39 0 512 512.0005" width="512pt" xmlns="http://www.w3.org/2000/svg"><path d="m259.972656 192.394531c-3.578125-2.074219-8.164062-.855469-10.238281 2.726563-.609375 1.046875-1.691406 1.675781-2.898437 1.675781-1.207032 0-2.292969-.628906-2.898438-1.675781-2.074219-3.582032-6.660156-4.804688-10.238281-2.730469-3.582031 2.074219-4.804688 6.65625-2.730469 10.238281 3.269531 5.644532 9.347656 9.152344 15.867188 9.152344 6.515624 0 12.59375-3.507812 15.863281-9.148438 2.074219-3.582031.855469-8.164062-2.726563-10.238281zm0 0"/><path d="m200.710938 192.394531c-3.582032-2.074219-8.167969-.855469-10.242188 2.726563-.605469 1.046875-1.691406 1.675781-2.898438 1.675781-1.207031 0-2.289062-.628906-2.898437-1.675781-2.070313-3.582032-6.65625-4.804688-10.234375-2.730469-3.582031 2.074219-4.804688 6.65625-2.730469 10.238281 3.269531 5.644532 9.347657 9.152344 15.867188 9.152344 6.515625 0 12.59375-3.507812 15.863281-9.148438 2.074219-3.582031.851562-8.164062-2.726562-10.238281zm0 0"/><path d="m22.347656 237.4375c5.820313-.074219 11.257813-2.417969 15.316406-6.585938 4.058594-4.171874 6.25-9.671874 6.171876-15.488281l-.269532-19.792969c-.078125-5.820312-2.417968-11.257812-6.589844-15.316406-4.167968-4.058594-9.667968-6.277344-15.488281-6.171875-12.011719.164063-21.648437 10.070313-21.48437475 22.078125l.26562475 19.792969c.082031 5.820313 2.421875 11.257813 6.589844 15.316406 4.097656 3.988281 9.480469 6.171875 15.1875 6.171875.097656 0 .199219 0 .300781-.003906zm-7.09375-21.6875-.269531-19.792969c-.050781-3.746093 2.957031-6.839843 6.707031-6.890625h.09375c1.78125 0 3.460938.683594 4.742188 1.925782 1.300781 1.269531 2.03125 2.964843 2.054687 4.78125l.269531 19.792968c.027344 1.816406-.660156 3.53125-1.925781 4.835938-1.265625 1.300781-2.964843 2.03125-4.78125 2.054687-1.804687-.011719-3.53125-.660156-4.835937-1.925781-1.300782-1.265625-2.03125-2.964844-2.054688-4.78125zm0 0"/><path d="m73.097656 177.414062c.101563 0 .199219 0 .296875-.003906h.003907c12.007812-.160156 21.648437-10.066406 21.484374-22.078125l-.433593-32.015625c-.078125-5.816406-2.417969-11.257812-6.589844-15.316406-4.097656-3.988281-9.476563-6.171875-15.183594-6.171875-.101562 0-.203125 0-.304687 0-5.816406.078125-11.257813 2.417969-15.316406 6.589844-4.058594 4.171875-6.25 9.671875-6.171876 15.488281l.433594 32.015625c.164063 11.914063 9.90625 21.492187 21.78125 21.492187zm-5.304687-58.542968c1.269531-1.304688 2.964843-2.035156 4.78125-2.058594h.09375c1.78125 0 3.464843.683594 4.742187 1.925781 1.300782 1.269531 2.03125 2.964844 2.058594 4.78125l.433594 32.015625c.050781 3.75-2.957032 6.84375-6.707032 6.894532-3.726562.050781-6.84375-2.960938-6.890624-6.710938l-.4375-32.015625c-.023438-1.816406.660156-3.53125 1.925781-4.832031zm0 0"/><path d="m411.691406 174.082031c-5.785156-.113281-11.316406 2.113281-15.488281 6.171875s-6.511719 9.5-6.589844 15.316406l-.269531 19.792969c-.078125 5.816407 2.113281 11.316407 6.171875 15.488281 4.058594 4.171876 9.5 6.511719 15.316406 6.589844h.304688c5.707031 0 11.085937-2.183594 15.183593-6.171875 4.171876-4.058593 6.511719-9.496093 6.589844-15.316406l.269532-19.792969c.164062-12.007812-9.476563-21.914062-21.488282-22.078125zm6.234375 41.667969c-.023437 1.816406-.753906 3.511719-2.054687 4.78125-1.28125 1.242188-2.960938 1.925781-4.742188 1.925781-.03125 0-.0625-.023437-.09375 0-1.816406-.023437-3.515625-.753906-4.78125-2.058593-1.265625-1.300782-1.949218-3.015626-1.925781-4.832032l.269531-19.792968c.023438-1.816407.753906-3.515626 2.054688-4.78125 1.28125-1.246094 2.960937-1.925782 4.742187-1.925782h.09375c3.75.050782 6.757813 3.140625 6.707031 6.890625zm0 0"/><path d="m359.78125 177.410156c.101562.003906.203125.003906.300781.003906 11.875 0 21.617188-9.578124 21.777344-21.492187l.4375-32.015625c.078125-5.816406-2.113281-11.316406-6.171875-15.488281s-9.5-6.511719-15.316406-6.589844c-5.796875-.113281-11.320313 2.113281-15.488282 6.171875-4.171874 4.058594-6.511718 9.5-6.589843 15.316406l-.433594 32.015625c-.164063 12.011719 9.476563 21.917969 21.484375 22.078125zm-6.066406-53.890625c.023437-1.816406.753906-3.511719 2.054687-4.777343 1.304688-1.269532 3.023438-1.917969 4.835938-1.929688 1.816406.023438 3.515625.757812 4.78125 2.058594 1.265625 1.300781 1.953125 3.015625 1.925781 4.835937l-.433594 32.015625c-.050781 3.75-3.121094 6.738282-6.890625 6.707032-3.75-.050782-6.757812-3.140626-6.707031-6.890626zm0 0"/><path d="m406.199219 266.839844c-2.71875-3.117188-7.453125-3.445313-10.570313-.726563-3.121094 2.71875-3.445312 7.453125-.726562 10.570313l1.148437 1.320312c4.234375 4.859375 6.566407 11.085938 6.566407 17.535156v201.476563h-161.515626v-150.84375h52.867188c2.003906 0 3.925781-.804687 5.335938-2.234375l37.984374-38.53125c2.90625-2.949219 2.871094-7.691406-.078124-10.59375-2.945313-2.90625-7.6875-2.871094-10.59375.074219l-26.378907 26.757812c-1.175781-9.839843-7.484375-18.40625-16.765625-22.359375l-36.804687-15.683594c-.816407-.347656-1.34375-1.144531-1.34375-2.035156v-3.214844c17.609375-7.707031 32.535156-21.113281 41.875-37.285156h64.527343c7.722657 0 15.0625 3.339844 20.148438 9.179688l.640625.730468c2.726563 3.113282 7.460937 3.421876 10.574219.695313 3.109375-2.730469 3.421875-7.460937.691406-10.574219l-.621094-.710937c-7.917968-9.089844-19.375-14.304688-31.433594-14.304688h-57.800781c2.257813-6.847656 3.546875-13.980469 3.667969-21.234375.101562-5.910156.851562-11.65625 1.644531-17.742187.527344-4.046875 1.054688-8.074219 1.390625-12.136719.097656-1.214844.179688-2.429688.234375-3.601562 7.152344-12.253907 9.96875-26.347657 7.9375-39.980469-4.351562-29.183594-27.761719-48.433594-48.964843-60.125 7.542968-11.390625 9.367187-24.957031 4.714843-38.273438-6.714843-19.222656-25.558593-32.480469-46.898437-32.988281-.117188 0-.234375 0-.355469 0-21.511719.511719-40.519531 13.890625-47.292969 33.289062-2.425781 6.945313-3.085937 13.953126-2.089844 20.683594-1.546874.59375-3.074218 1.25-4.578124 1.976563-1.996094.964843-4.035157 1.984375-6.066407 3.027343-5.207031 2.6875-8.027343 8.167969-7.183593 13.964844.847656 5.804688 5.125 10.261719 10.894531 11.351563 1.75.332031 3.464843.683593 5.164062 1.046875-3.734375 2.71875-7.28125 5.628906-10.59375 8.730468-27.476562 25.714844-35.035156 52.847657-21.542969 76.765626.003907.089843.011719.183593.015626.273437.054687 1.289063.125 2.574219.234374 3.863281.855469 10.011719 2.867188 19.785156 3.035157 29.878906.125 7.253907 1.414062 14.382813 3.671875 21.230469h-59.507813c-12.058593 0-23.515625 5.214844-31.433593 14.308594l-24.191407 27.773437c-6.609375 7.589844-10.25 17.3125-10.25 27.375v208.96875c0 4.140626 3.355469 7.492188 7.492188 7.492188h387.035156c4.136719 0 7.492187-3.351562 7.492187-7.492188v-208.96875c0-10.066406-3.640624-19.785156-10.25-27.378906zm-121.820313-81.671875c-.8125 6.226562-1.652344 12.667969-1.769531 19.425781-.269531 16.0625-7.515625 31.859375-20.398437 44.484375-12.375 12.121094-28.660157 19.816406-44.769532 21.164063-16.105468-1.347657-32.390625-9.042969-44.765625-21.164063-12.882812-12.625-20.128906-28.421875-20.402343-44.484375-.046876-2.804688-.222657-5.554688-.46875-8.257812 35.703124-11.175782 64.277343-25.726563 84.972656-43.316407.902344-.765625 1.785156-1.550781 2.625-2.328125 1.523437-1.414062 3.964844-1.34375 5.445312.164063 7.863282 7.996093 16.925782 15.246093 24.925782 21.640625l1.554687 1.242187c4.296875 3.441407 8.75 6.675781 13.277344 9.664063-.074219.589844-.148438 1.183594-.226563 1.765625zm-134.378906-3.96875c-.007812-.078125-.019531-.15625-.027344-.238281-.304687-2.433594-.578125-4.820313-.785156-7.265626-.039062-.4375-.0625-.875-.089844-1.3125-.003906-.058593-.007812-.121093-.011718-.183593 2.117187-4.304688 20.308593-38.300781 76.835937-63.910157 14.851563 8.828126 26.105469 18.453126 34.261719 26.878907 10.03125 10.359375 16.710937 20.152343 20.785156 27.089843-.089844-.074218-.183594-.144531-.277344-.21875l-1.558594-1.246093c-8.046874-6.433594-16.363281-13.085938-23.597656-20.441407-7.109375-7.230468-18.917968-7.519531-26.328125-.640624-.683593.632812-1.402343 1.269531-2.132812 1.894531-18.65625 15.851562-44.554688 29.152343-77.074219 39.59375zm117.054688-87.628907c13.054687 9.742188 24.371093 22.898438 26.925781 40.027344.941406 6.332032.484375 12.816406-1.285157 19.042969-4.542968-7.441406-11.398437-17.105469-21.175781-27.304687-7.222656-7.53125-16.664062-15.929688-28.609375-24.015626 7.734375-2.863281 15.808594-5.449218 24.144532-7.75zm-82.90625-55.34375c3.921874-11.230468 15.742187-22.75 33.328124-23.242187 17.378907.488281 29.054688 11.859375 32.929688 22.945313 3.277344 9.382812 1.71875 18.742187-4.175781 26.621093-2.316407-1.019531-4.527344-1.933593-6.605469-2.75-.003906-.003906-.011719-.007812-.019531-.011719-.003907 0-.003907 0-.007813 0-2.527344-.996093-4.859375-1.855468-6.90625-2.5625-11.34375-3.941406-22.519531-6.257812-32.90625-8.171874-5.742187-1.058594-11.515625-1.257813-17.1875-.640626-.382812-3.972656.113282-8.078124 1.550782-12.1875zm-14.296876 31.214844c8.367188-4.042968 18.035157-5.339844 27.21875-3.648437 2.054688.378906 4.140626.777343 6.246094 1.195312-6.578125 2.003907-12.914062 4.488281-18.964844 7.4375-5.257812-1.492187-10.722656-2.855469-16.441406-4.035156.652344-.324219 1.300782-.640625 1.941406-.949219zm-4.0625 35.566406c6.308594-5.90625 13.5625-11.054687 21.570313-15.308593 10.417969-5.554688 21.90625-9.496094 34.132813-11.71875 3.945312-.714844 9.003906-1.53125 13.980468-1.703125 5.007813 2.039062 9.804688 4.308594 14.371094 6.785156-10.269531 3.3125-20.085938 7.070312-29.324219 11.222656-43.703125 19.625-66.640625 44.242188-77.359375 59.121094-3.242187-15.042969 4.324219-31.265625 22.628906-48.398438zm60.328126 392.007813h-19.054688v-33.34375c0-4.136719-3.355469-7.492187-7.492188-7.492187-4.136718 0-7.492187 3.355468-7.492187 7.492187v33.34375h-161.511719v-201.476563c0-6.445312 2.332032-12.675781 6.5625-17.535156l24.191406-27.777344c5.070313-5.820312 12.410157-9.160156 20.132813-9.160156h66.234375c9.332031 16.15625 24.238281 29.546875 41.828125 37.257813v3.242187c0 .886719-.527344 1.683594-1.347656 2.035156l-36.800781 15.679688c-9.761719 4.160156-16.246094 13.410156-16.917969 23.890625l-27.886719-28.289063c-2.90625-2.945312-7.648438-2.976562-10.59375-.074218-2.949219 2.90625-2.980469 7.648437-.078125 10.597656l37.988281 38.53125c1.40625 1.429688 3.328125 2.230469 5.335938 2.230469h52.863281v82.417969c0 4.136718 3.351563 7.492187 7.492187 7.492187 4.136719 0 7.492188-3.355469 7.492188-7.492187v-82.417969h19.054688zm-26.546876-165.828125h-50.203124v-6.207031c0-5.199219 3.09375-9.875 7.875-11.914063l36.800781-15.679687c5.816406-2.476563 9.738281-7.894531 10.359375-14.089844 4.082031.957031 8.253906 1.617187 12.484375 1.933594.183593.015625.371093.023437.558593.023437.183594 0 .371094-.007812.554688-.023437 4.214844-.3125 8.367188-.972657 12.433594-1.921875.628906 6.191406 4.546875 11.601562 10.359375 14.078125l36.804687 15.679687c4.78125 2.039063 7.871094 6.714844 7.871094 11.914063v6.207031zm0 0"/><path d="m302.167969 361.546875c-9.179688 0-16.648438 7.46875-16.648438 16.648437v10.160157c0 9.179687 7.46875 16.648437 16.648438 16.648437h47.117187c9.179688 0 16.648438-7.46875 16.648438-16.648437v-10.160157c0-9.179687-7.46875-16.648437-16.648438-16.648437zm48.78125 16.648437v10.160157c0 .917969-.746094 1.664062-1.664063 1.664062h-47.117187c-.917969 0-1.664063-.746093-1.664063-1.664062v-10.160157c0-.917968.746094-1.664062 1.664063-1.664062h47.117187c.917969 0 1.664063.746094 1.664063 1.664062zm0 0"/><path d="m131.011719 361.546875h-47.117188c-9.179687 0-16.648437 7.46875-16.648437 16.648437v10.160157c0 9.179687 7.46875 16.648437 16.648437 16.648437h47.117188c9.179687 0 16.652343-7.46875 16.652343-16.648437v-10.160157c0-9.179687-7.472656-16.648437-16.652343-16.648437zm1.664062 26.808594c0 .917969-.746093 1.664062-1.664062 1.664062h-47.117188c-.917969 0-1.664062-.746093-1.664062-1.664062v-10.160157c0-.917968.746093-1.664062 1.664062-1.664062h47.117188c.917969 0 1.664062.746094 1.664062 1.664062zm0 0"/></svg>