<svg height="512pt" viewBox="0 -1 512.00171 512" width="512pt" xmlns="http://www.w3.org/2000/svg"><path d="m248.878906 317.523438c3.234375-16.097657 10.203125-59.222657 5.109375-111.863282-.722656-7.460937-6.109375-13.542968-13.269531-15.179687-1.898438-8.191407-4.480469-16.234375-7.976562-23.953125-11.445313-25.265625-32.78125-45.046875-60.074219-55.699219-26.527344-10.347656-55.519531-11.027344-81.628907-1.90625-5.046874 1.761719-9.941406 3.867187-14.554687 6.261719-3.675781 1.90625-5.109375 6.433594-3.199219 10.105468 1.902344 3.675782 6.429688 5.109376 10.105469 3.203126 3.980469-2.0625 8.214844-3.886719 12.589844-5.414063 47.90625-16.730469 103.128906 5.535156 123.101562 49.632813 2.25 4.96875 4.074219 10.128906 5.554688 15.40625-5.46875-.707032-11.832031-1.457032-18.902344-2.160157-6.84375-15.144531-17.914063-29.09375-35.449219-39.796875-20.355468-12.425781-44.601562-13.925781-70.117187-4.335937-22.480469 8.453125-38.933594 25.785156-48.902344 51.511719-.078125.203124-.144531.40625-.222656.609374-6.796875 1.882813-13.277344 3.992188-19.382813 6.355469 1.957032-7.585937 4.445313-15.09375 7.582032-22.339843 4.847656-11.203126 10.972656-21.023438 18.199218-29.195313 2.746094-3.101563 2.453125-7.839844-.644531-10.582031-3.101563-2.746094-7.839844-2.453125-10.585937.644531-8.277344 9.359375-15.253907 20.519531-20.730469 33.175781-5.046875 11.660156-8.542969 23.867188-10.910157 36.007813-1.769531.925781-3.507812 1.875-5.203124 2.851562-5.058594 2.917969-8.289063 8.144531-8.640626 13.984375v-.003906c-.902343 14.949219-2.933593 67.164062 8.824219 111.472656 1.21875 4.582032 4.136719 8.375 8.222657 10.683594.90625.511719 1.847656.933594 2.808593 1.269531 2.4375 12.621094 5.125 23.851563 8.257813 34.480469 9.027344 30.625 21.5625 56.539062 37.253906 77.023438 10.128906 13.226562 21.339844 23.890624 33.316406 31.691406 19.230469 12.527344 43.417969 19.40625 66.097656 19.40625 7.835938 0 15.488282-.820313 22.695313-2.511719 20.375-4.785156 36.390625-16.226563 46.3125-33.082031 19.589844-33.28125 13.144531-62.570313 5.683594-96.484375-3.472657-15.777344-3.664063-32.078125-2.570313-48.398438 5.597656-1.925781 10.015625-6.71875 11.25-12.871093zm-143.433594-161.660157c7.503907-2.820312 16.875-5.230469 26.988282-5.230469 9.660156 0 20 2.199219 30.042968 8.328126 10.984376 6.707031 19.496094 15.085937 25.683594 25.488281-14.453125-1.046875-30.710937-1.730469-47.675781-1.558594-26.378906.273437-50.121094 2.53125-71.144531 6.722656 8.414062-16.546875 20.519531-27.890625 36.105468-33.75zm116.148438 311.8125c-7.90625 13.429688-20.292969 22.207031-36.820312 26.089844-23.902344 5.609375-54.917969-.359375-77.179688-14.859375-10.546875-6.871094-20.503906-16.375-29.597656-28.246094-14.566406-19.019531-26.265625-43.292968-34.773438-72.148437-2.851562-9.671875-5.324218-19.90625-7.578125-31.34375 4.089844-1.117188 8.964844-2.359375 14.542969-3.65625 1.484375 7.285156 3.089844 14.03125 4.878906 20.511719 4.480469 16.246093 9.847656 30.46875 16.410156 43.480468 17.25 34.210938 37.351563 53.878906 67.21875 65.765625 7.667969 3.050781 15.824219 4.578125 23.917969 4.578125 8.011719-.003906 15.957031-1.5 23.289063-4.492187 40.328125-16.460938 32.144531-59.808594 27.746094-83.097657-3.726563-19.734374-4.320313-40.863281-3.777344-60.15625 4.179687.175782 8.398437.375 12.691406.632813-1.074219 17.023437-.765625 34.199219 2.992188 51.28125 7.0625 32.101563 12.640624 57.453125-3.960938 85.660156zm-22.679688-74.636719c6.53125 34.582032 5.566407 56.539063-18.679687 66.433594-11.183594 4.566406-24.304687 4.519532-35.996094-.136718-26.511719-10.550782-43.714843-27.523438-59.375-58.582032-6.109375-12.117187-11.128906-25.4375-15.34375-40.714844-1.707031-6.199218-3.242187-12.667968-4.667969-19.679687 30.253907-5.996094 74.699219-11.835937 130.03125-10.726563-.566406 20.167969.066407 42.390626 4.03125 63.40625zm35.265626-78.46875c-.222657 1.097657-1.132813 1.839844-2.164063 1.761719-104.121094-7.519531-178.324219 9.941407-205.394531 17.800781-.628906.179688-1.144532 0-1.46875-.183593-.3125-.175781-.875-.601563-1.105469-1.476563-11.183594-42.140625-9.222656-92.339844-8.351563-106.71875v-.003906c.046876-.792969.484376-1.503906 1.167969-1.894531 28.929688-16.6875 70.574219-25.425781 123.777344-25.972657 1.730469-.015624 3.449219-.023437 5.167969-.023437 41.222656 0 77.414062 4.988281 91.4375 7.207031.96875.152344 1.714844.988282 1.816406 2.039063 4.902344 50.640625-1.78125 92.023437-4.882812 107.464843zm0 0"/><path d="m154.792969 226.976562c-3.238281-11.21875-13.597657-19.445312-25.839844-19.445312s-22.601563 8.226562-25.835937 19.445312c-14.019532.894532-25.148438 12.585938-25.148438 26.828126 0 8.527343 4.058594 16.398437 10.613281 21.398437-.785156 2.542969-1.1875 5.203125-1.1875 7.914063 0 14.824218 12.0625 26.886718 26.886719 26.886718 5.265625 0 10.351562-1.542968 14.671875-4.363281 4.324219 2.820313 9.40625 4.363281 14.675781 4.363281 14.824219 0 26.882813-12.058594 26.882813-26.886718 0-2.710938-.402344-5.371094-1.183594-7.914063 6.554687-5 10.613281-12.867187 10.613281-21.398437 0-14.242188-11.132812-25.929688-25.148437-26.828126zm2.25 38.03125c-2.199219.785157-3.910157 2.546876-4.625 4.769532-.710938 2.222656-.351563 4.652344.980469 6.570312 1.386718 1.996094 2.121093 4.335938 2.121093 6.769532 0 6.554687-5.335937 11.890624-11.890625 11.890624-3.457031 0-6.734375-1.503906-9-4.128906-1.425781-1.648437-3.496094-2.597656-5.675781-2.597656-2.175781 0-4.25.949219-5.671875 2.597656-2.265625 2.625-5.546875 4.128906-9 4.128906-6.554688 0-11.890625-5.335937-11.890625-11.890624 0-2.433594.734375-4.773438 2.121094-6.769532 1.332031-1.917968 1.695312-4.347656.980469-6.570312-.714844-2.222656-2.425782-3.984375-4.625-4.769532-4.726563-1.683593-7.902344-6.183593-7.902344-11.203124 0-6.554688 5.332031-11.890626 11.890625-11.890626.976562 0 1.957031.121094 2.902343.359376 2.277344.570312 4.6875.042968 6.519532-1.425782 1.828125-1.46875 2.867187-3.710937 2.800781-6.054687l-.011719-.378907c0-6.554687 5.332032-11.890624 11.890625-11.890624 6.554688 0 11.890625 5.335937 11.890625 11.886718l-.011718.363282c-.070313 2.347656.964843 4.59375 2.792968 6.066406 1.832032 1.472656 4.246094 2.003906 6.523438 1.429687.949218-.234375 1.929687-.355469 2.90625-.355469 6.558594 0 11.890625 5.332032 11.890625 11.890626-.003907 5.019531-3.179688 9.523437-7.90625 11.203124zm0 0"/><path d="m128.953125 240.609375c-11.667969 0-21.160156 9.492187-21.160156 21.160156s9.492187 21.160157 21.160156 21.160157 21.160156-9.492188 21.160156-21.160157-9.492187-21.160156-21.160156-21.160156zm0 27.328125c-3.398437 0-6.167969-2.769531-6.167969-6.167969 0-3.398437 2.769532-6.164062 6.167969-6.164062 3.402344 0 6.167969 2.765625 6.167969 6.164062 0 3.398438-2.765625 6.167969-6.167969 6.167969zm0 0"/><path d="m509.980469 117.480469c-.566407-5.816407-3.992188-10.921875-9.160157-13.648438-1.742187-.917969-3.515624-1.792969-5.3125-2.648437-2.820312-12.046875-6.769531-24.113282-12.25-35.574219-14.765624-30.882813-37.605468-51.261719-67.882812-60.574219-26.4375-8.132812-55.382812-6.367187-81.496094 4.976563-26.878906 11.667969-47.453125 32.238281-57.9375 57.914062-3.207031 7.847657-5.492187 15.980469-7.078125 24.238281-7.089843 1.902344-12.242187 8.183594-12.683593 15.664063-3.113282 52.804687 5.476562 95.632813 9.308593 111.59375 1.46875 6.101563 6.066407 10.726563 11.730469 12.445313 1.707031 16.265624 2.128906 32.5625-.746094 48.457031-6.183594 34.171875-11.523437 63.683593 9.304688 96.203125 10.550781 16.472656 26.984375 27.300781 47.523437 31.316406 5.980469 1.167969 12.238281 1.738281 18.632813 1.734375 23.859375 0 49.574218-7.902344 69.460937-21.953125 11.675781-8.25 22.476563-19.328125 32.101563-32.921875 14.910156-21.0625 26.460937-47.429687 34.332031-78.371094 2.734375-10.746093 4.996094-22.070312 6.957031-34.773437.945313-.371094 1.871094-.820313 2.757813-1.367188 3.996093-2.460937 6.769531-6.363281 7.8125-10.984375 10.082031-44.722656 6.089843-96.824219 4.625-111.726562zm-220.160157-43.886719c14.648438-35.875 52.390626-58.621094 91.742188-58.621094 9.8125 0 19.722656 1.414063 29.402344 4.394532 26.109375 8.03125 45.878906 25.765624 58.761718 52.710937 3.410157 7.125 6.167969 14.539063 8.410157 22.050781-6.339844-2.179687-12.898438-4.042968-19.597657-5.636718-.085937-.195313-.164062-.398438-.25-.597657-10.925781-25.335937-28.019531-42.039062-50.800781-49.636719-25.859375-8.625-50.03125-6.214843-69.90625 6.96875-17.105469 11.347657-27.652343 25.691407-33.925781 41.070313-6.945312.960937-13.269531 1.953125-18.8125 2.886719 1.285156-5.328125 2.917969-10.542969 4.976562-15.589844zm150.269532 11.25c-40.710938-6.554688-84.625-4.527344-118.902344-.734375 5.792969-10.605469 13.976562-19.285156 24.683594-26.386719 10.636718-7.054687 21.792968-9.496094 32.140625-9.496094 9.1875 0 17.742187 1.921876 24.730469 4.253907 15.796874 5.269531 28.316406 16.152343 37.347656 32.363281zm33.203125 187.792969c-7.414063 29.152343-18.191407 53.847656-32.035157 73.402343-8.640624 12.203126-18.234374 22.074219-28.515624 29.339844-21.699219 15.328125-52.464844 22.460938-76.566407 17.75-16.660156-3.257812-29.367187-11.5625-37.773437-24.6875-17.652344-27.558594-13.03125-53.105468-7.179688-85.445312 3.113282-17.210938 2.777344-34.386719 1.0625-51.355469 4.214844-.414063 8.4375-.785156 12.660156-1.121094 1.269532 19.257813 1.464844 40.398438-1.515624 60.261719-3.519532 23.4375-10.066407 67.0625 30.851562 81.996094 6.695312 2.441406 13.835938 3.65625 21.027344 3.65625 8.882812 0 17.84375-1.851563 26.144531-5.519532 29.398437-13 48.746094-33.410156 64.695313-68.246093 6.066406-13.246094 10.898437-27.660157 14.765624-44.066407 1.542969-6.542968 2.890626-13.339843 4.101563-20.679687 5.628906 1.082031 10.535156 2.144531 14.675781 3.109375-1.820312 11.515625-3.910156 21.820312-6.398437 31.605469zm17.433593-46.730469c-.199218.882812-.742187 1.328125-1.046874 1.519531-.316407.195313-.832032.394531-1.464844.234375-18.175782-4.542968-56.765625-12.398437-111-13.984375-4.171875-.085937-7.589844 3.136719-7.710938 7.273438-.121094 4.140625 3.136719 7.59375 7.273438 7.714843 29.59375.867188 54.332031 3.632813 73.46875 6.671876-1.160156 7.058593-2.453125 13.578124-3.925782 19.828124-3.640624 15.429688-8.152343 28.925782-13.804687 41.265626-14.480469 31.621093-31.03125 49.230468-57.125 60.769531-11.507813 5.089843-24.617187 5.636719-35.96875 1.492187-24.597656-8.976562-26.386719-30.882812-21.164063-65.683594 3.175782-21.152343 2.972657-43.378906 1.644532-63.507812 7.4375-.429688 14.847656-.738281 22.207031-.917969 4.140625-.101562 7.414063-3.535156 7.316406-7.675781-.101562-4.078125-3.4375-7.316406-7.492187-7.316406-.0625 0-.125 0-.1875 0-19.628906.476562-39.628906 1.824218-59.453125 4.007812-1.023438.117188-1.964844-.59375-2.226563-1.679687-3.679687-15.3125-11.917968-56.410157-8.921875-107.207031.0625-1.035157.792969-1.921876 1.738281-2.109376 14.511719-2.851562 52.9375-9.621093 96.269532-10.804687 53.183594-1.460937 95.128906 5.710937 124.667968 21.296875.695313.367188 1.160157 1.058594 1.238282 1.851562 1.410156 14.339844 5.257812 64.425782-4.332032 106.960938zm0 0"/><path d="m425.300781 130.621094c-4.835937-4.484375-11.011719-6.992188-17.546875-7.164063-1.398437-4.277343-3.875-8.15625-7.265625-11.304687-5.265625-4.882813-12.128906-7.414063-19.292969-7.152344-7.175781.269531-13.816406 3.316406-18.703124 8.582031-3.148438 3.398438-5.320313 7.449219-6.398438 11.820313-6.5.660156-12.46875 3.625-16.957031 8.460937-4.882813 5.265625-7.421875 12.117188-7.152344 19.292969.320313 8.523438 4.671875 16.234375 11.410156 20.984375-.6875 2.570313-.988281 5.242187-.886719 7.953125.273438 7.175781 3.320313 13.816406 8.585938 18.699219 5.011719 4.648437 11.457031 7.175781 18.257812 7.175781.34375 0 .6875-.007812 1.035157-.019531 5.261719-.199219 10.285156-1.933594 14.496093-4.910157 4.425782 2.652344 9.570313 3.996094 14.828126 3.804688 14.8125-.554688 26.410156-13.0625 25.855468-27.875-.105468-2.710938-.605468-5.355469-1.484375-7.867188 6.363281-5.238281 10.125-13.257812 9.804688-21.78125-.273438-7.175781-3.320313-13.816406-8.585938-18.699218zm-13.875 30.757812c-2.171875.863282-3.8125 2.691406-4.441406 4.941406s-.175781 4.664063 1.230469 6.527344c1.457031 1.941406 2.277344 4.25 2.367187 6.683594.121094 3.175781-1.003906 6.203125-3.164062 8.53125-2.160157 2.328125-5.097657 3.679688-8.269531 3.796875-3.441407.132813-6.785157-1.25-9.148438-3.785156-1.484375-1.59375-3.601562-2.445313-5.765625-2.382813-2.179687.082032-4.210937 1.109375-5.570313 2.8125-2.167968 2.703125-5.390624 4.332032-8.839843 4.460938-3.1875.113281-6.207031-1.003906-8.535157-3.164063-2.328124-2.160156-3.675781-5.097656-3.792968-8.269531-.09375-2.433594.550781-4.800781 1.859375-6.84375 1.261719-1.96875 1.53125-4.40625.734375-6.601562-.796875-2.195313-2.574219-3.894532-4.800782-4.59375-4.789062-1.503907-8.132812-5.882813-8.320312-10.898438-.117188-3.175781 1.003906-6.207031 3.164062-8.535156 2.160157-2.328125 5.097657-3.675782 8.273438-3.792969.148438-.007813.296875-.007813.445312-.007813.828126 0 1.660157.085938 2.46875.257813 2.296876.480469 4.6875-.136719 6.460938-1.671875 1.769531-1.539062 2.722656-3.816406 2.570312-6.15625l-.027343-.375c-.117188-3.171875 1.003906-6.203125 3.164062-8.53125 2.160157-2.328125 5.097657-3.675781 8.269531-3.796875 3.179688-.109375 6.207032 1.003906 8.53125 3.164063 2.332032 2.160156 3.679688 5.097656 3.796876 8.25l.003906.359374c.011718 2.355469 1.128906 4.5625 3.011718 5.972657 1.886719 1.40625 4.324219 1.84375 6.582032 1.1875.9375-.269531 1.910156-.429688 2.890625-.464844 3.171875-.128906 6.203125 1.003906 8.53125 3.164063 2.328125 2.15625 3.675781 5.09375 3.796875 8.269531.1875 5.015625-2.816406 9.632812-7.476563 11.492187zm0 0"/><path d="m382.4375 138.050781c-11.65625.441407-20.785156 10.28125-20.347656 21.941407.429687 11.394531 9.832031 20.367187 21.136718 20.367187.265626 0 .535157-.003906.804688-.015625 11.660156-.4375 20.789062-10.28125 20.351562-21.941406-.214843-5.648438-2.613281-10.875-6.757812-14.71875s-9.542969-5.84375-15.1875-5.632813zm1.027344 27.308594c-3.425782.128906-6.265625-2.53125-6.390625-5.929687-.128907-3.398438 2.53125-6.265626 5.929687-6.390626 1.636719-.078124 3.21875.519532 4.425782 1.636719 1.207031 1.121094 1.90625 2.644531 1.96875 4.292969.125 3.394531-2.535157 6.265625-5.933594 6.390625zm0 0"/></svg>