<svg height="511pt" viewBox="-114 1 511 511.999" width="511pt" xmlns="http://www.w3.org/2000/svg"><path d="m284.464844 90.238281c0-19.207031-18.984375-32.589843-36.023438-32.589843-4.777344 0-9.472656 1.046874-13.753906 3.027343-9.53125-13.519531-25.289062-21.90625-42.09375-21.90625-10.929688 0-21.542969 3.519531-30.273438 9.871094-4.652343-6.042969-11.324218-10.300781-18.84375-11.945313-3.25-20.761718-21.261718-36.695312-42.921874-36.695312-21.601563 0-39.570313 15.84375-42.894532 36.519531-5.203125.609375-10.289062 1.695313-15.195312 3.242188-3.949219 1.25-6.144532 5.464843-4.894532 9.414062 1.25 3.953125 5.460938 6.136719 9.414063 4.894531 5.703125-1.800781 11.730469-2.832031 17.917969-3.070312 4.03125-.15625 7.214844-3.464844 7.214844-7.496094 0-.050781 0-.105468 0-.15625.054687-15.636718 12.789062-28.339844 28.4375-28.339844 15.679687 0 28.4375 12.757813 28.4375 28.4375 0 4.144532 3.359374 7.503907 7.503906 7.503907 7.542968 0 14.238281 4.796875 16.660156 11.9375.851562 2.507812 2.964844 4.382812 5.554688 4.929687 2.597656.550782 5.28125-.3125 7.074218-2.261718 6.882813-7.488282 16.652344-11.78125 26.808594-11.78125 13.882812 0 26.757812 8.082031 32.796875 20.589843 1.007813 2.089844 2.925781 3.59375 5.191406 4.078125 2.269531.480469 4.632813-.109375 6.402344-1.601562 3.203125-2.699219 7.269531-4.1875 11.457031-4.1875 9.71875 0 21.019532 7.683594 21.019532 17.582031 0 1.195313-.230469 2.527344-.683594 3.996094h-61.285156c-13.902344 0-25.21875 11.3125-25.21875 25.214843v62.324219c0 3.445313-1.496094 6.71875-4.105469 8.972657-2.644531 2.289062-6.046875 3.269531-9.578125 2.75-5.71875-.832032-10.03125-6-10.03125-12.058594 0-7.21875-2.863282-13.957032-8.058594-18.972656-5.195312-5.015626-12.027344-7.648438-19.265625-7.375-14.25.503906-25.414063 12.277343-25.414063 26.800781v27.292969c0 3.246093-1.289062 6.277343-3.625 8.535156-2.335937 2.253906-5.414062 3.421875-8.671874 3.316406-6.296876-.226562-11.421876-5.75-11.421876-12.316406v-89.269532c0-13.902343-11.3125-25.214843-25.21875-25.214843h-40.800781c-.535156-9 1.609375-16.921875 6.402344-23.609375 2.414063-3.371094 1.636719-8.058594-1.726563-10.46875-3.367187-2.414063-8.058593-1.640625-10.472656 1.726562-7.988281 11.148438-10.875 24.964844-8.398437 40.011719-.597657 9.871094-6.945313 123.726563 13.625 198.691406l29.804687 126.648438h-1c-9.023437 0-16.367187 7.339843-16.367187 16.367187v52.03125c0 9.027344 7.34375 16.371094 16.367187 16.371094h194.558594c9.027344 0 16.367188-7.34375 16.367188-16.371094v-52.03125c0-9.027344-7.339844-16.367187-16.367188-16.367187h-1l29.808594-126.648438c19.882812-72.472656 14.613281-181.292969 13.699218-197.367187 2.070313-4.617188 3.082032-8.878906 3.082032-12.976563zm-44.226563 353.359375v52.035156c0 .75-.613281 1.359376-1.363281 1.359376h-194.558594c-.75 0-1.363281-.609376-1.363281-1.359376v-52.035156c0-.75.613281-1.363281 1.363281-1.363281h194.558594c.75 0 1.363281.613281 1.363281 1.363281zm12.9375-146.859375c-.023437.089844-.046875.179688-.070312.273438l-30.648438 130.21875h-161.722656l-30.648437-130.222657c-.023438-.089843-.046876-.179687-.070313-.269531-17.5625-63.859375-14.683594-160.703125-13.476563-187.414062h41.617188c5.03125.628906 8.941406 4.925781 8.941406 10.125v13.09375h-7.542968c-10.273438 0-18.585938 8.042969-18.921876 18.308593-.953124 28.949219-1.871093 100.945313 10.085938 144.574219l22.457031 95.425781c2.023438 8.59375 9.601563 14.597657 18.429688 14.597657h99.976562c8.828125 0 16.40625-6.003907 18.429688-14.597657l22.460937-95.425781c4.140625-15.121093 7.117188-35.035156 8.839844-59.207031.292969-4.132812-2.820312-7.722656-6.953125-8.019531-4.125-.28125-7.71875 2.820312-8.015625 6.953125-1.660156 23.257812-4.476562 42.246094-8.375 56.429687-.027344.089844-.050781.179688-.070312.269531l-22.492188 95.5625c-.417969 1.78125-1.992188 3.027344-3.824219 3.027344h-99.976562c-1.832031 0-3.402344-1.246094-3.824219-3.027344l-22.488281-95.5625c-.023438-.089843-.046875-.179687-.070313-.269531-11.449218-41.632812-10.523437-111.941406-9.59375-140.238281.066406-2.128906 1.792969-3.796875 3.925782-3.796875h7.542968v61.167969c0 14.800781 11.371094 26.796875 25.890625 27.3125.328125.011718.660157.019531.988281.019531 6.996094 0 13.582032-2.65625 18.636719-7.535156 5.292969-5.109375 8.210938-11.976563 8.210938-19.332031v-27.289063c0-6.296875 4.90625-11.59375 10.941406-11.808594 3.117187-.113281 6.074219 1.015625 8.308594 3.179688 2.242187 2.160156 3.476562 5.0625 3.476562 8.207031 0 13.425781 9.832031 24.976562 22.875 26.875 7.800781 1.136719 15.652344-1.144531 21.558594-6.25 5.90625-5.109375 9.296875-12.519531 9.296875-20.324219v-34.222656h26.355469c2.128906 0 3.855469 1.667969 3.921875 3.796875.375 11.414062.734375 29.257812.3125 49.429688-.085938 4.144531 3.203125 7.574218 7.34375 7.660156 4.121094.074218 7.574218-3.203125 7.65625-7.34375.433594-20.507813.066406-38.640625-.3125-50.238282-.335938-10.269531-8.648438-18.3125-18.921875-18.3125h-26.359375v-13.09375c0-5.199218 3.910156-9.496093 8.941406-10.125h60.433594c1.207031 26.714844 4.085937 123.558594-13.476563 187.417969zm0 0"/><path d="m151.007812 233.878906c0 4.570313-3.707031 8.273438-8.273437 8.273438-4.570313 0-8.277344-3.703125-8.277344-8.273438 0-4.570312 3.707031-8.273437 8.277344-8.273437 4.566406 0 8.273437 3.703125 8.273437 8.273437zm0 0"/><path d="m197.507812 243.703125c0 4.570313-3.703124 8.273437-8.273437 8.273437s-8.273437-3.703124-8.273437-8.273437 3.703124-8.273437 8.273437-8.273437 8.273437 3.703124 8.273437 8.273437zm0 0"/><path d="m113.792969 257.707031c0 4.570313-3.703125 8.273438-8.273438 8.273438-4.570312 0-8.273437-3.703125-8.273437-8.273438 0-4.570312 3.703125-8.273437 8.273437-8.273437 4.570313 0 8.273438 3.703125 8.273438 8.273437zm0 0"/><path d="m154.980469 274.253906c0 4.570313-3.703125 8.273438-8.273438 8.273438-4.570312 0-8.273437-3.703125-8.273437-8.273438 0-4.570312 3.703125-8.273437 8.273437-8.273437 4.570313 0 8.273438 3.703125 8.273438 8.273437zm0 0"/><path d="m202.722656 290.800781c0 4.570313-3.703125 8.273438-8.273437 8.273438-4.570313 0-8.273438-3.703125-8.273438-8.273438 0-4.570312 3.703125-8.273437 8.273438-8.273437 4.570312 0 8.273437 3.703125 8.273437 8.273437zm0 0"/><path d="m217.121094 212.609375c0 4.570313-3.707032 8.277344-8.273438 8.277344-4.570312 0-8.277344-3.707031-8.277344-8.277344 0-4.566406 3.707032-8.273437 8.277344-8.273437 4.566406 0 8.273438 3.707031 8.273438 8.273437zm0 0"/><path d="m134.457031 324.542969c0 4.570312-3.703125 8.273437-8.273437 8.273437-4.570313 0-8.273438-3.703125-8.273438-8.273437 0-4.570313 3.703125-8.273438 8.273438-8.273438 4.570312 0 8.273437 3.703125 8.273437 8.273438zm0 0"/></svg>