<svg height="512pt" viewBox="-26 0 512 512" width="512pt" xmlns="http://www.w3.org/2000/svg"><path d="m363.074219 209.257812c0-4.140624-3.359375-7.496093-7.5-7.496093h-251.566407c-4.140624 0-7.496093 3.355469-7.496093 7.496093 0 4.140626 3.355469 7.496094 7.496093 7.496094h251.570313c4.136719 0 7.496094-3.355468 7.496094-7.496094zm0 0"/><path d="m355.175781 269.644531c0-4.140625-3.355469-7.496093-7.496093-7.496093h-235.777344c-4.136719 0-7.496094 3.355468-7.496094 7.496093s3.359375 7.496094 7.496094 7.496094h235.777344c4.140624 0 7.496093-3.355469 7.496093-7.496094zm0 0"/><path d="m340.585938 330.027344c0-4.140625-3.355469-7.496094-7.496094-7.496094h-206.597656c-4.140626 0-7.496094 3.355469-7.496094 7.496094s3.355468 7.496094 7.496094 7.496094h206.597656c4.140625 0 7.496094-3.355469 7.496094-7.496094zm0 0"/><path d="m138.074219 382.914062c-4.140625 0-7.496094 3.355469-7.496094 7.496094s3.355469 7.496094 7.496094 7.496094h183.433593c4.140626 0 7.496094-3.355469 7.496094-7.496094s-3.355468-7.496094-7.496094-7.496094zm0 0"/><path d="m78.667969 427.671875-11.902344-163.695313c-.300781-4.128906-3.882813-7.238281-8.019531-6.933593-4.128906.300781-7.234375 3.890625-6.933594 8.019531l11.902344 163.695312c1.621094 22.328126 20.429687 39.816407 42.816406 39.816407h246.523438c22.386718 0 41.191406-17.488281 42.816406-39.816407l19.425781-267.179687c.863281-11.855469-3.285156-23.644531-11.378906-32.347656s-19.550781-13.695313-31.4375-13.695313h-72.316407c.34375-2.8125.539063-5.667968.539063-8.570312 0-27.949219-16.265625-52.15625-39.824219-63.691406-3.203125-6.195313-8.234375-11.351563-14.484375-14.664063-9.832031-5.214844-21.644531-5.363281-31.605469-.394531l-1.25.625c-6.40625 3.199218-11.597656 8.292968-14.945312 14.488281-23.496094 11.5625-39.710938 35.730469-39.710938 63.640625 0 2.902344.195313 5.757812.535157 8.566406h-72.3125c-11.886719 0-23.34375 4.992188-31.4375 13.695313s-12.242188 20.496093-11.382813 32.347656l5 68.714844c.300782 4.128906 3.886719 7.246093 8.019532 6.933593 4.128906-.300781 7.234374-3.890624 6.933593-8.019531l-4.996093-68.714843c-.570313-7.828126 2.058593-15.304688 7.402343-21.050782s12.609375-8.910156 20.457031-8.910156h75.820313c9.734375 27.546875 36.027344 47.34375 66.867187 47.34375 30.84375 0 57.136719-19.796875 66.871094-47.34375h75.820313c7.847656 0 15.113281 3.164062 20.457031 8.910156s7.972656 13.222656 7.402344 21.050782l-19.425782 267.179687c-1.054687 14.53125-13.292968 25.910156-27.863281 25.910156h-246.519531c-14.570312 0-26.808594-11.378906-27.863281-25.910156zm131.425781-373.011719c1.453125-5.390625 5.148438-9.910156 10.144531-12.402344l1.25-.625c2.742188-1.371093 5.734375-2.054687 8.722657-2.054687 3.152343 0 6.304687.761719 9.15625 2.273437 4.921874 2.609376 8.390624 7.019532 9.773437 12.414063 1.378906 5.398437.453125 10.933594-2.605469 15.585937l-14.421875 21.917969c-.84375 1.28125-2.074219 1.472657-2.730469 1.472657-.660156 0-1.890624-.191407-2.734374-1.472657l-14.007813-21.292969c-3.066406-4.664062-3.996094-10.429687-2.546875-15.816406zm19.699219 108.222656c-30.835938 0-55.917969-25.082031-55.917969-55.914062 0-17.527344 8.109375-33.179688 20.769531-43.4375.59375 5.367188 2.441407 10.578125 5.46875 15.183594l14.011719 21.296875c3.390625 5.148437 9.09375 8.222656 15.257812 8.222656 6.164063 0 11.867188-3.074219 15.253907-8.222656l14.421875-21.921875c2.976562-4.519532 4.808594-9.640625 5.4375-14.917969 12.910156 10.25 21.214844 26.066406 21.214844 43.792969 0 30.835937-25.085938 55.917968-55.917969 55.917968zm0 0"/><path d="m440.023438 95.425781c-13.777344-14.816406-33.285157-23.3125-53.515626-23.3125h-59.628906c-.296875 0-.558594-.183593-.636718-.441406-6.109376-20.300781-18.832032-38.546875-35.828126-51.378906-17.574218-13.277344-38.539062-20.292969-60.621093-20.292969-22.085938 0-43.046875 7.015625-60.625 20.289062-16.992188 12.835938-29.714844 31.082032-35.824219 51.378907-.078125.261719-.339844.441406-.640625.441406h-59.625c-20.234375 0-39.738281 8.5-53.515625 23.316406-13.777344 14.8125-20.839844 34.882813-19.371094 55.0625l21.355469 293.734375c1.34375 18.472656 9.554687 35.597656 23.121094 48.214844 13.566406 12.613281 31.238281 19.5625 49.765625 19.5625h188c4.140625 0 7.5-3.355469 7.5-7.496094s-3.359375-7.496094-7.5-7.496094h-188c-30.289063 0-55.734375-23.664062-57.933594-53.875l-21.355469-293.730468c-1.183593-16.273438 4.285157-31.820313 15.398438-43.769532 11.109375-11.949218 26.214843-18.527343 42.535156-18.527343h59.628906c6.859375 0 13.023438-4.570313 14.992188-11.117188 5.199219-17.273437 16.035156-32.804687 30.503906-43.734375 14.953125-11.292968 32.792969-17.261718 51.589844-17.261718s36.632812 5.96875 51.585937 17.265624c14.472656 10.929688 25.304688 26.460938 30.503906 43.734376 1.96875 6.542968 8.136719 11.113281 14.996094 11.113281h59.628906c16.316407 0 31.421876 6.582031 42.535157 18.53125s16.582031 27.492187 15.398437 43.765625l-21.355468 293.730468c-2.199219 30.210938-27.644532 53.875-57.933594 53.875h-47.734375c-4.140625 0-7.496094 3.355469-7.496094 7.496094s3.355469 7.496094 7.496094 7.496094h47.734375c18.523437 0 36.199218-6.949219 49.765625-19.5625 13.566406-12.617188 21.777343-29.738281 23.121093-48.214844l21.355469-293.734375c1.464844-20.175781-5.59375-40.246093-19.371093-55.0625zm0 0"/></svg>