<svg height="512pt" viewBox="0 -43 512.001 512" width="512pt" xmlns="http://www.w3.org/2000/svg"><path d="m480.300781 59.085938h-4.527343v-3.777344c0-30.496094-24.8125-55.308594-55.308594-55.308594h-42.402344c-4.132812 0-7.488281 3.351562-7.488281 7.492188 0 4.136718 3.355469 7.488281 7.488281 7.488281h42.402344c22.238281 0 40.332031 18.089843 40.332031 40.328125v106.503906c0 4.136719 3.351563 7.488281 7.488281 7.488281 4.136719 0 7.488282-3.351562 7.488282-7.488281v-39.332031h4.527343c17.480469 0 31.699219-14.21875 31.699219-31.699219 0-17.476562-14.21875-31.695312-31.699219-31.695312zm0 48.417968h-4.527343v-33.441406h4.527343c9.21875 0 16.722657 7.5 16.722657 16.71875 0 9.222656-7.5 16.722656-16.722657 16.722656zm0 0"/><path d="m468.285156 188.9375c-4.136718 0-7.488281 3.351562-7.488281 7.488281v42.414063h-266.152344v-174.019532c0-14.320312-11.648437-25.96875-25.964843-25.96875h-2.164063c-4.136719 0-7.488281 3.351563-7.488281 7.488282 0 4.136718 3.351562 7.492187 7.488281 7.492187h2.164063c3.957031 0 7.417968 2.109375 9.355468 5.253907h-43.160156v-3.777344c0-22.238282 18.089844-40.332032 40.328125-40.332032h167.664063c4.136718 0 7.488281-3.351562 7.488281-7.488281s-3.351563-7.488281-7.488281-7.488281h-167.664063c-30.496094 0-55.304687 24.8125-55.304687 55.308594v3.773437h-30.859376c-9.207031-11.269531-23.207031-18.480469-38.859374-18.480469-27.667969.003907-50.179688 22.515626-50.179688 50.179688 0 27.667969 22.511719 50.179688 50.175781 50.179688 15.65625 0 29.652344-7.210938 38.863281-18.480469h30.859376v230.199219c0 10.734374 8.734374 19.46875 19.46875 19.46875h40.300781v34.515624c0 10.734376 8.734375 19.46875 19.46875 19.46875h257.164062c10.738281 0 19.472657-8.734374 19.472657-19.46875v-210.238281c0-4.136719-3.351563-7.488281-7.488282-7.488281zm-418.109375-62.953125c-19.40625 0-35.199219-15.789063-35.199219-35.199219s15.792969-35.203125 35.199219-35.203125c19.410157 0 35.203125 15.792969 35.203125 35.203125 0 19.40625-15.792968 35.199219-35.203125 35.199219zm129.492188 120.34375v110.84375h-40.300781c-2.476563 0-4.492188-2.015625-4.492188-4.492187v-230.199219h44.792969zm0-171.367187v32.542968h-82.1875c1.855469-5.234375 2.875-10.859375 2.875-16.722656 0-5.859375-1.019531-11.488281-2.875-16.71875h82.1875zm281.128906 331.703124c0 2.480469-2.015625 4.496094-4.492187 4.496094h-257.164063c-2.480469 0-4.496094-2.019531-4.496094-4.496094v-54.347656h266.152344zm0-69.328124h-266.152344v-83.519532h266.152344zm0 0"/></svg>