<svg height="512pt" viewBox="-86 0 512 512" width="512pt" xmlns="http://www.w3.org/2000/svg"><path d="m99.464844 227.953125c-2.535156 5.746094-3.847656 11.972656-3.847656 18.359375 0 25.148438 20.460937 45.613281 45.613281 45.613281 10.589843 0 20.75-3.679687 28.835937-10.285156 8.085938 6.605469 18.246094 10.285156 28.839844 10.285156 25.148438 0 45.613281-20.464843 45.613281-45.613281 0-6.390625-1.316406-12.613281-3.847656-18.359375 13.660156-8.101563 22.378906-22.96875 22.378906-39.25 0-7.441406-1.835937-14.832031-5.308593-21.371094-1.945313-3.664062-6.492188-5.054687-10.15625-3.109375-3.664063 1.945313-5.058594 6.492188-3.113282 10.15625 2.355469 4.4375 3.550782 9.257813 3.550782 14.320313 0 12.910156-8.171876 24.496093-20.332032 28.824219-2.203125.785156-3.917968 2.550781-4.632812 4.78125-.714844 2.226562-.351563 4.660156.984375 6.582031 3.566406 5.136719 5.449219 11.160156 5.449219 17.421875 0 16.867187-13.722657 30.589844-30.585938 30.589844-8.890625 0-17.328125-3.867188-23.152344-10.613282-1.429687-1.648437-3.503906-2.601562-5.6875-2.601562s-4.257812.953125-5.683594 2.601562c-5.828124 6.746094-14.265624 10.613282-23.152343 10.613282-16.867188 0-30.589844-13.722657-30.589844-30.589844 0-6.261719 1.886719-12.285156 5.453125-17.421875 1.335938-1.921875 1.699219-4.355469.984375-6.582031-.71875-2.230469-2.429687-3.996094-4.632813-4.78125-12.164062-4.328126-20.332031-15.914063-20.332031-28.824219 0-16.863281 13.71875-30.585938 30.585938-30.585938 2.515625 0 5.03125.308594 7.46875.921875 2.285156.566406 4.703125.039063 6.535156-1.433594 1.835937-1.476562 2.871094-3.722656 2.800781-6.078124l-.011718-.335938c-.003907-.195312-.015626-.390625-.015626-.585938 0-16.867187 13.722657-30.589843 30.589844-30.589843 16.867188 0 30.589844 13.722656 30.589844 30.589843 0 .199219-.007812.398438-.015625.597657l-.007813.316406c-.074218 2.355469.960938 4.605469 2.792969 6.082031 1.835938 1.476563 4.257813 2.007813 6.539063 1.4375 3.917968-.980468 8.058594-1.175781 12.011718-.585937 4.101563.59375 7.929688-2.222657 8.539063-6.328125.609375-4.105469-2.226563-7.925782-6.328125-8.535156-2.992188-.445313-6.074219-.59375-9.113281-.4375-3.566407-21.617188-22.390625-38.164063-45.003907-38.164063-22.617187 0-41.441406 16.546875-45.007812 38.164063-.785156-.039063-1.574219-.058594-2.359375-.058594-25.152344 0-45.617187 20.460937-45.617187 45.613281 0 16.28125 8.71875 31.148437 22.378906 39.25zm0 0"/><path d="m170.070312 154.808594c-25.421874 0-46.101562 20.679687-46.101562 46.101562 0 25.417969 20.679688 46.097656 46.101562 46.097656 25.417969 0 46.097657-20.679687 46.097657-46.097656 0-25.421875-20.679688-46.101562-46.097657-46.101562zm0 77.171875c-17.136718 0-31.074218-13.9375-31.074218-31.070313 0-17.136718 13.9375-31.074218 31.074218-31.074218 17.132813 0 31.070313 13.9375 31.070313 31.074218 0 17.132813-13.9375 31.070313-31.070313 31.070313zm0 0"/><path d="m339.289062 28.742188c-.027343-2.296876-.335937-4.53125-.875-6.675782-3.171874-12.636718-14.699218-22.066406-28.285156-22.066406h-280.121094c-12.914062 0-23.96875 8.511719-27.761718 20.203125-3.992188 12.320313-1.507813 28.390625-1.207032 41.203125.003907.078125.011719.15625.019532.238281 1.929687 81.382813 14.101562 151.085938 24.667968 197.320313 11.722657 51.265625 23.515626 83.773437 26.117188 90.6875v24.886718c0 4.148438 3.363281 7.511719 7.511719 7.511719 4.152343 0 7.515625-3.363281 7.515625-7.511719v-18.757812h206.394531v91.085938h-50.519531v-27.9375c0-20.132813-16.378906-36.515626-36.515625-36.515626h-32.324219c-20.136719 0-36.515625 16.382813-36.515625 36.515626v27.9375h-50.519531v-38.269532c0-4.152344-3.363282-7.515625-7.511719-7.515625s-7.515625 3.363281-7.515625 7.515625v72.347656c0 17.121094 13.933594 31.054688 31.058594 31.054688h174.332031c17.125 0 31.054687-13.933594 31.054687-31.054688v-131.296874c2.605469-6.910157 14.398438-39.417969 26.117188-90.683594 10.570312-46.234375 22.738281-115.933594 24.671875-197.3125.003906-.082032.015625-.164063.019531-.246094.117188-4.8125.191406-9.605469.230469-14.394531.046875-6.078125.03125-12.15625-.039063-18.269531zm-206.875 390.1875c0-11.847657 9.640626-21.488282 21.492188-21.488282h32.324219c11.851562 0 21.488281 9.640625 21.488281 21.488282v27.9375h-75.304688zm140.851563 62.015624c0 8.835938-7.191406 16.027344-16.03125 16.027344h-174.332031c-8.839844 0-16.03125-7.191406-16.03125-16.027344v-18.777343h206.394531zm26.570313-225.671874c-10.003907 43.835937-20.277344 74.257812-24.292969 85.480468h-210.941407c-8.363281-23.433594-43.855468-130.59375-48.320312-272.011718h307.570312c-2.4375 76.789062-13.960937 142.488281-24.015624 186.53125zm24.46875-211.871094c-.007813 2.636718-.035157 5.277344-.066407 7.914062-.011719.796875-.019531 1.601563-.03125 2.398438h-308.277343c-.007813-.359375-.015626-.71875-.019532-1.074219-.046875-3.398437-.078125-6.796875-.085937-10.195313-.003907-.925781-.003907-1.855468-.003907-2.78125 0-3.40625.011719-6.808593.050782-10.195312.003906-.183594.003906-.367188.003906-.550781.011719-.957031.121094-1.894531.316406-2.796875 1.382813-6.320313 7.078125-11.089844 13.816406-11.089844h280.121094c6.738282 0 12.4375 4.769531 13.816406 11.09375.199219.902344.308594 1.839844.316407 2.792969.003906.167969.003906.335937.003906.503906.039063 3.40625.054687 6.832031.050781 10.265625 0 1.238281-.003906 2.476562-.011718 3.714844zm0 0"/></svg>