<svg height="512pt" viewBox="0 -54 512.001 512" width="512pt" xmlns="http://www.w3.org/2000/svg"><path d="m492.960938 106.375h-141.46875c.25-1.722656.390624-3.472656.390624-5.25 0-19.875-16.167968-36.046875-36.042968-36.046875-5.527344 0-10.953125 1.28125-15.855469 3.679687-10.527344-15.402343-28.261719-24.992187-47.191406-24.992187-12.453125 0-24.539063 4.117187-34.371094 11.53125-5.265625-7.226563-13.09375-12.269531-21.941406-14.03125-3.316407-23.296875-23.390625-41.265625-47.589844-41.265625-24.179687 0-44.246094 17.949219-47.578125 41.222656-16.128906 2.167969-31.042969 9.847656-42.550781 22.03125-11.289063 11.949219-18.171875 27.042969-19.808594 43.121094h-19.914063c-10.5 0-19.039062 8.542969-19.039062 19.042969v36.933593c0 10.5 8.539062 19.039063 19.039062 19.039063h7.707032c-.554688 10.304687-1.230469 29.410156-.320313 51.605469.171875 4.136718 3.699219 7.34375 7.792969 7.179687 4.132812-.171875 7.347656-3.660156 7.175781-7.792969-.902343-21.980468-.171875-41.199218.363281-50.992187h57.40625v49.476563c0 14.871093 12.097657 26.96875 26.96875 26.96875 14.871094 0 26.972657-12.097657 26.972657-26.96875v-27.910157c0-6.335937 5.152343-11.488281 11.484375-11.488281 6.335937 0 11.488281 5.152344 11.488281 11.488281v.335938c0 14.871093 12.097656 26.96875 26.96875 26.96875s26.972656-12.097657 26.972656-26.96875v-21.902344h27.96875v57.554687c0 18.011719 14.652344 32.667969 32.664063 32.667969h105.480468c18.011719 0 32.664063-14.65625 32.664063-32.667969v-57.554687h41.792969c-.242188.492187.96875 49.527344-2.925782 82.367187-5.339843 45.082032-43.738281 79.078126-89.3125 79.078126h-245.210937c-21.578125 0-42.457031-7.75-58.800781-21.816407-16.324219-14.050781-27.039063-33.476562-30.175782-54.695312-.601562-4.09375-4.414062-6.921875-8.503906-6.320313-4.09375.605469-6.921875 4.414063-6.316406 8.507813 3.019531 20.453125 12.078125 39.460937 25.859375 54.703125l-13.765625 34.21875c-6.988281 17.375 1.460938 37.195312 18.835938 44.1875 4.140624 1.664062 8.417968 2.453125 12.628906 2.453125 13.460937 0 26.230468-8.058594 31.550781-21.289063l10.675781-26.535156c5.914063 1.03125 11.9375 1.570312 18.011719 1.570312h245.210937c5.96875 0 11.832032-.503906 17.542969-1.46875l10.632813 26.433594c5.324218 13.234375 18.089844 21.289063 31.550781 21.289063 4.210937 0 8.492187-.789063 12.632813-2.453125 17.375-6.988282 25.824218-26.8125 18.835937-44.1875l-13.601563-33.8125c14.300782-15.648438 23.949219-35.699219 26.601563-58.101563 4.117187-34.746093 3.027344-68.945312 2.203125-84.128906h8.210938c10.5 0 19.039062-8.539063 19.039062-19.039063v-36.933593c0-10.5-8.539062-19.042969-19.039062-19.042969zm-393.796876 60.03125h-80.125c-2.234374 0-4.054687-1.816406-4.054687-4.054688v-36.933593c0-2.238281 1.820313-4.058594 4.054687-4.058594h80.125zm115.871094 36.882812c0 6.613282-5.375 11.988282-11.984375 11.988282-6.613281 0-11.988281-5.375-11.988281-11.988282v-.335937c0-14.59375-11.875-26.46875-26.472656-26.46875-14.59375 0-26.46875 11.875-26.46875 26.46875v27.910156c0 6.609375-5.378906 11.988281-11.988282 11.988281-6.609374 0-11.988281-5.378906-11.988281-11.988281v-109.5h100.890625zm42.953125-54.496093v17.613281h-27.96875v-45.042969h27.96875zm7.492188-42.417969h-211.449219c3.597656-27.570312 26.699219-49.6875 54.574219-50.757812 4.023437-.152344 7.203125-3.457032 7.203125-7.484376 0-.050781 0-.101562 0-.160156.050781-18.199218 14.871094-32.988281 33.082031-32.988281 18.242187 0 33.085937 14.839844 33.085937 33.082031 0 4.140625 3.351563 7.492188 7.492188 7.492188 8.929688 0 16.863281 5.683594 19.734375 14.144531.851563 2.503906 2.957031 4.375 5.546875 4.921875 2.589844.550781 5.273438-.3125 7.0625-2.261719 7.953125-8.652343 19.246094-13.613281 30.980469-13.613281 16.046875 0 30.925781 9.339844 37.90625 23.800781 1.007812 2.082031 2.921875 3.585938 5.183593 4.066407 2.265626.480468 4.625-.105469 6.394532-1.597657 3.789062-3.195312 8.605468-4.957031 13.5625-4.957031 11.613281 0 21.058594 9.449219 21.058594 21.0625 0 1.796875-.21875 3.550781-.65625 5.25zm148.335937 132.570312c0 9.75-7.933594 17.683594-17.683594 17.683594h-105.476562c-9.753906 0-17.683594-7.933594-17.683594-17.683594v-21.214843h140.84375zm0-97.644531h-23.796875c-4.136719 0-7.492187 3.355469-7.492187 7.492188s3.355468 7.492187 7.492187 7.492187h23.796875v46.460938h-140.84375v-46.460938h82.75c4.136719 0 7.492188-3.355468 7.492188-7.492187s-3.355469-7.492188-7.492188-7.492188h-82.75v-19.9375h68.421875c.019531 0 .039063-.003906.054688-.003906h72.367187zm-323.261718 235.890625c-1.894532 4.703125-5.503907 8.386719-10.167969 10.375-4.664063 1.988282-9.820313 2.042969-14.523438.148438-9.710937-3.90625-14.429687-14.980469-10.527343-24.6875l11.558593-28.734375c10.035157 8.144531 21.417969 14.328125 33.550781 18.300781zm354.5625 10.523438c-9.707032 3.90625-20.785157-.8125-24.6875-10.523438l-9.828126-24.429687c12.335938-3.972657 23.710938-10.164063 33.621094-18.136719l11.421875 28.402344c3.90625 9.707031-.816406 20.785156-10.527343 24.6875zm51.898437-225.363282c0 2.238282-1.820313 4.054688-4.054687 4.054688h-64.160157v-45.046875h64.160157c2.234374 0 4.054687 1.820313 4.054687 4.058594zm0 0"/></svg>