<svg height="512pt" viewBox="-97 0 511 512" width="512pt" xmlns="http://www.w3.org/2000/svg"><path d="m317.550781 392.058594c0-.011719 0-.019532-.003906-.03125-3.777344-29.6875-12.191406-52.496094-26.480469-71.78125-5.621094-7.585938-12.292968-15.035156-21.632812-24.152344-4.203125-4.101562-8.546875-8.152344-12.746094-12.070312-3.226562-3.003907-6.503906-6.074219-9.726562-9.164063 1.898437-2.554687 3.039062-5.707031 3.039062-9.128906v-34.144531c0-8.460938-6.882812-15.34375-15.34375-15.34375h-7.179688l-2.15625-12.773438c-1.8125-10.726562-10.960937-18.507812-21.753906-18.507812h-.582031v-142.152344c0-23.605469-19.203125-42.808594-42.808594-42.808594-23.601562 0-42.804687 19.203125-42.804687 42.808594v142.152344h-4.558594c-10.792969 0-19.941406 7.78125-21.753906 18.507812l-2.152344 12.773438h-4.921875c-8.460937 0-15.34375 6.882812-15.34375 15.34375v34.144531c0 3.421875 1.140625 6.574219 3.039063 9.128906-3.222657 3.089844-6.503907 6.160156-9.722657 9.164063-4.203125 3.917968-8.542969 7.96875-12.75 12.070312-9.339843 9.117188-16.011719 16.566406-21.632812 24.152344-14.289063 19.285156-22.703125 42.09375-26.484375 71.789062-.097656.800782-2.402344 19.835938 2.824218 42.65625 7.046876 30.726563 24.441407 53.859375 50.304688 66.894532 13.519531 6.8125 28.992188 10.414062 44.742188 10.414062h120.71875c15.753906 0 31.222656-3.601562 44.742187-10.414062 4.179687-2.105469 8.1875-4.496094 11.910156-7.109376 3.378907-2.375 4.199219-7.039062 1.828125-10.417968-2.375-3.378906-7.035156-4.199219-10.417968-1.828125-3.132813 2.199219-6.515626 4.21875-10.050782 6-11.441406 5.765625-24.585937 8.8125-38.011718 8.8125h-120.71875c-13.425782 0-26.570313-3.046875-38.011719-8.8125-21.972657-11.074219-36.230469-30.097657-42.378907-56.546875-4.722656-20.324219-2.660156-37.609375-2.640624-37.769532 3.441406-27.042968 10.960937-47.621093 23.660156-64.761718 5.128906-6.921875 11.316406-13.816406 20.0625-22.355469 4.082031-3.980469 8.363281-7.976563 12.503906-11.835937 4.835938-4.507813 9.8125-9.152344 14.589844-13.886719h7.734375c-8.542969 16.292969-23.988281 47.746093-32.398438 77.078125-2.160156 7.542968 1.257813 15.15625 8.316407 18.511718 2.207031 1.050782 4.511718 1.554688 6.769531 1.554688 4.902343 0 9.59375-2.375 12.628906-6.730469 4.957031-7.121093 10.546875-15.914062 16.464844-25.222656 2.964843-4.664063 6.03125-9.488281 9.148437-14.304687 2.242188-3.46875 1.25-8.097657-2.21875-10.339844-3.464844-2.242188-8.09375-1.253906-10.339844 2.214844-3.148437 4.867187-6.230468 9.71875-9.210937 14.40625-5.832031 9.171874-11.339844 17.835937-16.117187 24.699218-.148438.210938-.261719.296875-.28125.308594-.097657.027344-.46875-.046875-.722657-.304688-.109375-.109374-.195312-.195312-.058593-.671874 9.382812-32.726563 28.628906-69.496094 34.988281-81.203126h22.601562c-3.703125 4.085938-7.621093 8.894532-11.78125 14.457032-2.472656 3.308594-1.796875 7.996094 1.511719 10.46875 3.304688 2.472656 7.992188 1.796875 10.464844-1.511719 8.472656-11.328125 15.761718-19.179687 21.707031-23.414063h6.742187c14.988282 10.625 34.164063 40.785157 49.683594 65.199219 5.917969 9.308594 11.507813 18.097657 16.464844 25.21875 3.03125 4.355469 7.726562 6.730469 12.625 6.730469 2.261719 0 4.566406-.507812 6.769531-1.554688 7.058594-3.355468 10.476563-10.96875 8.316407-18.511718-8.410157-29.335938-23.851563-60.789063-32.398438-77.082032h7.734375c4.777344 4.738282 9.757813 9.378907 14.59375 13.890626 4.136719 3.859374 8.417969 7.851562 12.5 11.835937 8.75 8.539063 14.933594 15.429687 20.0625 22.351563 12.699219 17.140624 20.214844 37.714843 23.660156 64.75.082031.691406 4.089844 35.910156-13.433593 65.109374-2.125 3.539063-.976563 8.132813 2.566406 10.257813 3.539062 2.125 8.132812.980469 10.257812-2.5625 20.234375-33.707031 15.660156-72.988281 15.453125-74.644531zm-185.226562-349.25c0-15.359375 12.496093-27.851563 27.851562-27.851563 15.359375 0 27.855469 12.492188 27.855469 27.851563v142.152344h-55.707031zm-26.515625 163.152344c.589844-3.503907 3.535156-6.046876 7.003906-6.046876h90.753906c3.46875 0 6.414063 2.542969 7.007813 6.046876l1.734375 10.28125h-108.234375zm136.371094 156.3125c.136718.480468.050781.566406-.058594.671874-.25.257813-.617188.335938-.71875.308594-.027344-.015625-.136719-.097656-.285156-.3125-4.777344-6.859375-10.28125-15.523437-16.113282-24.695312-12.792968-20.125-26.8125-42.175782-40.414062-57.171875h22.601562c6.359375 11.703125 25.605469 48.472656 34.988282 81.199219zm-7.136719-96.542969c0 .210937-.171875.386719-.386719.386719h-150.671875c-.210937 0-.386719-.171876-.386719-.386719v-34.144531c0-.214844.171875-.386719.386719-.386719h150.671875c.214844 0 .386719.171875.386719.386719zm0 0"/></svg>