<svg height="512pt" viewBox="0 0 512 512" width="512pt" xmlns="http://www.w3.org/2000/svg"><path d="m142.050781 107.882812c16.464844 0 29.859375-13.390624 29.859375-29.855468v-48.171875c0-16.460938-13.394531-29.855469-29.859375-29.855469-16.460937 0-29.855469 13.394531-29.855469 29.855469v48.171875c0 16.464844 13.394532 29.855468 29.855469 29.855468zm-14.871093-78.027343c0-8.199219 6.671874-14.871094 14.871093-14.871094 8.203125 0 14.875 6.671875 14.875 14.871094v48.171875c0 8.203125-6.671875 14.875-14.875 14.875-8.199219 0-14.871093-6.671875-14.871093-14.875zm0 0"/><path d="m233.125 83.757812c4.136719 0 7.492188-3.351562 7.492188-7.488281v-46.414062c0-8.199219 6.671874-14.871094 14.875-14.871094 8.199218 0 14.871093 6.671875 14.871093 14.871094v48.171875c0 8.203125-6.671875 14.875-14.871093 14.875-4.140626 0-7.492188 3.351562-7.492188 7.492187 0 4.136719 3.351562 7.492188 7.492188 7.492188 16.460937 0 29.855468-13.394531 29.855468-29.859375v-48.171875c0-16.460938-13.394531-29.855469-29.855468-29.855469-16.464844 0-29.859376 13.394531-29.859376 29.855469v46.414062c0 4.136719 3.355469 7.488281 7.492188 7.488281zm0 0"/><path d="m368.929688 107.882812c16.460937 0 29.855468-13.390624 29.855468-29.855468v-48.171875c0-16.460938-13.390625-29.855469-29.855468-29.855469-16.464844 0-29.859376 13.394531-29.859376 29.855469v48.171875c.003907 16.464844 13.394532 29.855468 29.859376 29.855468zm-14.875-78.027343c0-8.199219 6.675781-14.871094 14.875-14.871094 8.203124 0 14.875 6.671875 14.875 14.871094v48.171875c0 8.203125-6.671876 14.875-14.875 14.875-8.199219 0-14.875-6.671875-14.875-14.875zm0 0"/><path d="m492.960938 206.632812h-29.425782c2.042969-5.179687 3.164063-10.707031 3.164063-16.453124 0-29.066407-28.269531-52.710938-63.019531-52.710938-20.003907 0-37.832032 7.851562-49.382813 20.046875-11.554687-12.199219-29.402344-20.046875-49.410156-20.046875-20 0-37.839844 7.84375-49.390625 20.039062-11.554688-12.195312-29.398438-20.039062-49.402344-20.039062-20 0-37.839844 7.84375-49.390625 20.039062-11.554687-12.195312-29.398437-20.039062-49.402344-20.039062-34.75 0-63.019531 23.644531-63.019531 52.710938 0 5.746093 1.121094 11.273437 3.164062 16.453124h-28.40625c-10.496093 0-19.039062 8.542969-19.039062 19.042969v36.933594c0 10.5 8.542969 19.039063 19.039062 19.039063h5.394532v222.300781c0 4.136719 3.355468 7.492187 7.492187 7.492187h447.128907c4.136718 0 7.492187-3.355468 7.492187-7.492187v-222.300781h6.414063c10.496093 0 19.039062-8.542969 19.039062-19.039063v-36.9375c0-10.496094-8.539062-19.039063-19.039062-19.039063zm-89.28125-54.183593c26.488281 0 48.035156 16.925781 48.035156 37.730469 0 5.898437-1.738282 11.476562-4.824219 16.453124h-82.15625c2.046875-5.179687 3.175781-10.707031 3.175781-16.453124 0-7.136719-1.714844-13.941407-4.796875-20.152344 8.523438-10.550782 23.511719-17.578125 40.566407-17.578125zm-98.792969 0c26.488281 0 48.039062 16.925781 48.039062 37.730469 0 5.894531-1.738281 11.476562-4.820312 16.453124h-82.152344c2.042969-5.179687 3.164063-10.707031 3.164063-16.453124 0-7.136719-1.714844-13.941407-4.796876-20.152344 8.523438-10.550782 23.511719-17.578125 40.566407-17.578125zm-98.792969 0c26.488281 0 48.039062 16.925781 48.039062 37.730469 0 5.898437-1.746093 11.476562-4.835937 16.453124h-82.144531c2.042968-5.179687 3.167968-10.707031 3.167968-16.453124 0-7.132813-1.707031-13.933594-4.789062-20.144532 8.523438-10.550781 23.503906-17.585937 40.5625-17.585937zm-98.792969 0c26.488281 0 48.039063 16.925781 48.039063 37.730469 0 5.894531-1.734375 11.476562-4.820313 16.453124h-86.4375c-3.082031-4.976562-4.816406-10.558593-4.816406-16.453124 0-20.804688 21.546875-37.730469 48.035156-37.730469zm-24.316406 344.007812h-43.566406v-61.445312h43.566406zm0-76.429687h-43.566406v-61.851563h43.566406zm0-76.835938h-43.566406v-61.542968h43.566406zm66.308594 153.265625h-51.324219v-214.808593h51.324219zm197.414062 0h-182.429687v-61.445312h182.429687zm66.304688 0h-51.320313v-82.8125c0-4.136719-3.355468-7.492187-7.492187-7.492187s-7.492188 3.355468-7.492188 7.492187v6.386719h-182.429687v-61.855469h182.429687v20.332031c0 4.140626 3.355469 7.492188 7.492188 7.492188s7.492187-3.351562 7.492187-7.492188v-96.859374h51.320313zm-248.734375-153.265625v-61.542968h182.429687v61.542968zm307.285156 153.265625h-43.566406v-61.445312h43.566406zm0-76.429687h-43.566406v-61.851563h43.566406zm0-76.835938h-43.566406v-61.542968h43.566406zm25.453125-80.582031c0 2.238281-1.820313 4.058594-4.054687 4.058594h-473.921876c-2.234374 0-4.054687-1.820313-4.054687-4.058594v-36.933594c0-2.238281 1.820313-4.058593 4.054687-4.058593h473.921876c2.234374 0 4.054687 1.820312 4.054687 4.058593zm0 0"/><path d="m134.574219 313.140625c0 6.042969-4.898438 10.945313-10.945313 10.945313-6.042968 0-10.945312-4.902344-10.945312-10.945313 0-6.046875 4.902344-10.945313 10.945312-10.945313 6.046875 0 10.945313 4.898438 10.945313 10.945313zm0 0"/><path d="m134.574219 464.453125c0 6.046875-4.898438 10.945313-10.945313 10.945313-6.042968 0-10.945312-4.898438-10.945312-10.945313 0-6.042969 4.902344-10.945313 10.945312-10.945313 6.046875 0 10.945313 4.902344 10.945313 10.945313zm0 0"/><path d="m398.296875 313.140625c0 6.042969-4.898437 10.945313-10.945313 10.945313-6.042968 0-10.945312-4.902344-10.945312-10.945313 0-6.046875 4.902344-10.945313 10.945312-10.945313 6.046876 0 10.945313 4.898438 10.945313 10.945313zm0 0"/><path d="m398.296875 464.453125c0 6.046875-4.898437 10.945313-10.945313 10.945313-6.042968 0-10.945312-4.898438-10.945312-10.945313 0-6.042969 4.902344-10.945313 10.945312-10.945313 6.046876 0 10.945313 4.902344 10.945313 10.945313zm0 0"/></svg>