<svg height="512pt" viewBox="-9 0 511 512" width="512pt" xmlns="http://www.w3.org/2000/svg"><path d="m474.746094 433.601562h-55.390625c5.101562-5.75 9.59375-12.296874 13.425781-19.664062l.035156-.066406c.003906-.003906.007813-.007813.007813-.011719 1.039062-1.714844 4.667969-8.226563 7.816406-20.050781 4.007813-15.027344 5.6875-32.453125 5-51.785156-.332031-9.324219-7.898437-16.890626-17.21875-17.21875-19.339844-.683594-36.757813.996093-51.789063 4.996093-4.417968 1.179688-8.085937 2.421875-11.042968 3.570313-.992188-2.015625-2.15625-4.214844-3.539063-6.597656-4.164062-7.1875-9.289062-14.394532-15.308593-21.554688v-100.511719c0-4.140625-3.355469-7.5-7.496094-7.5s-7.5 3.355469-7.5 7.5v84.546875c-.910156-.878906-1.835938-1.757812-2.777344-2.632812-6.824219-6.359375-17.523438-6.359375-24.355469 0-20.613281 19.199218-31.253906 35.789062-36.644531 46.742187-2.953125-1.148437-6.613281-2.386719-11.019531-3.558593-15.027344-4.003907-32.449219-5.683594-51.785157-5-9.324218.332031-16.890624 7.894531-17.222656 17.21875-.457031 12.871093.152344 25.046874 1.8125 36.191406.609375 4.09375 4.421875 6.921875 8.519532 6.308594 4.09375-.609376 6.921874-4.421876 6.3125-8.519532-1.527344-10.238281-2.082032-21.492187-1.660157-33.445312.054688-1.5 1.269531-2.714844 2.769531-2.769532 17.851563-.636718 33.796876.882813 47.394532 4.503907 3.898437 1.039062 7.058594 2.117187 9.523437 3.074219-7.949219 25.871093-5.003906 50.542968 8.769531 73.347656 2.835938 4.695312 5.964844 8.988281 9.191407 12.890625h-43.867188c-11.949219-8.867188-18.984375-19.636719-22.589843-26.5625-.167969-.320313-.335938-.625-.523438-.933594-2.132812-3.546875-6.742188-4.691406-10.289062-2.554687-3.546876 2.136718-4.691407 6.746093-2.554688 10.292968l.0625.109375c3.828125 7.355469 8.304688 13.902344 13.402344 19.644531h-124.085938v-137.691406c.300782.007813.597656.023438.902344.023438 23.121094 0 41.933594-18.8125 41.933594-41.933594v-30.984375c0-14.382813 11.703125-26.082031 26.085937-26.082031 14.382813 0 26.082031 11.699218 26.082031 26.082031 0 23.097656 18.792969 41.890625 41.9375 41.890625 23.125 0 41.9375-18.8125 41.9375-41.933594v-86.195312h49.894532c7.082031 0 12.84375 5.761718 12.84375 12.839844v20.769531c0 4.140625 3.355468 7.496093 7.496094 7.496093 4.144531 0 7.5-3.355468 7.5-7.496093v-20.769531c0-15.347657-12.488282-27.835938-27.839844-27.835938h-100.46875v-12.511719c8.90625-1.628906 17.011718-6.125 22.9375-12.898437 6.417968-7.328125 12.785156-20.207032 6.757812-39.980469-.699218-2.707031-6.898437-24.945313-27.71875-51.761719-2.28125-2.941406-5.734375-4.628906-9.472656-4.628906 0 0 0 0-.003906 0-3.738282 0-7.191406 1.6875-9.476563 4.625-20.820312 26.816406-27.015625 49.058594-27.714843 51.765625-6.027344 19.773437.339843 32.652344 6.753906 39.980469 5.929687 6.773437 14.039062 11.269531 22.945312 12.898437v12.511719h-122.804687c-17.394531 0-31.542969 14.148438-31.542969 31.539062v100.679688c0 17.5 10.777344 32.519531 26.039062 38.796875v140.804687h-43.390624c-10.828126 0-19.636719 8.808594-19.636719 19.640626v17.898437c0 22.527344 18.332031 40.859375 40.859375 40.859375h400.5625c22.527344 0 40.859375-18.332031 40.859375-40.859375v-17.898437c0-10.832032-8.808594-19.640626-19.640625-19.640626zm-112.542969-12.890624c13.769531-22.792969 16.714844-47.460938 8.769531-73.34375 2.464844-.960938 5.621094-2.035157 9.523438-3.078126 11.585937-3.085937 24.878906-4.640624 39.605468-4.640624 2.550782 0 5.148438.046874 7.785157.140624 1.5.054688 2.714843 1.269532 2.769531 2.769532.636719 17.851562-.878906 33.796875-4.503906 47.390625-2.742188 10.296875-5.769532 15.511719-6.144532 16.136719-.195312.320312-.375.636718-.535156.949218-6.132812 11.78125-13.835937 20.367188-22.242187 26.570313h-44.21875c3.226562-3.902344 6.355469-8.199219 9.191406-12.894531zm-85.054687-69.597657c.109374-.351562.207031-.695312.296874-1.054687.15625-.632813 1.683594-6.480469 7.0625-15.769532 7.050782-12.175781 17.257813-24.523437 30.324219-36.695312.550781-.511719 1.253907-.765625 1.960938-.765625.703125 0 1.410156.253906 1.957031.765625 13.070312 12.175781 23.273438 24.519531 30.328125 36.695312 5.378906 9.289063 6.90625 15.132813 7.0625 15.769532v.003906c.089844.355469.183594.699219.292969 1.035156 4.707031 14.925782 10.664062 50.464844-23.640625 82.503906h-32.011719c-34.300781-32.039062-28.339844-67.578124-23.632812-82.488281zm-85.371094-264.617187c-5.785156-6.609375-6.976563-15.074219-3.648438-25.878906.039063-.128907.082032-.277344.113282-.410157.050781-.199219 4.984374-19.394531 22.691406-43.265625 17.710937 23.871094 22.644531 43.0625 22.695312 43.265625.03125.136719.070313.273438.113282.410157 3.328124 10.804687 2.132812 19.269531-3.652344 25.878906-4.710938 5.382812-11.695313 8.472656-19.15625 8.472656-7.460938 0-14.441406-3.089844-19.15625-8.472656zm-127.6875 167.503906v-100.679688c0-9.121093 7.421875-16.546874 16.546875-16.546874h173.375v86.199218c0 14.855469-12.085938 26.941406-26.988281 26.941406-14.832032 0-26.894532-12.066406-26.894532-26.898437 0-22.652344-18.429687-41.078125-41.078125-41.078125-22.652343 0-41.078125 18.425781-41.078125 41.078125v30.984375c0 14.855469-12.085937 26.941406-26.945312 26.941406-14.851563 0-26.9375-12.085937-26.9375-26.941406zm415.300781 217.140625c0 14.261719-11.601563 25.863281-25.863281 25.863281h-400.558594c-14.265625 0-25.867188-11.601562-25.867188-25.863281v-17.898437c0-2.5625 2.082032-4.644532 4.644532-4.644532h443.003906c2.558594 0 4.640625 2.082032 4.640625 4.644532zm0 0"/><path d="m271.148438 59.550781c18.460937 7.054688 33.324218 29.5 37.441406 36.210938 1.777344 2.898437 4.84375 4.625 8.203125 4.625h.003906c3.359375 0 6.425781-1.730469 8.199219-4.625 4.117187-6.710938 18.980468-29.15625 37.4375-36.210938 3.796875-1.449219 6.25-5.050781 6.25-9.167969 0-4.125-2.449219-7.726562-6.25-9.179687-18.457032-7.050781-33.320313-29.496094-37.4375-36.207031-1.773438-2.894532-4.839844-4.625-8.199219-4.625-.003906 0-.003906 0-.003906 0-3.359375 0-6.425781 1.726562-8.203125 4.621094 0 0-.003906.003906-.003906.003906-4.113282 6.710937-18.972657 29.152344-37.4375 36.210937-3.796876 1.449219-6.25 5.050781-6.25 9.175781.003906 4.117188 2.457031 7.71875 6.25 9.167969zm45.644531-39.730469c6.507812 9.335938 17.148437 22.324219 30.574219 30.558594-13.425782 8.230469-24.070313 21.21875-30.574219 30.554688-6.503907-9.335938-17.144531-22.320313-30.574219-30.554688 13.429688-8.234375 24.066406-21.222656 30.574219-30.558594zm0 0"/><path d="m28.066406 132.148438c1.625 2.652343 4.4375 4.234374 7.519532 4.234374 3.085937 0 5.894531-1.582031 7.519531-4.230468 2.441406-3.976563 11.226562-17.273438 21.859375-21.335938 3.46875-1.324218 5.710937-4.601562 5.710937-8.351562s-2.242187-7.027344-5.710937-8.351563c-10.636719-4.066406-19.421875-17.359375-21.859375-21.339843-1.625-2.644532-4.433594-4.226563-7.519531-4.226563-3.082032 0-5.894532 1.578125-7.515626 4.226563-2.441406 3.980468-11.226562 17.273437-21.859374 21.339843-3.472657 1.324219-5.710938 4.601563-5.710938 8.351563s2.242188 7.027344 5.707031 8.351562c10.636719 4.0625 19.421875 17.359375 21.859375 21.332032zm7.519532-43.863282c3.515624 4.617188 8.261718 9.9375 13.960937 14.179688-5.699219 4.238281-10.445313 9.5625-13.960937 14.175781-3.515626-4.613281-8.257813-9.9375-13.960938-14.175781 5.703125-4.242188 10.445312-9.5625 13.960938-14.179688zm0 0"/><path d="m385.238281 120.664062c10.636719 4.066407 19.421875 17.359376 21.863281 21.339844 1.621094 2.644532 4.433594 4.226563 7.515626 4.226563 3.082031 0 5.894531-1.582031 7.519531-4.226563 2.4375-3.980468 11.226562-17.273437 21.859375-21.339844 3.46875-1.320312 5.707031-4.597656 5.710937-8.347656 0-3.746094-2.238281-7.027344-5.710937-8.355468-10.636719-4.0625-19.421875-17.355469-21.859375-21.335938-1.625-2.648438-4.4375-4.226562-7.519531-4.226562-3.082032 0-5.894532 1.578124-7.515626 4.226562-.003906 0-.003906 0-.003906 0-2.4375 3.980469-11.222656 17.273438-21.863281 21.339844-3.46875 1.324218-5.707031 4.605468-5.703125 8.351562 0 3.75 2.242188 7.027344 5.707031 8.347656zm29.378907-22.527343c3.515624 4.617187 8.261718 9.9375 13.960937 14.175781-5.699219 4.242188-10.445313 9.5625-13.960937 14.179688-3.515626-4.617188-8.257813-9.9375-13.960938-14.179688 5.699219-4.238281 10.445312-9.5625 13.960938-14.175781zm0 0"/></svg>