<svg height="512pt" viewBox="0 0 512.001 512" width="512pt" xmlns="http://www.w3.org/2000/svg"><path d="m437.019531 74.980469c-48.351562-48.351563-112.640625-74.980469-181.019531-74.980469s-132.667969 26.628906-181.019531 74.980469c-48.351563 48.351562-74.980469 112.640625-74.980469 181.019531s26.628906 132.667969 74.980469 181.019531c48.351562 48.351563 112.640625 74.980469 181.019531 74.980469 55.125 0 107.636719-17.25 151.859375-49.886719 43.34375-31.984375 75.023437-75.832031 91.617187-126.800781 1.28125-3.9375-.871093-8.171875-4.8125-9.453125-3.9375-1.28125-8.167968.871094-9.453124 4.808594-15.617188 47.980469-45.445313 89.257812-86.257813 119.378906-41.625 30.71875-91.058594 46.957031-142.953125 46.957031-64.375 0-124.894531-25.070312-170.414062-70.589844-45.519532-45.519531-70.585938-106.039062-70.585938-170.414062s25.066406-124.894531 70.585938-170.414062c45.519531-45.515626 106.042968-70.585938 170.414062-70.585938s124.894531 25.066406 170.414062 70.585938c45.519532 45.519531 70.585938 106.042968 70.585938 170.414062 0 13.996094-1.207031 28.019531-3.589844 41.679688-.710937 4.082031 2.019532 7.964843 6.101563 8.675781 4.078125.710937 7.964843-2.019531 8.675781-6.097657 2.53125-14.511718 3.8125-29.398437 3.8125-44.257812 0-68.378906-26.628906-132.667969-74.980469-181.019531zm0 0"/><path d="m391.558594 100.578125c-37.527344-32.773437-86.125-50.730469-135.5625-50.859375-50.140625-.125-100.195313 19.167969-137.546875 52.632812-43.414063 38.902344-68.777344 95.332032-68.777344 153.648438 0 113.769531 92.558594 206.328125 206.324219 206.328125 18.515625 0 36.460937-2.46875 53.542968-7.0625.222657-.039063.441407-.074219.660157-.132813 24.558593-6.664062 47.808593-17.933593 68.261719-33.066406 20.1875-14.9375 39.742187-36.285156 52.945312-57.550781l.234375-.375c19.953125-32.394531 30.683594-70.164063 30.683594-108.140625 0-2.933594-.058594-5.867188-.183594-8.800781-2.367187-56.140625-28.28125-109.679688-70.582031-146.621094zm-63.261719 313.066406c-5.035156 12.050781-13.105469 21.65625-22.789063 27.175781-15.800781 4.234376-32.394531 6.507813-49.511718 6.507813-105.496094 0-191.324219-85.828125-191.324219-191.324219 0-76.464844 45.09375-142.585937 110.078125-173.191406-1.816406 3.089844-3.460938 6.347656-4.886719 9.761719-9.839843 23.515625-9.8125 51.550781.082031 78.941406 10.617188 29.382813 31.097657 47.203125 52.78125 66.074219l.726563.632812c20.070313 17.46875 40.816406 34.210938 56.644531 46.84375 11.867188 9.476563 20.742188 17.773438 27.929688 26.109375 25.035156 29.035157 33.371094 71.171875 20.269531 102.46875zm118.984375-153.152343c-.890625 42.683593-16.742188 84.542968-44.019531 117.347656-6.554688 7.886718-13.660157 15.359375-21.378907 22.117187-6.820312 5.96875-14.058593 11.457031-21.652343 16.40625-3.949219 2.578125-7.996094 5.007813-12.125 7.285157-2.238281 1.234374-9.636719 3.484374-10.839844 5.535156 1.8125-3.085938 3.441406-6.34375 4.867187-9.753906 15.210938-36.328126 5.855469-84.875-22.742187-118.050782-7.808594-9.054687-17.320313-17.964844-29.933594-28.039062-15.714843-12.539063-36.296875-29.152344-56.15625-46.433594l-.726562-.632812c-21.050781-18.316407-39.226563-34.136719-48.523438-59.855469-8.613281-23.847657-8.738281-48.015625-.347656-68.0625 5.023437-12.035157 13.082031-21.636719 22.75-27.160157 1.503906-.40625 3.007813-.792968 4.519531-1.160156 63.941406-15.578125 136.527344 5.671875 182.261719 52.785156 34.453125 35.492188 54.089844 83.703126 54.089844 133.179688 0 1.554688-.011719 3.042969-.042969 4.492188zm0 0"/><path d="m275.554688 106.007812c-10.40625-1.355468-20.71875 1.421876-29.035157 7.820313-8.320312 6.398437-13.648437 15.65625-15.007812 26.0625-.535157 4.105469 2.363281 7.871094 6.46875 8.40625 4.109375.519531 7.871093-2.359375 8.40625-6.46875.839843-6.433594 4.132812-12.15625 9.277343-16.113281 5.140626-3.957032 11.523438-5.679688 17.953126-4.835938 13.28125 1.734375 22.679687 13.949219 20.945312 27.230469-.835938 6.4375-4.132812 12.15625-9.273438 16.113281-5.144531 3.957032-11.523437 5.679688-17.953124 4.835938-3.648438-.476563-7.042969-1.722656-10.09375-3.710938-3.476563-2.257812-8.117188-1.273437-10.378907 2.195313-2.257812 3.472656-1.273437 8.117187 2.195313 10.378906 4.949218 3.21875 10.445312 5.242187 16.335937 6.007813 1.726563.226562 3.449219.335937 5.160157.335937 8.613281 0 16.9375-2.816406 23.878906-8.152344 8.316406-6.398437 13.644531-15.65625 15.003906-26.0625 2.800781-21.484375-12.398438-41.242187-33.882812-44.042969zm0 0"/><path d="m246.601562 328.070312c-21.488281-2.792968-41.242187 12.398438-44.042968 33.882813-1.355469 10.40625 1.421875 20.71875 7.820312 29.039063 6.398438 8.316406 15.65625 13.644531 26.0625 15.003906 1.726563.226562 3.449219.335937 5.160156.335937 8.613282 0 16.9375-2.816406 23.878907-8.15625 8.316406-6.398437 13.644531-15.65625 15.003906-26.0625 1.355469-10.40625-1.421875-20.71875-7.820313-29.039062-6.398437-8.320313-15.65625-13.644531-26.0625-15.003907zm19.007813 42.101563c-.835937 6.4375-4.132813 12.160156-9.273437 16.113281-5.144532 3.960938-11.523438 5.679688-17.953126 4.835938-6.4375-.839844-12.15625-4.132813-16.113281-9.277344-3.957031-5.140625-5.675781-11.515625-4.835937-17.953125 1.59375-12.222656 12.0625-21.152344 24.070312-21.152344 1.042969 0 2.097656.066407 3.160156.207031 6.433594.835938 12.15625 4.132813 16.113282 9.273438 3.957031 5.144531 5.671875 11.519531 4.832031 17.953125zm0 0"/></svg>