<svg height="511pt" viewBox="0 -5 511.9987 511" width="511pt" xmlns="http://www.w3.org/2000/svg"><path d="m66.265625 154.996094c0 5.160156-4.179687 9.339844-9.335937 9.339844-5.160157 0-9.339844-4.179688-9.339844-9.339844 0-5.15625 4.179687-9.335938 9.339844-9.335938 5.15625 0 9.335937 4.179688 9.335937 9.335938zm0 0"/><path d="m157.503906 62.800781c0 5.160157-4.179687 9.339844-9.335937 9.339844s-9.339844-4.179687-9.339844-9.339844c0-5.15625 4.183594-9.335937 9.339844-9.335937s9.335937 4.179687 9.335937 9.335937zm0 0"/><path d="m296.75 264.535156c0 5.15625-4.179688 9.335938-9.335938 9.335938s-9.339843-4.179688-9.339843-9.335938c0-5.160156 4.183593-9.339844 9.339843-9.339844s9.335938 4.179688 9.335938 9.339844zm0 0"/><path d="m492.421875 320.269531c-.183594-3-.183594-3.023437-.1875-3.042969-6.949219-88.382812-23.414063-158.863281-81.183594-215.566406-10.480469-10.289062-21.960937-18.859375-34.152343-25.496094l-.804688-.433593c-3.671875-1.972657-8.246094-.59375-10.21875 3.074219-1.972656 3.671874-.59375 8.246093 3.074219 10.21875l.769531.414062c10.929688 5.949219 21.277344 13.683594 30.761719 22.992188 54.402343 53.40625 70.015625 120.941406 76.707031 205.921874.011719.183594.050781.8125.113281 1.835938-11.453125 3.238281-19.875 13.777344-19.875 26.253906v28.621094c0 14.246094 10.976563 25.96875 24.914063 27.179688 2.101562 34.246093 4.261718 69.378906 5.203125 84.75h-162.75l19.640625-225.9375 3.320312-1.558594c.128906-.058594.261719-.125.390625-.195313 6.960938-3.777343 12.992188-11.277343 14.824219-18.921875 1.683594-7.015625.453125-14-3.460938-19.671875l-33.25-48.171875-64.527343-93.480468c1.933593-.363282 4.011719-.785157 6.25-1.25 18.023437-3.734376 37.765625-4.503907 56.085937-2.464844 4.730469.53125 9.410156 1.292968 13.898438 2.273437 4.070312.886719 8.09375-1.691406 8.984375-5.761719.886719-4.070312-1.691407-8.09375-5.761719-8.980468-5-1.09375-10.199219-1.941406-15.449219-2.527344-16.820312-1.875-35.117187-1.222656-57.589843 2.058594-.652344.09375-1.511719.269531-3.246094.628906-5.988282 1.242188-10.238282 1.972656-12.714844 2.195312 0 0-8.21875-11.90625-8.222656-11.910156l-29.25-42.378906c-3.917969-5.671875-10.011719-9.296875-17.171875-10.210938-8.113281-1.046874-16.480469 1.570313-22.949219 7.160157-.109375.09375-.214844.1875-.316406.285156l-13.421875 12.988281c-1.292969-.734375-2.703125-1.265625-4.210938-1.539062-3.53125-.652344-7.101562.117187-10.058593 2.15625l-36.214844 25c-6.101563 4.210937-7.636719 12.597656-3.425782 18.699218l3.25 4.707032-41.214843 39.878906-1.730469-2.507812c-4.210938-6.097657-12.597656-7.636719-18.695312-3.425782l-36.21875 25c-2.953126 2.039063-4.9375 5.105469-5.585938 8.640625-.644531 3.527344.121094 7.101563 2.160156 10.054688l8.425782 12.207031-7.429688 7.191406c-10.546875 9.246094-13.019531 24.113282-5.734375 34.671875l51.066406 73.980469s27.453125 39.773438 27.457031 39.773438l14.292969 20.707031v87.339843h-24.9375c-4.164062 0-7.542969 3.378907-7.542969 7.542969 0 4.167969 3.378907 7.546875 7.542969 7.546875h167.53125c17.066407 0 30.949219 13.882813 30.949219 30.949219v6.019531c0 6.199219-5.042969 11.238282-11.238281 11.238282h-230.511719c-6.199219 0-11.238281-5.039063-11.238281-11.238282v-6.019531c0-13.738281 9.207031-25.96875 22.390625-29.753906 4.007812-1.148438 6.320312-5.328125 5.171875-9.332031-1.148438-4.007813-5.328125-6.324219-9.332031-5.171876-19.621094 5.628907-33.320313 23.828126-33.320313 44.257813v6.023437c0 14.515626 11.808594 26.324219 26.324219 26.324219h230.515625c14.515625 0 26.324219-11.808593 26.324219-26.324219v-6.023437c0-25.386719-20.652344-46.039063-46.039063-46.039063h-48.488281v-65.238281l22.359375-15.433593c2.957031-2.042969 4.9375-5.109376 5.585937-8.640626.648438-3.53125-.117187-7.105468-2.160156-10.058593l-1.726562-2.503907 51.902343-24.394531 3.246094 4.707031c2.039063 2.953126 5.109375 4.9375 8.640625 5.585938.816406.148438 1.636719.222656 2.449219.222656 2.703125 0 5.335937-.816406 7.609375-2.382812l36.214844-25c.976562-.671875 1.832031-1.46875 2.582031-2.34375l-18.746094 215.667968c-.183594 2.105469.527344 4.195313 1.957031 5.753907 1.429688 1.558593 3.445313 2.445312 5.5625 2.445312h179c2.082032 0 4.070313-.859375 5.496094-2.375s2.164062-3.554687 2.035156-5.632812c-2.453125-39.953125-4.351562-70.867188-5.820312-94.800781 8.738281-4.554688 14.722656-13.695313 14.722656-24.210938v-28.621094c0-12.371094-8.273438-22.835937-19.578125-26.171875zm-246.800781-237.992187c10.695312 15.496094 40.6875 58.949218 67.457031 97.730468l-29.710937 16.269532-72.8125-105.488282 25.746093-22.011718zm-61.015625-63.097656c3.164062-2.667969 7.277343-3.972657 11.027343-3.488282 2.847657.363282 5.214844 1.71875 6.660157 3.816406l25.390625 36.78125-25.746094 22.015626-31.410156-45.503907zm-65.722657 63.589843 28.886719 41.847657-43.230469 36.957031-26.871093-38.925781zm-102.292968 110.550781c-2.941406-4.261718-1.5-10.636718 3.351562-14.832031.109375-.089843.214844-.1875.316406-.285156l5.769532-5.582031 24.339844 35.265625-14.917969 12.753906zm80.394531 105.011719-5.738281 3.140625-40.289063-58.367187-6.890625-9.980469 14.917969-12.753906 38 55.050781zm0-70.578125v21.101563l-74.71875-108.246094 33.503906-23.125 53.933594 78.140625c-7.878906 8.417969-12.71875 19.714844-12.71875 32.128906zm79.011719 195.941406h-63.921875v-195.941406c0-17.625 14.339843-31.960937 31.960937-31.960937 17.625 0 31.960938 14.335937 31.960938 31.960937zm-31.960938-242.996093c-8.09375 0-15.71875 2.058593-22.378906 5.675781l-8.5-12.3125 43.230469-36.960938 64.472656 93.402344-29.769531 16.300782v-19.050782c0-25.945312-21.109375-47.054687-47.054688-47.054687zm47.054688 159.417969v-6.988282l10.210937-4.800781 2.21875 3.210937zm15.367187-30.886719-15.367187-22.265625v-22.957032l38.386718-21.019531 28.882813 41.84375zm75.324219-17.03125-161.480469-233.941407 33.5-23.125 161.480469 233.941407zm41.613281-37.933594c-.121093-.175781-31.410156-45.503906-31.410156-45.503906l29.710937-16.265625c9.65625 13.984375 18.511719 26.816406 25.386719 36.78125 3.761719 5.445312-.898437 13.835937-5.960937 16.65625-1.621094.902344-17.316406 8.894531-17.726563 8.332031zm173.511719 120.796875c0 6.726562-5.46875 12.195312-12.195312 12.195312-6.722657 0-12.191407-5.46875-12.191407-12.195312v-28.621094c0-6.726562 5.46875-12.195312 12.191407-12.195312 6.726562 0 12.195312 5.46875 12.195312 12.195312zm0 0"/><path d="m391.421875 472.835938c15.042969 0 27.285156-12.242188 27.285156-27.285157v-28.625c0-15.042969-12.242187-27.285156-27.285156-27.285156-15.046875 0-27.289063 12.242187-27.289063 27.285156v28.625c0 15.042969 12.242188 27.285157 27.289063 27.285157zm-12.195313-55.910157c0-6.722656 5.46875-12.195312 12.195313-12.195312 6.722656 0 12.191406 5.46875 12.191406 12.195312v28.625c0 6.722657-5.46875 12.195313-12.191406 12.195313-6.726563 0-12.195313-5.472656-12.195313-12.195313zm0 0"/><path d="m431.359375 295.164062v-17.179687c0-13.089844-10.652344-23.738281-23.742187-23.738281-13.089844 0-23.742188 10.648437-23.742188 23.738281v17.179687c0 13.089844 10.652344 23.738282 23.742188 23.738282 13.089843.003906 23.742187-10.648438 23.742187-23.738282zm-32.394531 0v-17.179687c0-4.769531 3.882812-8.648437 8.652344-8.648437 4.769531 0 8.652343 3.878906 8.652343 8.648437v17.179687c0 4.769532-3.882812 8.648438-8.652343 8.648438-4.769532 0-8.652344-3.878906-8.652344-8.648438zm0 0"/></svg>