<svg height="512pt" viewBox="-66 0 512 512.001" width="512pt" xmlns="http://www.w3.org/2000/svg"><path d="m380.367188 123.242188c-.324219-13.636719-11.261719-24.320313-24.902344-24.320313h-61l5.128906-49.804687c.085938-.824219.773438-1.445313 1.601562-1.445313h29.210938c9.578125 0 17.371094-7.792969 17.371094-17.371094v-12.929687c0-9.578125-7.792969-17.371094-17.371094-17.371094h-52.90625c-14.027344 0-25.761719 10.515625-27.296875 24.453125l-1.824219 16.5625c-.449218 4.117187 2.519532 7.820313 6.636719 8.273437 4.113281.457032 7.820313-2.515624 8.273437-6.632812l1.824219-16.558594c.695313-6.328125 6.019531-11.097656 12.386719-11.097656h52.902344c1.308594 0 2.371094 1.0625 2.371094 2.371094v12.929687c0 1.308594-1.0625 2.371094-2.371094 2.371094h-29.207032c-8.546874 0-15.648437 6.410156-16.523437 14.90625l-5.285156 51.34375h-22.292969l2.417969-21.964844c.453125-4.117187-2.515625-7.820312-6.632813-8.273437-4.109375-.441406-7.820312 2.515625-8.277344 6.632812l-2.597656 23.605469h-216.867187c-13.640625 0-24.578125 10.683594-24.90625 24.320313-.722657 30.566406-.347657 91.605468 10.3125 156.992187 12.871093 78.941406 36.515625 139.050781 70.3125 178.851563-4.910157 5.90625-12.125 16.363281-15.542969 29.96875-1.402344 5.578124-.183594 11.371093 3.339844 15.890624 3.496094 4.484376 8.761718 7.054688 14.449218 7.054688h214.398438c5.703125 0 10.988281-2.574219 14.511719-7.0625 3.472656-4.425781 4.699219-10.078125 3.367187-15.507812-3.378906-13.789063-10.679687-24.378907-15.632812-30.34375 9.0625-10.683594 17.476562-22.933594 25.0625-36.527344 2.015625-3.617188.71875-8.183594-2.898438-10.203125-3.617187-2.015625-8.183594-.71875-10.203125 2.898437-7.667969 13.742188-16.199219 25.988282-25.386719 36.449219h-192.042968c-78.40625-89.214844-80.347656-273.378906-79.046875-328.101563.128906-5.425781 4.480469-9.675781 9.90625-9.675781h330.328125c5.425781 0 9.777344 4.25 9.90625 9.675781 1.117187 47.03125-.378906 166.453126-38.242188 259.316407l-.695312 1.6875c-1.574219 3.832031.253906 8.214843 4.085937 9.789062 3.832031 1.578125 8.214844-.253906 9.789063-4.085937l.703125-1.707032c38.9375-95.496093 40.492187-217.386718 39.355469-265.359374zm-93.871094 343.457031c3.574218 3.953125 11.183594 13.515625 14.316406 26.296875.308594 1.269531-.246094 2.226562-.601562 2.683594-.3125.394531-1.199219 1.320312-2.710938 1.320312h-214.398438c-1.414062 0-2.25-.800781-2.621093-1.277344-.390625-.5-.988281-1.554687-.621094-3.011718 3.175781-12.648438 10.703125-22.101563 14.242187-26.011719zm0 0"/><path d="m331.542969 226.511719c.003906-.042969-.003907-.085938 0-.128907 1.648437-24.082031 1.746093-44.511718 1.539062-57.304687-.214843-13.445313-11.339843-24.386719-24.796875-24.386719h-235.96875c-13.460937 0-24.585937 10.941406-24.800781 24.386719-.203125 12.792969-.105469 33.222656 1.539063 57.304687.003906.042969 0 .085938.003906.132813 1.160156 17.316406 3.054687 34.742187 5.761718 51.925781 6.890626 43.753906 20.074219 92.625 46.988282 128.6875 6.449218 8.644532 16.804687 13.804688 27.699218 13.804688h121.582032c10.894531 0 21.25-5.160156 27.703125-13.800782 27.507812-36.855468 39.929687-83.882812 46.988281-128.691406 1.664062-10.578125 3.007812-21.105468 4.066406-31.679687.675782-6.722657 1.234375-13.464844 1.695313-20.25zm-16.089844 13.019531c-.007813.125-.019531.246094-.03125.371094-.707031 7.6875-1.550781 15.363281-2.558594 23.015625-5.515625 41.9375-15.308593 85.640625-37.40625 122.273437-.105469.175782-.214843.355469-.320312.527344-1.65625 2.71875-3.371094 5.371094-5.152344 7.953125-.179687.253906-.355469.507813-.53125.761719-.878906 1.257812-1.769531 2.5-2.683594 3.722656-3.632812 4.867188-9.496093 7.773438-15.679687 7.773438h-121.582032c-6.179687 0-12.042968-2.90625-15.679687-7.773438-.910156-1.21875-1.796875-2.460938-2.675781-3.71875-.179688-.253906-.359375-.511719-.539063-.769531-1.777343-2.578125-3.496093-5.226563-5.148437-7.941407-.105469-.179687-.214844-.359374-.320313-.535156-15.929687-26.398437-25.996093-58.953125-32.320312-91.054687-3.535157-17.949219-5.976563-36.027344-7.644531-54.234375-.011719-.125-.023438-.246094-.035157-.371094-.085937-.941406-.164062-1.875-.246093-2.808594 8 2.199219 17.855468 3.777344 31.398437 3.777344 25.03125 0 37.695313-5.390625 49.941406-10.601562 11.359375-4.832032 22.085938-9.398438 44.050781-9.398438 21.976563 0 32.710938 4.566406 44.074219 9.402344 12.246094 5.210937 24.910157 10.597656 49.9375 10.597656 13.542969 0 23.398438-1.578125 31.402344-3.777344-.082031.933594-.164063 1.867188-.25 2.808594zm1.433594-18.882812c-7.8125 2.675781-17.558594 4.851562-32.585938 4.851562-21.96875 0-32.699219-4.566406-44.0625-9.398438-12.246093-5.210937-24.914062-10.601562-49.949219-10.601562-25.023437 0-37.683593 5.386719-49.925781 10.597656-11.359375 4.835938-22.089843 9.402344-44.0625 9.402344-15.027343 0-24.773437-2.175781-32.585937-4.851562-1.316406-21.492188-1.386719-39.660157-1.199219-51.328126.085937-5.308593 4.480469-9.628906 9.800781-9.628906h235.96875c5.320313 0 9.714844 4.320313 9.800782 9.628906.1875 11.667969.117187 29.835938-1.199219 51.328126zm0 0"/></svg>