<svg height="511pt" viewBox="-39 1 511 511.9985" width="511pt" xmlns="http://www.w3.org/2000/svg"><path d="m247.335938 212.78125c6.515624 0 12.597656-3.507812 15.863281-9.148438 2.078125-3.582031.855469-8.164062-2.726563-10.238281-3.578125-2.074219-8.164062-.855469-10.238281 2.726563-.605469 1.046875-1.691406 1.675781-2.898437 1.675781-1.207032 0-2.289063-.628906-2.898438-1.675781-2.074219-3.582032-6.65625-4.804688-10.238281-2.730469s-4.804688 6.65625-2.730469 10.238281c3.269531 5.644532 9.351562 9.152344 15.867188 9.152344zm0 0"/><path d="m201.210938 193.394531c-3.582032-2.074219-8.164063-.855469-10.238282 2.726563-.609375 1.046875-1.695312 1.675781-2.902344 1.675781-1.207031 0-2.289062-.628906-2.898437-1.675781-2.070313-3.582032-6.65625-4.804688-10.238281-2.730469-3.578125 2.074219-4.800782 6.65625-2.726563 10.238281 3.265625 5.644532 9.347657 9.152344 15.863281 9.152344 6.519532 0 12.597657-3.507812 15.867188-9.148438 2.074219-3.582031.851562-8.164062-2.726562-10.238281zm0 0"/><path d="m92.945312 438.191406c0 5.640625-4.574218 10.214844-10.21875 10.214844-5.640624 0-10.214843-4.574219-10.214843-10.214844 0-5.644531 4.574219-10.21875 10.214843-10.21875 5.644532 0 10.21875 4.574219 10.21875 10.21875zm0 0"/><path d="m361.910156 438.191406c0 5.640625-4.574218 10.214844-10.21875 10.214844-5.640625 0-10.214844-4.574219-10.214844-10.214844 0-5.644531 4.574219-10.21875 10.214844-10.21875 5.644532 0 10.21875 4.574219 10.21875 10.21875zm0 0"/><path d="m399.371094 316.203125h-100.207032c-2.621093-7.035156-8.011718-12.859375-15.191406-15.917969l-36.804687-15.683594c-.816407-.347656-1.34375-1.144531-1.34375-2.035156v-4.214844c29.683593-12.992187 51.742187-42.160156 52.273437-73.5.191406-11.214843 2.761719-22.234374 3.261719-33.414062.003906-.023438.003906-.042969.003906-.066406 7.15625-12.257813 9.972657-26.351563 7.9375-39.980469-.398437-2.683594-.976562-5.363281-1.714843-7.972656-1.128907-3.984375-5.265626-6.296875-9.25-5.167969-3.980469 1.125-6.296876 5.265625-5.167969 9.246094.566406 2 1.007812 4.054687 1.3125 6.105468.945312 6.328126.484375 12.8125-1.285157 19.042969-4.542968-7.441406-11.394531-17.105469-21.175781-27.304687-7.222656-7.53125-16.671875-15.929688-28.621093-24.011719 7.75-2.867187 15.839843-5.460937 24.195312-7.765625 3.082031 2.308594 6.0625 4.800781 8.859375 7.5 2.980469 2.871094 7.722656 2.785156 10.59375-.191406 2.875-2.980469 2.785156-7.722656-.191406-10.59375-8.066407-7.777344-17.332031-14.054688-26.480469-19.074219 7.503906-11.378906 9.320312-24.917969 4.675781-38.214844-6.714843-19.222656-25.5625-32.480469-46.898437-32.988281-.117188 0-.234375 0-.355469 0-21.515625.511719-40.519531 13.890625-47.296875 33.289062-2.425781 6.941407-3.078125 13.953126-2.082031 20.683594-1.546875.59375-3.078125 1.25-4.582031 1.976563-1.996094.964843-4.039063 1.984375-6.066407 3.027343-5.207031 2.6875-8.027343 8.167969-7.183593 13.964844.847656 5.808594 5.125 10.265625 10.894531 11.351563 1.75.332031 3.464843.683593 5.164062 1.046875-3.734375 2.71875-7.28125 5.628906-10.597656 8.730468-27.472656 25.714844-35.03125 52.847657-21.542969 76.765626.054688 1.378906.132813 2.757812.25 4.136718.480469 5.605469 1.320313 11.308594 2 16.863282.535156 4.382812.964844 8.652343 1.039063 13.015624.53125 31.320313 22.566406 60.472657 52.222656 73.476563v4.238281c0 .886719-.527344 1.6875-1.34375 2.035156l-36.804687 15.683594c-7.179688 3.058594-12.578126 8.882813-15.199219 15.917969h-38.453125c-4.140625 0-7.492188 3.355469-7.492188 7.492187 0 4.136719 3.351563 7.492188 7.492188 7.492188h301.15625c.753906 0 1.367187.613281 1.367187 1.367188v28.332031c0 .753906-.613281 1.367187-1.367187 1.367187h-363.539063c-.753906 0-1.367187-.613281-1.367187-1.367187v-28.332031c0-.753907.613281-1.367188 1.367187-1.367188h27.75c4.140625 0 7.492188-3.355469 7.492188-7.492188 0-4.136718-3.351563-7.492187-7.492188-7.492187h-27.753906c-9.015625 0-16.347656 7.335937-16.347656 16.351563v28.332031c0 7.15625 4.628906 13.242187 11.046875 15.449219v104.050781c0 17.433593 14.179687 31.613281 31.609375 31.613281h310.148437c17.429688 0 31.609375-14.179688 31.609375-31.613281v-103.800781c6.820313-1.964844 11.828125-8.253907 11.828125-15.699219v-28.332031c0-9.015626-7.335937-16.351563-16.351562-16.351563zm-214.722656-277.976563c3.921874-11.230468 15.742187-22.75 33.328124-23.242187 17.378907.492187 29.058594 11.859375 32.929688 22.945313 3.273438 9.375 1.71875 18.71875-4.160156 26.597656-4.832032-2.109375-9.429688-3.871094-13.554688-5.300782-11.347656-3.941406-22.519531-6.253906-32.902344-8.167968-5.746093-1.058594-11.519531-1.261719-17.1875-.644532-.382812-3.972656.113282-8.078124 1.546876-12.1875zm-14.292969 31.214844c8.367187-4.042968 18.03125-5.339844 27.21875-3.648437 2.054687.378906 4.140625.777343 6.246093 1.195312-6.578124 2.003907-12.917968 4.492188-18.96875 7.441407-5.257812-1.496094-10.722656-2.859376-16.4375-4.039063.648438-.320313 1.296876-.640625 1.941407-.949219zm-4.066407 35.566406c6.308594-5.90625 13.5625-11.054687 21.570313-15.308593 10.421875-5.554688 21.90625-9.496094 34.132813-11.71875 3.945312-.714844 9.003906-1.53125 13.984374-1.703125 5.003907 2.039062 9.804688 4.308594 14.371094 6.785156-10.269531 3.3125-20.085937 7.066406-29.328125 11.21875-43.703125 19.628906-66.636719 44.246094-77.359375 59.125-3.242187-15.042969 4.328125-31.265625 22.628906-48.398438zm-15.816406 75.953126c-.125-1-.242187-2.007813-.355468-3.011719-.027344-.230469-.054688-.457031-.078126-.6875-.160156-1.476563-.339843-3.429688-.449218-5.074219 2.152344-4.363281 20.363281-38.316406 76.832031-63.898438 14.851563 8.828126 26.105469 18.453126 34.261719 26.878907 10.027344 10.359375 16.710937 20.15625 20.789062 27.089843-.09375-.074218-.1875-.144531-.277344-.214843l-1.546874-1.238281c-8.050782-6.4375-16.375-13.089844-23.613282-20.453126-7.105468-7.230468-18.917968-7.519531-26.324218-.640624-.703126.652343-1.421876 1.289062-2.136719 1.894531-18.65625 15.851562-44.554688 29.152343-77.074219 39.597656-.007812-.082031-.019531-.160156-.027344-.242187zm22.703125 68.117187c-12.882812-12.621094-20.125-28.417969-20.398437-44.484375-.050782-2.804688-.226563-5.550781-.46875-8.253906 35.699218-11.175782 64.273437-25.730469 84.964844-43.308594.878906-.75 1.765624-1.535156 2.628906-2.335938 1.527344-1.417968 3.96875-1.34375 5.449218.160157 7.863282 8.003906 16.933594 15.253906 24.9375 21.652343l1.539063 1.234376c4.296875 3.4375 8.75 6.671874 13.28125 9.660156-.074219.589844-.152344 1.183594-.226563 1.765625-.816406 6.230469-1.65625 12.667969-1.769531 19.425781-.273437 16.0625-7.519531 31.863281-20.402343 44.484375-12.375 12.125-28.660157 19.820313-44.765626 21.167969-16.105468-1.347656-32.394531-9.042969-44.769531-21.167969zm-18.8125 67.125c.996094-.863281 2.121094-1.597656 3.378907-2.132813l36.800781-15.683593c6.121093-2.605469 10.144531-8.46875 10.429687-15.070313 4.0625.945313 8.207032 1.601563 12.414063 1.917969.1875.011719.371093.019531.558593.019531s.371094-.007812.558594-.019531c4.191406-.3125 8.316406-.964844 12.363282-1.90625.289062 6.597656 4.3125 12.453125 10.429687 15.058594l36.800781 15.683593c1.257813.535157 2.378906 1.269532 3.378906 2.132813zm160.109375 61.035156h29.609375v27.75h-29.609375zm-44.828125 0h29.609375v27.75h-29.609375zm-44.824219 0h29.605469v27.75h-29.605469zm-44.828124 0h29.609374v27.75h-29.609374zm-44.828126 0h29.609376v27.75h-29.609376zm-44.828124 0h29.609374v27.75h-29.609374zm-44.824219 0h29.605469v27.75h-29.605469zm29.605469 119.773438h-12.980469c-9.167969 0-16.628907-7.457031-16.628907-16.625v-11.121094h29.609376zm44.828124 0h-29.609374v-27.746094h29.609374zm44.828126 0h-29.609376v-27.746094h29.609376zm44.828124 0h-29.609374v-27.746094h29.609374zm44.828126 0h-29.609376v-27.746094h29.609376zm44.828124 0h-29.609374v-27.746094h29.609374zm44.824219 0h-29.605469v-27.746094h29.605469zm44.828125-16.625c0 9.167969-7.457031 16.628906-16.625 16.628906h-12.984375v-27.75h29.609375zm0-26.105469h-343.398437v-34.308594h343.398437zm0-49.292969h-29.609375v-27.75h29.609375zm0 0"/><path d="m22.847656 276.023438c12.011719-.160157 21.652344-10.066407 21.488282-22.078126l-.269532-19.789062c-.078125-5.820312-2.417968-11.257812-6.589844-15.316406-4.167968-4.058594-9.679687-6.273438-15.488281-6.171875-5.816406.078125-11.257812 2.417969-15.316406 6.589843-4.058594 4.167969-6.25 9.667969-6.171875 15.488282l.269531 19.792968c.164063 11.910157 9.902344 21.488282 21.777344 21.488282.101563 0 .203125 0 .300781-.003906zm-7.09375-21.6875-.269531-19.792969c-.023437-1.816407.660156-3.535157 1.925781-4.835938 1.269532-1.300781 2.964844-2.03125 4.78125-2.054687h.09375c1.78125 0 3.460938.679687 4.742188 1.925781 1.300781 1.265625 2.03125 2.960937 2.054687 4.777344l.269531 19.792969c.050782 3.75-2.957031 6.839843-6.707031 6.894531-.03125 0-.0625 0-.09375 0-3.707031 0-6.746093-2.992188-6.796875-6.707031zm0 0"/><path d="m73.597656 215.996094c.097656 0 .199219 0 .300782-.003906 12.007812-.160157 21.648437-10.066407 21.484374-22.078126l-.433593-32.015624c-.078125-5.816407-2.417969-11.257813-6.589844-15.316407-4.097656-3.984375-9.476563-6.171875-15.183594-6.171875-.101562 0-.203125 0-.304687.003906-12.011719.164063-21.648438 10.066407-21.488282 22.078126l.4375 32.015624c.160157 11.910157 9.902344 21.488282 21.777344 21.488282zm-.523437-60.601563h.097656c1.777344 0 3.460937.683594 4.738281 1.929688 1.300782 1.265625 2.03125 2.960937 2.058594 4.777343l.433594 32.015626c.050781 3.75-2.957032 6.84375-6.707032 6.894531-3.722656.046875-6.839843-2.957031-6.890624-6.707031l-.433594-32.019532c-.054688-3.746094 2.953125-6.839844 6.703125-6.890625zm0 0"/><path d="m427.511719 219.253906c-4.058594-4.167968-9.5-6.507812-15.316407-6.585937-5.863281-.074219-11.320312 2.113281-15.492187 6.167969-4.167969 4.058593-6.507813 9.5-6.585937 15.316406l-.269532 19.792968c-.078125 5.820313 2.113282 11.320313 6.171875 15.488282 4.054688 4.171875 9.496094 6.511718 15.316407 6.589844h.304687c5.703125 0 11.085937-2.183594 15.183594-6.171876 4.171875-4.058593 6.511719-9.496093 6.589843-15.3125l.269532-19.796874c.078125-5.816407-2.117188-11.316407-6.171875-15.488282zm-9.082031 35.082032c-.023438 1.816406-.753907 3.511718-2.054688 4.777343-1.28125 1.246094-2.960938 1.929688-4.742188 1.929688-.03125 0-.0625 0-.09375 0-1.816406-.027344-3.515624-.757813-4.78125-2.058594-1.269531-1.300781-1.953124-3.019531-1.925781-4.835937l.265625-19.792969c.027344-1.816407.757813-3.511719 2.058594-4.78125 1.277344-1.242188 2.957031-1.925781 4.738281-1.925781h.097657c1.816406.023437 3.511718.757812 4.78125 2.058593 1.265624 1.300781 1.949218 3.019531 1.925781 4.832031zm0 0"/><path d="m360.285156 215.992188c.101563.003906.203125.003906.304688.003906 5.703125 0 11.085937-2.183594 15.1875-6.171875 4.167968-4.058594 6.507812-9.5 6.585937-15.316407l.433594-32.019531c.164063-12.007812-9.476563-21.914062-21.484375-22.074219-5.855469-.09375-11.320312 2.113282-15.492188 6.167969-4.167968 4.058594-6.507812 9.5-6.585937 15.316407l-.4375 32.015624c-.164063 12.011719 9.476563 21.917969 21.488281 22.078126zm-6.070312-53.890626c.027344-1.816406.757812-3.511718 2.058594-4.777343 1.300781-1.269531 3.042968-1.921875 4.835937-1.929688 3.75.054688 6.757813 3.144531 6.707031 6.894531l-.433594 32.015626c-.023437 1.816406-.757812 3.511718-2.058593 4.78125-1.300781 1.265624-3.039063 1.90625-4.835938 1.925781-3.746093-.054688-6.753906-3.144531-6.707031-6.894531zm0 0"/></svg>