<svg height="512pt" viewBox="-118 0 512 512" width="512pt" xmlns="http://www.w3.org/2000/svg"><path d="m274.949219 291.210938c-1.730469-39.703126-22.507813-74.546876-53.410157-95.597657v-41.515625h3.96875c11.832032 0 21.453126-9.625 21.453126-21.453125v-47.859375c0-11.828125-9.621094-21.453125-21.453126-21.453125h-12.832031l4.824219-30.058593c1.335938-8.320313-1.03125-16.769532-6.5-23.183594-5.464844-6.410156-13.433594-10.089844-21.859375-10.089844h-103.203125c-8.429688 0-16.398438 3.679688-21.863281 10.09375-5.464844 6.410156-7.832031 14.859375-6.496094 23.179688l4.824219 30.0625h-12.835938c-11.828125 0-21.453125 9.621093-21.453125 21.449218 0 4.144532 3.359375 7.5 7.503907 7.5 4.140624 0 7.5-3.355468 7.5-7.5 0-3.558594 2.894531-6.449218 6.449218-6.449218h175.941406c3.558594 0 6.453126 2.894531 6.453126 6.449218v47.859375c0 3.558594-2.894532 6.453125-6.453126 6.453125h-175.941406c-3.558594 0-6.453125-2.894531-6.453125-6.453125v-13.394531c0-4.144531-3.355469-7.5-7.5-7.5-4.140625 0-7.5 3.355469-7.5 7.5v13.394531c0 11.828125 9.625 21.453125 21.453125 21.453125h3.96875v41.515625c-30.898437 21.050781-51.675781 55.894531-53.410156 95.597657-.078125.433593-.125.878906-.125 1.335937v184.464844c0 19.292969 15.695312 34.988281 34.988281 34.988281h205.101563c19.292968 0 34.984375-15.695312 34.984375-34.988281v-184.464844c0-.457031-.046875-.902344-.125-1.335937zm-72.257813-260.316407-5.207031 32.4375h-119.890625l-5.207031-32.4375c-.636719-3.972656.492187-8.011719 3.105469-11.074219 2.609374-3.0625 6.417968-4.820312 10.441406-4.820312h103.207031c4.027344 0 7.832031 1.757812 10.445313 4.820312 2.609374 3.066407 3.742187 7.101563 3.105468 11.074219zm-134.15625 123.203125h138.003906v32.789063c-16.183593-7.9375-34.367187-12.402344-53.578124-12.402344h-30.84375c-19.210938 0-37.394532 4.464844-53.582032 12.402344zm53.582032 35.386719h30.84375c55.160156 0 100.710937 41.914063 106.488281 95.5625h-243.824219c5.78125-53.648437 51.332031-95.5625 106.492188-95.5625zm137.957031 270.769531h-70.367188c-4.144531 0-7.5 3.359375-7.5 7.5 0 4.144532 3.355469 7.5 7.5 7.5h70.367188v1.757813c0 11.023437-8.964844 19.988281-19.984375 19.988281h-205.101563c-11.023437 0-19.988281-8.964844-19.988281-19.988281v-1.757813h139.601562c4.140626 0 7.5-3.355468 7.5-7.5 0-4.140625-3.359374-7.5-7.5-7.5h-139.601562v-160.207031h245.074219zm0 0"/><path d="m89.316406 399.972656c-1.195312 3.371094-1.8125 6.941406-1.8125 10.585938 0 17.484375 14.226563 31.710937 31.710938 31.710937 6.628906 0 13.015625-2.074219 18.320312-5.835937 5.3125 3.761718 11.695313 5.835937 18.324219 5.835937 17.484375 0 31.710937-14.226562 31.710937-31.710937 0-3.644532-.617187-7.214844-1.8125-10.585938 8.355469-5.835937 13.585938-15.503906 13.585938-26.019531 0-17.246094-13.835938-31.316406-30.992188-31.703125-3.375-13.878906-15.910156-24.214844-30.816406-24.214844-14.902344 0-27.4375 10.335938-30.8125 24.214844-17.15625.386719-30.992187 14.457031-30.992187 31.703125 0 10.515625 5.230469 20.183594 13.585937 26.019531zm18.125-42.730468c1.375 0 2.75.171874 4.082032.503906 2.277343.570312 4.691406.042968 6.519531-1.425782 1.832031-1.472656 2.867187-3.714843 2.800781-6.0625l-.015625-.515624c0-9.210938 7.496094-16.707032 16.710937-16.707032 9.214844 0 16.710938 7.496094 16.710938 16.707032l-.019531.515624c-.0625 2.347657.972656 4.589844 2.800781 6.0625 1.832031 1.46875 4.246094 1.996094 6.519531 1.425782 1.335938-.332032 2.710938-.503906 4.085938-.503906 9.210937 0 16.707031 7.496093 16.707031 16.710937 0 7.054687-4.460938 13.382813-11.105469 15.746094-2.199219.78125-3.910156 2.546875-4.625 4.769531-.714843 2.226562-.351562 4.65625.980469 6.574219 1.949219 2.804687 2.976562 6.09375 2.976562 9.515625 0 9.210937-7.496093 16.707031-16.710937 16.707031-4.851563 0-9.460937-2.109375-12.644531-5.796875-1.425782-1.648438-3.496094-2.597656-5.675782-2.597656-2.179687 0-4.25.945312-5.675781 2.597656-3.183593 3.6875-7.792969 5.796875-12.644531 5.796875-9.214844 0-16.710938-7.496094-16.710938-16.707031 0-3.421875 1.027344-6.710938 2.976563-9.515625 1.332031-1.917969 1.695313-4.351563.980469-6.574219s-2.425782-3.988281-4.625-4.769531c-6.644532-2.363281-11.105469-8.691407-11.105469-15.746094-.003906-9.214844 7.492187-16.710937 16.707031-16.710937zm0 0"/><path d="m137.539062 408.464844c13.542969 0 24.5625-11.019532 24.5625-24.566406 0-13.542969-11.019531-24.5625-24.5625-24.5625-13.546874 0-24.5625 11.019531-24.5625 24.5625 0 13.546874 11.015626 24.566406 24.5625 24.566406zm0-34.125c5.269532 0 9.5625 4.289062 9.5625 9.5625 0 5.273437-4.289062 9.5625-9.5625 9.5625-5.273437 0-9.5625-4.289063-9.5625-9.5625 0-5.273438 4.289063-9.5625 9.5625-9.5625zm0 0"/></svg>