<svg height="512pt" viewBox="-25 0 512 512.0022" width="512pt" xmlns="http://www.w3.org/2000/svg"><path d="m457.480469 150.488281c-16.894531-77.117187-58.976563-126.4375-121.699219-142.628906-25.929688-6.695313-52.445312-9.183594-76.6875-7.195313-27.976562 2.292969-52.816406 10.304688-73.835938 23.8125-65.820312 42.292969-72.261718 112.078126-68.671874 175.976563-13.941407-15.335937-33.296876-25.632813-52.828126-27.890625-17.238281-2-35.179687 4.710938-47.988281 17.9375-12.0625 12.460938-17.609375 28.800781-15.226562 44.839844 1.460937 9.816406 5.179687 19.730468 11.050781 29.464844 2.140625 3.546874 6.75 4.6875 10.296875 2.546874 3.546875-2.140624 4.6875-6.75 2.546875-10.292968-4.84375-8.027344-7.894531-16.078125-9.0625-23.925782-1.691406-11.382812 2.378906-23.121093 11.167969-32.199218 9.585937-9.898438 22.859375-14.9375 35.492187-13.476563 17.253906 1.996094 35.109375 12.265625 46.605469 26.800781 3.5625 4.503907 9.558594 6.144532 14.925781 4.078126 5.363282-2.0625 8.714844-7.296876 8.339844-13.023438-2.644531-40.367188-.566406-69.539062 6.726562-94.589844 9.269532-31.835937 27.171876-55.917968 54.730469-73.628906 18.929688-12.164062 41.457031-19.390625 66.953125-21.480469 22.59375-1.855469 47.390625.488281 71.714844 6.769531 30.011719 7.746094 54.875 23.894532 73.894531 47.996094 17.132813 21.707032 29.546875 49.742188 36.902344 83.320313 10.722656 48.941406-.917969 100.578125-12.257813 140.089843-.980468 3.425782-1.957031 6.804688-2.921874 10.144532-11.753907 40.65625-21.988282 76.070312-21.925782 120.046875h-244.515625c1.765625-42.046875-7.929687-55.238281-32.046875-77.308594-2.308594-2.117187-4.757812-4.195313-7.472656-6.355469-13.398438-10.664062-31.128906-24.496094-49.414062-36.878906-10.082032-6.828125-19.046876-13.898438-26.644532-21.015625-3.023437-2.828125-7.769531-2.671875-10.601562.351563-2.828125 3.023437-2.671875 7.765624.351562 10.597656 8.167969 7.652344 17.753906 15.214844 28.488282 22.484375 17.859374 12.097656 35.292968 25.699219 48.480468 36.195312 2.449219 1.945313 4.636719 3.804688 6.6875 5.683594 20.992188 19.210937 28.875 28.550781 27.160156 66.246094h-5.867187c-9.25 0-16.777344 7.527343-16.777344 16.78125v54.460937c0 9.253906 7.527344 16.78125 16.777344 16.78125h117.035156c4.140625 0 7.496094-3.359375 7.496094-7.5 0-4.144531-3.355469-7.5-7.496094-7.5h-117.03125c-.984375 0-1.78125-.796875-1.78125-1.78125v-54.460937c0-.984375.796875-1.785157 1.78125-1.785157h279.34375c.980469 0 1.777344.800782 1.777344 1.785157v54.460937c0 .984375-.796875 1.78125-1.777344 1.78125h-127.152343c-4.140626 0-7.5 3.355469-7.5 7.5 0 4.140625 3.359374 7.5 7.5 7.5h127.152343c9.25 0 16.777344-7.527344 16.777344-16.78125v-54.460937c0-8.898438-6.964844-16.179688-15.722656-16.726563-.054688-41.941406 9.894531-76.390625 21.324219-115.9375.96875-3.347656 1.945312-6.734375 2.933593-10.171875 11.824219-41.210937 23.933594-95.214843 12.492188-147.4375zm0 0"/><path d="m186.734375 443.921875c-8.960937 0-16.25 7.289063-16.25 16.25v15.636719c0 8.960937 7.289063 16.25 16.25 16.25h11.257813c8.960937 0 16.25-7.289063 16.25-16.25v-15.636719c0-8.960937-7.289063-16.25-16.25-16.25zm12.511719 16.25v15.636719c0 .691406-.5625 1.253906-1.253906 1.253906h-11.257813c-.691406 0-1.253906-.5625-1.253906-1.253906v-15.636719c0-.691406.5625-1.253906 1.253906-1.253906h11.257813c.691406 0 1.253906.5625 1.253906 1.253906zm0 0"/><path d="m256.417969 443.921875h-11.257813c-8.960937 0-16.25 7.289063-16.25 16.25v15.636719c0 8.960937 7.289063 16.25 16.25 16.25h11.257813c8.960937 0 16.25-7.289063 16.25-16.25v-15.636719c0-8.960937-7.289063-16.25-16.25-16.25zm1.253906 31.882813c0 .691406-.5625 1.253906-1.253906 1.253906h-11.257813c-.691406 0-1.253906-.5625-1.253906-1.253906v-15.632813c0-.691406.5625-1.253906 1.253906-1.253906h11.257813c.691406 0 1.253906.5625 1.253906 1.253906zm0 0"/><path d="m314.84375 492.058594c8.960938 0 16.253906-7.292969 16.253906-16.253906v-15.632813c0-8.960937-7.292968-16.25-16.253906-16.25h-11.253906c-8.964844 0-16.253906 7.289063-16.253906 16.25v15.632813c0 8.960937 7.289062 16.253906 16.253906 16.253906zm-12.511719-16.253906v-15.632813c0-.691406.5625-1.253906 1.257813-1.253906h11.253906c.691406 0 1.253906.5625 1.253906 1.253906v15.632813c0 .691406-.5625 1.253906-1.253906 1.253906h-11.253906c-.695313 0-1.257813-.558594-1.257813-1.253906zm0 0"/><path d="m373.269531 492.058594c8.960938 0 16.253907-7.292969 16.253907-16.253906v-15.632813c0-8.960937-7.292969-16.25-16.253907-16.25h-11.257812c-8.960938 0-16.25 7.289063-16.25 16.25v15.632813c0 8.960937 7.289062 16.253906 16.25 16.253906zm-12.507812-16.253906v-15.632813c0-.691406.5625-1.253906 1.253906-1.253906h11.253906c.691407 0 1.253907.5625 1.253907 1.253906v15.632813c0 .691406-.5625 1.253906-1.253907 1.253906h-11.253906c-.695313 0-1.253906-.558594-1.253906-1.253906zm0 0"/><path d="m377.515625 226.441406c0-25.105468-20.425781-45.53125-45.53125-45.53125-.785156 0-1.570313.023438-2.355469.0625-3.5625-21.578125-22.347656-38.089844-44.921875-38.089844-22.570312 0-41.359375 16.511719-44.921875 38.089844-.785156-.039062-1.570312-.0625-2.355468-.0625-25.101563 0-45.527344 20.425782-45.527344 45.53125 0 16.253906 8.699218 31.089844 22.335937 39.179688-2.527343 5.734375-3.839843 11.941406-3.839843 18.320312 0 25.101563 20.421874 45.527344 45.527343 45.527344 10.570313 0 20.710938-3.671875 28.78125-10.265625 8.070313 6.59375 18.210938 10.265625 28.785157 10.265625 25.101562 0 45.527343-20.425781 45.527343-45.527344 0-6.375-1.3125-12.585937-3.84375-18.320312 13.636719-8.089844 22.339844-22.925782 22.339844-39.179688zm-35.292969 28.769532c-2.199218.78125-3.910156 2.546874-4.625 4.769531-.714844 2.222656-.351562 4.652343.980469 6.570312 3.5625 5.125 5.441406 11.136719 5.441406 17.390625 0 16.832032-13.695312 30.53125-30.53125 30.53125-8.871093 0-17.292969-3.859375-23.105469-10.59375-1.425781-1.648437-3.496093-2.597656-5.675781-2.597656-2.179687 0-4.25.949219-5.675781 2.597656-5.8125 6.730469-14.234375 10.59375-23.105469 10.59375-16.835937 0-30.53125-13.699218-30.53125-30.53125 0-6.253906 1.878907-12.265625 5.441407-17.390625 1.332031-1.917969 1.695312-4.347656.980468-6.570312-.714844-2.222657-2.425781-3.988281-4.625-4.769531-12.136718-4.324219-20.292968-15.882813-20.292968-28.769532 0-16.835937 13.695312-30.53125 30.53125-30.53125 2.511718 0 5.015624.308594 7.449218.917969 2.273438.570313 4.691406.046875 6.519532-1.425781 1.832031-1.46875 2.867187-3.710938 2.800781-6.058594l-.011719-.382812c-.003906-.183594-.011719-.367188-.011719-.550782 0-16.835937 13.695313-30.53125 30.53125-30.53125 16.832031 0 30.53125 13.695313 30.53125 30.53125 0 .199219-.011719.398438-.015625.597656l-.011718.316407c-.070313 2.351562.960937 4.597656 2.792968 6.070312 1.832032 1.476563 4.25 2.007813 6.523438 1.433594 2.4375-.609375 4.941406-.917969 7.453125-.917969 16.835937 0 30.53125 13.695313 30.53125 30.53125.003906 12.886719-8.152344 24.445313-20.289063 28.769532zm0 0"/><path d="m284.707031 192.613281c-25.371093 0-46.011719 20.640625-46.011719 46.011719s20.640626 46.011719 46.011719 46.011719c25.371094 0 46.011719-20.640625 46.011719-46.011719s-20.640625-46.011719-46.011719-46.011719zm0 77.027344c-17.101562 0-31.015625-13.914063-31.015625-31.015625 0-17.105469 13.914063-31.015625 31.015625-31.015625 17.101563 0 31.015625 13.910156 31.015625 31.015625 0 17.101562-13.914062 31.015625-31.015625 31.015625zm0 0"/></svg>